<?xml version="1.0" encoding="utf-8"?>
<!-- Generator: Adobe Illustrator 25.0.0, SVG Export Plug-In . SVG Version: 6.00 Build 0)  -->
<svg version="1.1" id="Layer_1" xmlns="http://www.w3.org/2000/svg" xmlns:xlink="http://www.w3.org/1999/xlink" x="0px" y="0px"
	 viewBox="0 0 1438 1153" style="enable-background:new 0 0 1438 1153;" xml:space="preserve">
<style type="text/css">
	.st0{fill:#F8F0FC;}
	.st1{fill:#B27C60;}
	.st2{fill:#A56C53;}
	.st3{fill:#935B47;}
	.st4{fill:#E4E8F2;}
	.st5{fill:#C6D1E5;}
	.st6{fill:#B6C3DB;}
	.st7{fill:#F6AF9A;}
	.st8{fill:#EA9A88;}
	.st9{fill:#564756;}
	.st10{fill:#4A3A4A;}
	.st11{fill:#F0E9E9;}
	.st12{fill:#FFFFFF;}
	.st13{fill:#FFE7D1;}
	.st14{fill:#DE9681;}
	.st15{fill:#192B4F;}
	.st16{fill:#E57E73;}
	.st17{fill:#A34545;}
	.st18{fill:#B54C4C;}
	.st19{fill:#9E5959;}
	.st20{fill:#E26E5F;}
	.st21{fill:#D15C4D;}
	.st22{fill:#914D4D;}
	.st23{fill:#723333;}
	.st24{fill:#69948A;}
	.st25{fill:#558579;}
	.st26{fill:#E5B8B7;}
	.st27{fill:#D69D9D;}
	.st28{fill:#F7D5D3;}
	.st29{fill:#FFF3E8;}
	.st30{fill:#D38475;}
	.st31{fill:#152545;}
	.st32{fill:#DBA086;}
	.st33{fill:#CE8A72;}
	.st34{fill:#DAE1F2;}
	.st35{fill:#ECF0FA;}
</style>
<path class="st0" d="M65.9,938.4C-97.3,631.2,257.9,133.7,750.9,23.7c424.3-49.4,934.7,417.9,489.7,780.3
	C938.1,1050.4,218.1,1224.9,65.9,938.4z"/>
<path class="st1" d="M1211.8,800.9l19.4,201.1c0.4,5.3-3.7,9.9-8.9,9.9h-5.9c-4.5,0-8.2-3.3-8.9-7.8L1172.9,801L1211.8,800.9
	L1211.8,800.9z"/>
<path class="st2" d="M1277,762.8l38.1,215.8c0.9,5.6-3.3,10.6-8.9,10.6h-5.7c-4.2,0-7.8-3-8.7-7.1L1238,762.8H1277z"/>
<path class="st2" d="M1121.1,762.8l-38,215.8c-0.9,5.6,3.3,10.6,8.8,10.6h5.7c4.2,0,7.8-3,8.7-7.1l53.8-219.3H1121.1z"/>
<path class="st1" d="M991.8,790.2L955,1001.4c-0.8,5.5,3.4,10.5,8.9,10.5h5.7c4.2,0,7.9-3,8.8-7.2l52.4-214.5H991.8z"/>
<path class="st3" d="M1284.7,772.9c0,0-3.5,28-42.7,32.2s-193,3-232.7-6.6c-39.8-9.5-32.7-36.4-32.7-36.4L1284.7,772.9z"/>
<path class="st4" d="M1111.1,462.3c0,0-35.1-3-35.1,27.4c0,28.6,0,169.3,0,169.3s5.3,20.9-49.7,31.6c-51.1,10-53.8,31.6-50.3,68.6
	l109.3-42.9V488.5C1085.3,488.5,1084.8,465.9,1111.1,462.3z"/>
<path class="st5" d="M1291.2,488.5v252.2h-205.8V488.5c0-14.5,11.5-26.2,25.7-26.2h154.4C1279.7,462.3,1291.2,474.1,1291.2,488.5z"
	/>
<path class="st6" d="M1291.2,740.7c0,0,1.2-24.4-53.2-24.4s-152.6,0-152.6,0l-109.3,42.9c0,0-7,15.5,40.3,23.8
	c47.4,8.3,135.6,12.2,155,10.1C1193.5,790.8,1291.2,740.7,1291.2,740.7z"/>
<path class="st4" d="M1265.4,462.3c0,0,17.5,4.2,17.5,50.7s0,168.1,0,168.1s6.7,27.6-58,35.4c-66.3,7.9-69.3,23.7-69.3,77.4
	c0,0,27.9,3.5,54.2,0.5c26.3-3,83-3.6,88.9-49.5c5.8-45.9-1.2-109.7,0-147.9c0.8-27.5,0.5-85.3,0.2-115.5
	c-0.1-10.7-8.6-19.3-19.1-19.3L1265.4,462.3L1265.4,462.3z"/>
<path class="st1" d="M224.6,800.9L205.2,1002c-0.4,5.3,3.7,9.9,8.9,9.9h5.9c4.5,0,8.2-3.3,8.9-7.8L263.5,801L224.6,800.9
	L224.6,800.9z"/>
<path class="st2" d="M159.5,762.8l-38.1,215.8c-0.9,5.6,3.3,10.6,8.9,10.6h5.7c4.2,0,7.8-3,8.7-7.1l53.8-219.3H159.5z"/>
<path class="st2" d="M315.3,762.8l38.1,215.8c0.9,5.6-3.3,10.6-8.8,10.6h-5.7c-4.2,0-7.8-3-8.7-7.1l-53.8-219.3H315.3z"/>
<path class="st1" d="M444.6,790.2l36.8,211.2c0.8,5.5-3.4,10.5-8.9,10.5h-5.7c-4.2,0-7.9-3-8.8-7.2l-52.4-214.5H444.6z"/>
<path class="st3" d="M151.7,772.9c0,0,3.5,28,42.7,32.2s193,3,232.7-6.6c39.8-9.5,32.7-36.4,32.7-36.4L151.7,772.9z"/>
<path class="st4" d="M325.3,462.3c0,0,35.1-3,35.1,27.4c0,28.6,0,169.3,0,169.3s-5.3,20.9,49.7,31.6c51.1,10,53.8,31.6,50.3,68.6
	l-109.3-42.9V488.6C351.1,488.5,351.7,465.9,325.3,462.3z"/>
<path class="st5" d="M145.2,488.5v252.2h205.9V488.5c0-14.5-11.5-26.2-25.7-26.2H171C156.8,462.3,145.2,474.1,145.2,488.5z"/>
<path class="st6" d="M145.2,740.7c0,0-1.2-24.4,53.2-24.4s152.6,0,152.6,0l109.4,42.9c0,0,7,15.5-40.3,23.8
	c-47.4,8.3-135.6,12.2-155,10.1C242.9,790.8,145.2,740.7,145.2,740.7z"/>
<path class="st4" d="M171,462.3c0,0-17.5,4.2-17.5,50.7s0,168.1,0,168.1s-6.7,27.6,58,35.4c66.3,7.9,69.3,23.7,69.3,77.4
	c0,0-27.9,3.5-54.3,0.5c-26.3-3-83-3.6-88.9-49.5c-5.8-45.9,1.2-109.7,0-147.9c-0.8-27.5-0.5-85.3-0.2-115.5
	c0.1-10.7,8.6-19.3,19.1-19.3L171,462.3L171,462.3z"/>
<path class="st7" d="M461.6,458.6c0,0,27.1-1.5,36.4,42.7c7.7,36.8,17,209.5,15,237.4c-2,27.9-39.6,42.1-61.2,0.6
	c-30-57.7-49.9-160.9-52.6-204.6C396.3,491.2,417.4,458,461.6,458.6z"/>
<path class="st8" d="M399.4,516.7l78.9-13.2c0,0-11.3,40.2-18.1,53.3c-6.1,12-11.4,110.3-19,159.9c-24.7-61-40-144.4-42.3-180.2
	C398.4,529.7,398.8,523,399.4,516.7z"/>
<path class="st9" d="M450.9,454.4c0,0,32.2-2.9,40.9,20.7c7.8,21.4,13.9,52.4,19.5,132.2s7.4,107.2,3,129.8
	c-3,15.3-14.9,31.5-28.9,33c-14.1,1.5-25.8-6.7-39.6-38.6c-13.9-31.9-28.3-82.5-35.5-113.2s-14.5-69.1-13.4-99.6
	S414.2,458.2,450.9,454.4z"/>
<path class="st10" d="M456,561.8c0,0,0.3-21.1-11-33.5l-37.9,76.1c1,4.7,2.1,9.3,3.1,13.8c7.2,30.7,21.6,81.3,35.5,113.2
	c0.2,0.5,0.4,1,0.6,1.4c5.2-13.4,10.8-28.6,14-39.8c7.1-24.8,12.1-130.3,12.1-130.3s8.1-15.3,4.8-33.9
	C477.3,528.9,468,562.5,456,561.8z"/>
<path class="st7" d="M512.2,744.8c0,0-26.9,227-30.9,242.3s-27.4,18.3-27.9-6.4s-4.7-74.2-9.2-127.3s2.6-107.5,7.8-128.2
	C459.5,695.3,513.6,693.2,512.2,744.8z"/>
<path class="st9" d="M490.9,693.9c0,0,27.9,3.4,24.2,53.4c-3,41.3-22.9,182.1-22.9,182.1s-28.3,3.5-43.9-0.8c0,0-6.8-82.6-8.4-106.1
	c-3.1-42.8,4.7-81.3,8.1-102.3C451.2,699.2,475.5,690.2,490.9,693.9z"/>
<path class="st10" d="M457.1,703.3c-4.7,4.3-8.1,9.9-9.2,16.9c-0.6,3.5-1.2,7.4-1.9,11.8c0.1,0.3,0.2,0.6,0.4,0.8
	C450.1,723.2,454,712.6,457.1,703.3z"/>
<path class="st7" d="M475.3,953.2c0,0,9.1,1.4,7,19c-1.4,12,14.7,31.6,27.5,41.8c4.1,3.3,6.6,5.3,9.4,6.9
	c11.6,6.6,18.2,10.5,15.7,16.4s-32.8-0.8-42.1-4.4c-9.3-3.5-16.4-15.2-32.2-18.8s-20.6-9.6-20-16.8c0.9-11.2,13.2-20.5,16.3-33.6
	C460.1,950.8,468.7,950.8,475.3,953.2z"/>
<path class="st9" d="M440.6,1013.6c0,0,2.3,7.6,4.1,14.1s2.4,16.7,2.4,16.7s2.4,1.1,4.1-0.2c0,0,0-10.2,0.2-15s1.4-12.5,1.4-12.5
	S444.3,1012,440.6,1013.6z"/>
<path class="st9" d="M440.3,1007.2c0,0,0.1,5.4,0.4,6.9c0.3,1.6,17.7,5.4,24.9,9.1c7.2,3.7,18.4,9.6,21.7,13.6
	c3.4,4,11.8,7.7,17.7,8.5s26.5,0.9,41.2-6.5l-54.5-9.5l-34.4-19.4L440.3,1007.2z"/>
<path class="st11" d="M511.5,1015.2c0,0-5.3,6.1-12,8.9c-6.7,2.8-18.4-4.7-26.5-10.2s-23.3-24.8-25.3-32.1c0,0-9.7,9.1-8.1,24.3
	c0.3,5.5,11.4,8.5,18.9,10.9c7.5,2.3,25.1,12.4,28.5,16.2c3.4,3.8,8.7,11,39.8,9.2c9.9-0.6,20.1-3.7,20.1-3.7
	S529.8,1024.4,511.5,1015.2z"/>
<path class="st7" d="M495,451.8c0,0,1.7,27.6,0.8,45.7c-0.9,18.1-9.8,36.3-23.9,54.5c-13.3,17.4-39.8,28-66.1,25
	s-58.7-2.8-64.2-32.2c-5.5-29.5,10.2-64.8,22.1-79.5s16.1-17.2,20.8-31.1C389.2,420.1,493.7,398,495,451.8z"/>
<path class="st9" d="M496.5,448.3c0,0-86.1,4.4-113.4-10.4c0,0-8.2,10.5-16.5,19.8s-22.1,29.9-26.1,60s10.1,47.6,14,53.7
	c3.8,6.1,21.1,11.8,40.2,12.5c18.2,0.7,51.5-3.1,71.2-22.4c19.8-19.3,29.7-48.4,31.7-61C499.4,487.7,496.5,448.3,496.5,448.3z"/>
<path class="st10" d="M465.8,561.4c4.3-4.2,8-8.8,11.4-13.6c0.9-5.4,1.3-11.9,0.1-18.9c0,0-9.3,33.6-21.3,32.9c0,0,0.3-21.1-11-33.5
	l-26.9,54C434.5,579.8,453,573.9,465.8,561.4z"/>
<path class="st10" d="M371,452.6c3.5-9.7,6.6-18,6.6-18c27.4,14.9,119,13.6,119,13.6s0.3,4.7,0.7,11.3
	C478.8,466.1,429.6,478.5,371,452.6z"/>
<path class="st7" d="M393.5,486.9c0,0,43.8-2.9,51.6,41.4c7.8,44.4-12.6,190.2-20.8,216.1c-8.2,25.8-48.6,38.1-60.3-14.1
	s-23.3-100.8-21.3-194.2C342.7,534.1,348.8,489.1,393.5,486.9z"/>
<path class="st9" d="M398.8,477.8c0,0,33.3,2.5,46.1,34.2c12.9,31.7-1.6,145.7-2.9,162.4s-7.4,54.5-12,69.8
	c-5.1,17-19.7,31.5-38.6,30.7s-28.7-14.9-37.6-57.4c-8.9-42.4-7.1-56.2-9.8-81.1c-2.7-25-5.9-80.5-3.5-103.2
	C342.9,510.4,361.4,476.9,398.8,477.8z"/>
<path class="st7" d="M422.5,768.4c0,0-65.2,208.3-71.7,222.6s-30.1,13.2-26.4-11.2s4.3-59.4,8.9-112.4c4.6-53.1,20.7-105.5,29.3-125
	C375,714.3,432.6,717.8,422.5,768.4z"/>
<path class="st9" d="M406.2,718.4c0,0,28.7,10,18.4,50c-10.3,40.1-57,182.2-57,182.2s-28.5-1.5-43.2-8.5c0,0,7.3-82.5,9.6-106
	c4.2-42.7,18.4-79.2,25.3-99.4C366.2,716.7,391.7,712.1,406.2,718.4z"/>
<path class="st7" d="M346.8,962.5c0,0,8.9,2.4,5,19.7c-2.6,11.8,11.5,33,23.2,44.5c3.7,3.7,6,6,8.6,7.9c10.8,7.8,17,12.4,13.9,18
	s-32.5-4.3-41.4-8.8s-14.8-16.8-30.1-22.1c-15.3-5.3-19.5-11.7-18.2-18.8c2-11,15.2-19,19.7-31.7
	C331.9,958.5,340.5,959.4,346.8,962.5z"/>
<path class="st9" d="M306.2,1018.9c0,0,1.5,7.8,2.7,14.4s0.7,16.9,0.7,16.9s2.3,1.3,4.1,0.2c0,0,1-10.2,1.7-14.9
	c0.7-4.8,2.6-12.3,2.6-12.3S310.1,1017.7,306.2,1018.9z"/>
<path class="st9" d="M306.5,1012.5c0,0-0.5,5.3-0.3,6.9c0.2,1.6,17,7.2,23.8,11.7s17.3,11.5,20.3,15.8s10.9,8.9,16.7,10.3
	c5.8,1.5,26.2,3.6,41.6-2.1l-53.3-15.1l-32.2-23L306.5,1012.5z"/>
<path class="st11" d="M376.5,1027.9c0,0-5.9,5.5-12.8,7.6s-17.8-6.6-25.3-12.9c-7.5-6.3-20.6-27.1-21.9-34.6c0,0-10.6,8-10.5,23.3
	c-0.3,5.5,10.5,9.7,17.7,12.8c7.3,3.1,23.7,15,26.7,19.1s7.6,11.8,38.7,13.3c9.9,0.5,20.4-1.5,20.4-1.5S393.9,1039,376.5,1027.9z"/>
<path class="st7" d="M434.3,244.3c0,0,12.6-22.8,45.9-6.2S584,337,589.8,345.8c6.4,9.7-0.1,31.7-21.8,24.1
	c-21.7-7.5-110.2-81.2-121-87.1C436.3,276.9,425.4,262.7,434.3,244.3z"/>
<path class="st12" d="M478.3,229c0,0,11.6,1.9,18.9,9.3c6.7,6.8,61,60.2,78.5,81.1c17.5,20.9,26.6,35.7,15.3,48.6s-34,0.2-40.1-3.9
	c-6-4.1-94.9-69.9-109.7-82.6s-15.3-35.6-4.4-44.5C447.7,228,470.8,224.5,478.3,229z"/>
<path class="st13" d="M512.8,336c0.1-9.9-2-24.4-11.8-43l-16.2-48.6c0,0,6.2,1,9.5,4.5c0,0-1.9-9.8-13.4-19.3
	c-1.6-0.4-2.7-0.6-2.7-0.6c-7.5-4.5-30.5-1-41.4,8c-6.2,5.1-8.7,14.9-6.9,24.7c6.8,5.2,15.4,9.9,25.8,12.5c0,0-4.3-11.7,3-19
	c0,0,33.8,37,37.3,41.1c3,3.5,10.2,22.4,11.5,35.9C509.3,333.4,511.1,334.7,512.8,336z"/>
<path class="st13" d="M466.4,301.2c24.2,18.5,58.3,43.8,74.9,55.9c1.9-6.5,4.3-26.6,1.4-39.5c-3.4-15.5-18.6-30.4-29.3-47.8
	c-5.2-8.4-17.9-21.1-17.9-21.1S467.2,277.7,466.4,301.2z"/>
<path class="st14" d="M584.3,374.7c0,0,10.1,2.4,23,3c41.6,1.8,108.2,0.6,114-0.4c7.7-1.3,21.7-19.6-3.4-23.1
	c-25.1-3.5-54-10.2-75.9-14.6c-25.2-5-57.2-10.1-67.1,1.6S571.8,374.1,584.3,374.7z"/>
<path class="st7" d="M687.1,351.7c2.6,0.2,5.5,0.7,8,1.1c3.2,0.6,6.3,1.1,9.5,1.4c11-4.4,19.5-10.2,21.2-10.7c2.8-0.8,10.3,0,10.3,0
	c1.2,2.9,30.3,15.6,34.5,16.6c0.2,0,0.4,0.1,0.5,0.1c-2.8,12.9-6.7,24-15.6,33.6c-16.2-5.2-46-15.4-48.8-16.2v-0.1
	c-2.9,0-11.5,0.8-20.4,0.3C677.4,377.1,680.6,351.2,687.1,351.7z"/>
<path class="st12" d="M706.8,352.5c0,0-7.2,13.1-2.4,25.8c0,0-7.1,2-19,3s-100.1-2-112.7-8.1c-12.7-6.1-17.4-29-5.8-38.8
	c11.6-9.8,14.5-5.5,36.4-3.1c7.1,0.8,89.6,17.5,93.9,18.3C701.4,350.2,706.8,352.5,706.8,352.5z"/>
<path class="st7" d="M446.1,174.6c0,0,0.8,38.7-21,61.6c-2.5,2.7,18.8,18.6,36.7,16.5s25.5-9.7,26.1-19.7s-0.4-21.1,4-39.2
	c4.4-18.2-4.1-33.5-19.7-37.2C453.8,152.3,446.8,166,446.1,174.6z"/>
<path class="st8" d="M448,177.6c0.8-8.6,5.8-25.3,24.2-20.9c15.5,3.7,24,19,19.7,37.2c-3,12.5-3.2,23.8-3.8,32.1
	C451.5,216.4,456.7,199.7,448,177.6z"/>
<path class="st7" d="M485.5,228.7c0,0,10.2,9.4,15.6,23.1c5.3,13.5,15.5,38.2,23.3,55.7c7.7,17.5,12.2,47.3-9.6,61
	c-1.9,2.5-2.7,7.3-4.1,15.1c-1.4,7.7-4.1,18-7.6,23.6c-0.3,4.3-7.8,21-9,38.3s-104.3,16.6-110.8-12.9c0.3-4.3,7.1-23.4,3.5-51
	s-9.2-77.1-5.8-101.6s29.7-44.7,45.1-50.6C441.5,223.3,462.8,218,485.5,228.7z"/>
<path class="st12" d="M533,326.5c-7.4-29.8-13-38.7-21.1-57c-10.5-24-17.4-34.2-24-38.4c0,0,6.5,10.1,4.2,18.5l4,48.1l-26.3-44.9
	c-35.6-15.6-37.7-25.9-37.7-25.9l-34.3,8.9c0,0-10.7,11.5-14.1,19.6c0,0-13.1,33.7-4.6,90c8.6,56.3,3.7,63.7,1.3,70.7
	s-14,18.7-4.4,26.5c9.7,7.8,81.5,24.9,116.8,12c9.6-2.9,9-6.3,10.9-22.5c1.9-16.1,12.2-44.7,13.1-58.3
	C517,373.8,540.4,356.4,533,326.5z"/>
<path class="st13" d="M487.9,375.7c-0.3,3.2-11.6,70-13.8,82.9c2.6-0.3,5.1-0.6,7.5-1c1.9-15,10-77.7,11.5-81.9
	c1.7-4.8,7-17.3,9.6-26.8c2.5-9.5,4.1-24.8-2-46.6l-5.5-51c0,0,5.8,2.3,8.3,6.5c0,0,0.1-4.5-2.6-11c-4.9-8.7-9-13.2-13-15.7
	c0,0,6.5,10.1,4.2,18.5l4,48.1l-26.3-44.9c-35.6-15.6-37.7-25.9-37.7-25.9l-9.1,2.4c2.5,7.6,12.1,32.1,37.5,44.6
	c0,0-1.7-12.4,6.9-17.9c0,0,25.1,43.6,27.7,48.3c2.6,4.8,6.2,30.8,2.6,43.3S488.2,372.2,487.9,375.7z"/>
<path class="st13" d="M424.8,333.2c-9.2,21.9-22.1,75.7-15.3,82.3c14.2,13.9,34.3,40.4,93,27.5c-1.1,7.1-2.7,9.4-9.6,11.6
	c-35.3,12.9-107.2-4.2-116.8-12s2-19.5,4.4-26.5s7.3-14.5-1.3-70.7c-4.6-30.2-2.6-51.8,0.2-65.3c33.5-5.2,51.7-6.1,51.7-6.1
	S434,311.3,424.8,333.2z"/>
<path class="st13" d="M516.9,373.7c-4.7,1.3-9.8,1.3-14.3,3.5C506.6,378.7,513.5,375.5,516.9,373.7z"/>
<path class="st13" d="M478,375.6c0,0-25.1,13.8-56.1-6.3C421.9,369.3,452.9,380.3,478,375.6z"/>
<path class="st7" d="M464,72.7c0,0-46.9,4.4-42.8,60.9c3.9,54.4,51,96.4,88.8,82.9c12-5.1,18.5-33.9,16.7-76.5
	C524.8,97.4,505.4,68.9,464,72.7z"/>
<path class="st8" d="M500.3,170.5c0,0-2.1-4-11.9-2.9c-8,0.8-13.9,2.6-13.4,7.6C475,181.8,505.3,180.3,500.3,170.5z"/>
<path class="st8" d="M514.7,171.3c0,2.4,5.8,3.9,11.3,4.4c0.4-3.7,0.6-7.7,0.8-11.8C519.7,164.7,514.2,166.6,514.7,171.3z"/>
<path class="st15" d="M485.5,158.8c0.2,2.9,2.2,5.2,4.4,5s3.7-2.7,3.5-5.7c-0.2-2.9-2.2-5.2-4.4-5S485.3,155.9,485.5,158.8z"/>
<path class="st15" d="M513.2,155.7c0.2,2.8,2.1,5,4.2,4.8c2.1-0.2,3.6-2.6,3.4-5.4c-0.2-2.8-2.1-5-4.2-4.8S513,152.9,513.2,155.7z"
	/>
<path class="st16" d="M506.4,179.6c1.6-0.1,4.5-0.4,6.1-1.4c2.2-1.3,1.3-3.3,0.2-5.6l-0.1-0.3c-6.5-14-6.2-20.1-6.2-20.2
	c0-0.7-0.5-1.3-1.1-1.4c-0.7,0-1.3,0.5-1.3,1.2c0,0.3-0.5,6.7,6.4,21.5l0.1,0.3c0.4,0.9,0.9,1.9,0.9,2.3c0,0-0.1,0-0.1,0.1
	c-1.2,0.7-4.3,1-5.9,1c-0.7,0-1.2,0.6-1.2,1.3s0.6,1.3,1.3,1.3C505.4,179.7,505.8,179.7,506.4,179.6z"/>
<path class="st17" d="M495.2,142.5c0,0,1.8-0.2,1.9,1s-0.1,4-0.8,4.4c-0.8,0.4-10.2,0.6-13.9,0.9c-3.7,0.3-9.4,1.5-9.7,1.1
	s1.8-2.8,5.9-4.2C482.1,144.5,490.4,142.5,495.2,142.5z"/>
<path class="st17" d="M526,144.3c0,0,1.8,0,1.8-1.1c0.1-1.4-5.8-3.4-15.8-2.2c-2.9,0.5-2.4,4-1.6,5.6
	C511.2,148,515.3,144.9,526,144.3z"/>
<path class="st8" d="M508.2,196.1c-2.8,0-4.9,0.9-5,1c-0.6,0.3-0.8,0.9-0.6,1.5c0.3,0.6,0.9,0.8,1.5,0.6c0.1,0,3-1.3,6.4-0.4
	c0.6,0.2,1.2-0.2,1.4-0.8s-0.2-1.2-0.8-1.4C510,196.2,509.1,196.1,508.2,196.1z"/>
<path class="st12" d="M516.2,185.5c-6,0.9-17.1,1.7-21.4,2c-0.8,0-1.2,1-0.6,1.6c1.7,1.9,5.7,5.1,12.9,4.7c6.2-0.3,9-4.6,10.1-7
	C517.5,186.2,517,185.4,516.2,185.5z"/>
<path class="st18" d="M410.9,157.1c0,0-10.8-1.7-12.1,12.2c-0.6,6.1-4,5.3-3.1,11.3c1,6,1.2,4.7,2.5,9.3c1.2,4.7,1.6,10.7,6.9,12.1
	s6.8,3.7,10.6,5.5c3.7,1.8,9.4,1.2,11.6-0.6s5.3-0.1,7.1-4.7C434.4,202.3,426.8,163.9,410.9,157.1z"/>
<path class="st17" d="M416.2,184.6c-6-4.4-7.5-15.5-6.5-27.4L416.2,184.6z"/>
<path class="st18" d="M500.4,98.2c0,0,16.1,10.6,20.6,20.5s3.6,24.8,4.7,32.2c1.1,7.4,2.3,10.4,3.8,15.2s0.7,7.2-1,13.7
	c-1.6,6.5,1.1,13.8,6.2,16.2c0,0-5.3-6.8-2.7-13c2.7-6.2,5.7-11.1,3.8-15.8c-1.9-4.6-6.2-11.2-3.6-18.4c2.6-7.2,3.5-34-5.1-52.1
	c-8.6-18.1-36.6-28.4-49.8-26.7c0,0-29.5-5.1-46.5,10.3s-23,35.4-22.4,60.1c0.6,24.6,5.1,44.3,12.8,54.3
	c6.4,8.3,19.8,12.6,20.1,11.6s4.2-6.6,7.1-21.6c2.5-12.6,0.9-27.8,2.8-28.9c1.9-1.1,8,11.2,7.5,15c-0.5,3.7-4.1,11-0.8,15.9
	c3.2,4.9,8.3,6.3,7.3,13.1s-1.2,14.9,2.9,16.4c0,0-1.9-5,0.2-9.5s3.1-10.3,0.9-13.6s-10.8-10.6-8.1-15.1s6.7-5.1,7.2-14.9
	c0.5-9.8-2.6-17.8-1.2-22.3s6.5-9.1,14.9-12.6C490.6,124.7,496.6,112.9,500.4,98.2z"/>
<path class="st17" d="M500.4,98.2c-1.5-12.7-10.5-25.2-23-28.1C488.6,75.7,496.2,86.4,500.4,98.2z"/>
<path class="st17" d="M492,95.9c-15.3,7.1-12.2,14.8-20.4,26.3c-2.8,4.4-7.6,5.7-11.8,8.1c-5.3,3.8-8.7,10.6-8.1,17.2
	c0.3-5.6,3.2-11.1,7.4-14.6c5-3.7,10.2-3.5,14.1-9.4C481.6,111.7,477.5,105,492,95.9z"/>
<path class="st17" d="M481.7,89.7c-8.5,2-16.8,6.8-21.1,14.8c-7.8,11.6-21,23.2-18.6,38.7c-0.5-15.3,12.5-25.8,20.1-37.7
	C466.1,97.7,473.8,92.8,481.7,89.7z"/>
<path class="st17" d="M481.2,79.3c-14.7-1-30.4,3.3-40.2,15.1c-4.8,5.4-8.9,11.6-11.1,18.6c-1,3.2-1.6,6.6-1.4,10
	c0.2,1.9,0.2,4.3,0.1,6.2c-0.4,10.6-2.3,21.7,1.1,32.1c-3.1-12.7,1.3-25.9,0.5-38.7c0.3-12.5,8.3-23.5,17-31.8
	C456.5,82.5,469.2,79.7,481.2,79.3z"/>
<path class="st7" d="M442.9,152.4c0,0-5.8,1.6-4.3,11.1c1.5,9.2,8.7,18.7,14.9,15.8c2-1.1,2.3-9.4,1.4-16.6
	C453.9,155.5,449.8,151.1,442.9,152.4z"/>
<path class="st16" d="M451.3,172.7c0.4-12.8-6.4-15.2-6.7-15.3c-0.4-0.1-0.7,0.1-0.8,0.4c-0.1,0.4,0.1,0.7,0.4,0.9
	c0.2,0.1,3.8,1.4,5.2,7.5c-2.2-1.9-5.2-1.7-5.4-1.7c-0.4,0-0.7,0.3-0.6,0.7c0,0.4,0.3,0.7,0.7,0.6c0.2,0,4.2-0.2,5.7,3.1
	c0.1,1.1,0.1,2.3,0.1,3.7c0,0.3,0.2,0.6,0.6,0.7h0.1C450.9,173.3,451.2,173,451.3,172.7z"/>
<path class="st7" d="M407.9,241.5c0,0,33.6,6.5,19.1,56.2c-14.5,49.6-58.8,131.9-77.3,135.3c-20.6,3.7-21.1-14.2-15.7-32.8
	s35.1-125.7,40.7-135.1C380.4,255.7,389.5,238.7,407.9,241.5z"/>
<path class="st12" d="M400.2,235.4c0,0-12.8,0.3-23.4,21.5s-47.9,141.7-48.7,156.3c-0.8,14.6,5.8,22.9,15.9,24.7
	c10.1,1.8,22.3-6.8,32.1-20.3S410.9,345,424.4,313C439.9,275.9,437.8,235.1,400.2,235.4z"/>
<path class="st7" d="M359.6,584.3c2.6-2,1.2,11.5,3.2,18.9c2,7.5,4.7,10.1,6.6,8.3c1.9-1.7,0.3-10.7,0-18.1
	c-0.3-7.4,2.5-21.8,1.7-30.3s-9.2-23.1-9.2-23.2c-1.6-9.1-10.9-6.9-11-6.8c-3.5,1.1-7.5-0.1-7.5,10.8c0,10.4-4.5,20.6-5,22.6
	c-1.4,5.1-9.7,22.2-9.1,25.5c0.6,3.2,9.2,24.1,10.9,25.9c1.7,1.8,10.3,7.5,12.1,8.7s7.6,6,9.2,7.3c1.6,1.2,3.8,1.4,4.4-2.1
	c0.5-3.5-10.7-21.8-11.8-26.1c-0.2-1,0.2-4.8,1-9.9C356.1,589.1,357,586.3,359.6,584.3z"/>
<path class="st7" d="M360.4,631.6c0,0-4,4.8-10.6-2c0,0-4.2,3.1-9.3-6.5c0,0-4.3-0.4-6.2-5.3c-1.3-3.2-7.2-18.7-7.8-22.3
	s10.6-25.2,10.6-25.2l12.1,39L360.4,631.6z"/>
<path class="st16" d="M359.6,632.4c-3.4-6.2-6.8-12.7-10.3-18.9c-2.7-5.7-3.4-12-4.5-18.3h-0.2c-0.7,6.9,0.1,14.3,4.1,20.1
	c3.5,5.6,6.8,10.9,10.3,16.4L359.6,632.4z"/>
<path class="st16" d="M340.5,623.2c-2.8-9.1-6.6-18-8.7-27.3h-0.2c-0.7,4.8,0.8,9.9,3,14.1c1.7,3.9,3.7,8.6,5.5,12.4L340.5,623.2z"
	/>
<path class="st16" d="M349.8,629.7c-5.8-10.4-9.7-21.6-12.6-33.2H337c-0.2,12.3,5.8,22.3,12.2,32.3L349.8,629.7z"/>
<path class="st7" d="M351.8,401.7c0,0,11.1-0.1,16.2,15.9c3.8,11.9,6.6,48.1,2.6,75.8c-4,27.8-4.8,58.8-6.5,70.3
	s-15.9,11.7-20.1-6.9c-4.2-18.7-15.2-123.6-14.2-135.3C330.9,409.7,338.8,401.5,351.8,401.7z"/>
<path class="st12" d="M342,544.7c0,0,14.5-9.9,23.8,1.3c0,0,3-6.1,3.9-16c0.5-5.2,5.5-68.4,5.8-81.9c1.1-43.3-2.1-50.5-17.1-56.6
	s-27.8,16.4-29.7,24s1.1,64.3,3.3,81C335.3,523.3,342,544.7,342,544.7z"/>
<path class="st19" d="M971.3,230.4c0,0-31.8-12.8-45.6,37.1s-19.5,143.6-5.5,156.5c15.5,14.4,25.3-0.5,30.5-19.2
	s36.3-125.4,36.4-136.4S988.4,238.1,971.3,230.4z"/>
<path class="st20" d="M981.1,229.4c0,0,10.6,7.2,8.5,30.9s-33.8,145.9-40.7,158.6c-7,12.7-16.9,16.2-26.4,12.2
	c-9.4-4-15.2-17.9-16.5-34.7c-1.3-16.8,8.6-80.3,14.1-114.7C926.3,242,949.4,208.7,981.1,229.4z"/>
<path class="st21" d="M962.6,286.8c6-29.6-18.1-46.5-18.1-46.5s-13.5,21.6-21.7,28.3c-1.1,4.3-2.1,8.7-2.8,13.2
	c-1.4,9-3.1,19.9-4.9,31.5C931.2,315.4,957.8,310.1,962.6,286.8z"/>
<path class="st9" d="M832.9,506.4c0,0,13.3,24.1,42.5,25.7l1-18.2l-28.5-17.8L832.9,506.4z"/>
<path class="st19" d="M934.8,396.4c0,0-9.4-6.1-22,4.6c-9.4,8-30.8,37-42,62.7S844,516,839.4,526.6c-4.6,10.6,7.3,18.6,20.6,5.1
	s77.7-96.1,82.9-106.6C948.3,414.6,945.9,403.3,934.8,396.4z"/>
<path class="st19" d="M866.6,507.9c-0.1-0.1-6.8-7-12.9-0.2c-0.1,0.1-17.9,7.9-23,14.7s-7.1,18.2-11.3,24.2s-12.3,9.6-11.7,12.1
	c0.7,2.5,7.8,0.7,12.8-1.6c6.9-3.3,10.8-13.8,11.9-10.7c1.2,3.1,0.4,6-2.3,12.2c-2,4.7-21.1,13.4-22.5,16.7s0.6,4.4,2.6,4.2
	c0.5,0,1.4-0.2,2.5-0.3c0.7,1.7,3,4.6,9.7,3c0,0,1.9,4.9,11.3-0.4c0,0,3.8,2,8-1.1c2.8-2,11.6-8.8,13.9-11.5
	c2.4-2.7,5.3-25.7,5.5-26.6c0.6-2,3.6-12.2,9-21.1C875.9,512.5,869,510.8,866.6,507.9z"/>
<path class="st22" d="M857.9,533.6c-0.1-2.8-10.3-10-10.3-10s1,7.2-5.5,12.4s-8.7,7.4-10.2,9.8l0,0c0.3,0,0.5,0.1,0.7,0.5
	c1.1,3.1,0.4,6-2.3,12.2c0,0.1-0.1,0.2-0.2,0.4c1.8,0.4,5.7,1.2,8.5,2c3.8,1,8.7,1.9,11.3,1.7c2.5-0.2,4.6-5.3,5.9-10
	C857,548.1,858.1,536.4,857.9,533.6z"/>
<path class="st23" d="M831.8,545.9c0,0,3.5-5.4,7.9-8s8.1-9.6,7.9-14.2c0,0,0.5,5.6-1.9,10.1S834.2,541.9,831.8,545.9z"/>
<path class="st23" d="M812.7,579.3c1.2-2.1,2.5-4,4.4-5.5c3-1.8,6-3.5,8.9-5.4c1.4-0.9,3-1.8,4.5-2.5l0.8-0.4
	c1.2-0.6,2.2-1.5,3.1-2.7c0-0.1,0.2,0,0.2,0.1c-0.3,1.5-1.3,2.9-2.5,3.8c-2.4,1.9-5.5,3.5-8.2,4.8c-1.5,0.8-3.1,1.6-4.7,2.3
	c-0.4,0.2-1.1,0.5-1.5,0.7c-1.9,1.2-3.4,3-4.7,4.8c0,0-0.1,0.1-0.1,0C812.7,579.4,812.7,579.3,812.7,579.3z"/>
<path class="st23" d="M822.4,582.3c1.1-2.1,2.4-4,4.3-5.5c0.9-0.7,1.8-1.4,2.7-2c1.6-1.2,3.9-2.8,5.4-4.1c1.7-1.4,3.6-2.5,5.1-4.1
	c0.8-0.8,1.4-1.7,2.1-2.6c0,0,0.1-0.1,0.1,0v0.1c-0.2,1.2-0.6,2.3-1.3,3.3c-1.2,2-3.2,3.5-5.1,4.8c-2.7,1.7-6,3.8-8.7,5.4
	c-1.8,1.2-3.3,3-4.6,4.8c0,0-0.1,0.1-0.1,0C822.3,582.4,822.3,582.3,822.4,582.3z"/>
<path class="st23" d="M833.6,582c0.4-1.5,1.1-2.9,2.1-4.1c1-1.1,2.1-2.1,3.2-3.2c1.3-1.2,3-3,4.2-4.3c1-1.1,2.2-2,3.3-3
	c1.1-0.9,1.8-2.1,2.2-3.5c0-0.1,0.2-0.1,0.2,0c0.2,1,0,2.2-0.4,3.2s-1.2,1.8-1.9,2.5c-1.4,1.4-3,2.6-4.5,3.9c-1.6,1.3-3.6,3-5.2,4.3
	c-1.3,1-2.3,2.5-3,4.1L833.6,582L833.6,582z"/>
<path class="st20" d="M875.4,532c0,0-22.4-28.8-42.5-25.7c0,0,47.9-79.6,54.7-91.2c21.8-37.2,31.1-34,46.9-31s14.9,29,12.6,36.5
	C944.8,428.2,875.4,532,875.4,532z"/>
<path class="st21" d="M934.6,384.2c-15.7-3-25-6.1-46.3,29.9c5.9-1.2,14.7-1.9,21.7,1.6c7.7,3.9,7.1,35.1,5.8,55.1
	c15.7-24.1,30.3-46.9,31.3-50.2C949.5,413.2,950.4,387.2,934.6,384.2z"/>
<path class="st20" d="M919.7,383.7c0,0,7.8,48.2,6.6,73.9c-1.2,25.6-19.4,102.2-19.4,102.2l89.3,14l-19-198.3L919.7,383.7z"/>
<path class="st19" d="M995.4,475.7c0,0-55-3.9-64.7,71c-9.1,70.1-21.8,170.5-3,202.3c4.9,9.5,40.4,31.4,59.3-3.9
	c18.9-35.4,40.1-93.5,50.1-127.7C1047.1,583.3,1071.8,482.4,995.4,475.7z"/>
<path class="st24" d="M1001.3,474.7c0,0-34.2-31.6-54.7,7.1c-4.8,9-16.4,54.5-21.5,97s-8.9,100.6-6.2,173.8
	c1.3,33.8,9.8,33.4,38.2,36c25.1,2.4,37.6-54.3,42.4-65.3c0,0,40.3-84.1,49.1-152C1057.5,503.3,1036.4,479.6,1001.3,474.7z"/>
<path class="st25" d="M993,539.9c0,0-10.3,30.4-14.5,33.8c-4.2,3.4-23.6-37.6-23.6-37.6s5.2,31.4,7.3,45.9
	c2,14.5-0.7,120.6,3.4,158.7c0.9,8.1,2.4,23.9,4.4,43.6c16.7-13.1,25.6-52.1,29.5-61c0,0,40.3-84.1,49.1-152c0.7-5,1.1-9.8,1.5-14.3
	C1019.1,546.7,993,539.9,993,539.9z"/>
<path class="st26" d="M1005.8,1019.3l1,22.6c0,0.2-0.1,0.5-0.3,0.6c-1.5,0.8-8.4,3.9-24,3.4l-0.8-19.6L1005.8,1019.3z"/>
<path class="st27" d="M982.5,1045.9l-9.6-3.8c-0.3-0.1-0.5-0.4-0.5-0.7l-0.6-14.7l9.9-0.4L982.5,1045.9z"/>
<path class="st26" d="M1005,1006.2c0,0-1.5-3.3-12,1.7s-50.2,20.2-61.8,24.7s-30.5,2.5-39.2,1.5c-8.7-0.9-17.6-1.5-17.1,1
	c0,0,3.4,5.3,18.2,6.7c14.8,1.4,34.2,3.2,56.6-8.5C972,1021.5,1006.6,1019.1,1005,1006.2z"/>
<path class="st28" d="M1005,1006.2c0,0,2.3,3.2,2.1,10.8c0,1.3-0.8,2.4-2,2.8c-4.8,1.8-18.2,7.6-33.2,11.4
	c-15.6,3.9-26.1,10.1-31.4,13.1c-2,1.1-4.2,1.9-6.5,2.1c-10.4,1.3-30.9,4.2-55.6-1.4c-1.6-0.4-2.9-1.7-3.1-3.4
	c-0.2-1.5-0.4-3.6-0.4-6.5c0,0,19.5,8.4,44.1,4.8c24.6-3.5,28.1-10.2,56.9-18.4C1004.7,1014.2,1004.9,1009.2,1005,1006.2z"/>
<path class="st19" d="M995.6,947.8c0,0-1.8,11.4,0.3,22.9c2.7,14.2,12.1,29.5,3.5,39.2c-8,9-23.4,7.1-43,15.9s-22.6,15.1-55.1,15.3
	c-13.9-1.1-22.2-0.8-22.2-11.3c0-8.1,9.1-12.8,18.1-14.5c8.1-1.5,18.3-7.1,35.8-21.5c19.6-16,26.1-21.1,25.3-30.3
	c-0.6-6.8-1.3-13.8-1.9-20.1c-0.7-8.3,5.9-16.3,19.4-17.5C988.7,924.8,996.8,932.3,995.6,947.8z"/>
<path class="st28" d="M941,1035.7c0,0-8.8-5.3-12.2-10.6c-5.3-8.3-9.6-15.8-12.8-18.5c-0.4-0.3-0.9-0.4-1.4-0.2c-3,1.2-7,5.5-20.3,9
	c-14.1,3.7-19.7,7.9-19.4,19.7C874.8,1035.1,903.5,1053.2,941,1035.7z"/>
<path class="st28" d="M996.8,974.3c0.4,0.5,2.7,2.6,2.2,6.7c0,0.2-0.1,0.4-0.3,0.6c-1.5,1.6-9.6,10.4-18.9,21.9
	c-6.8,8.4-15.3,15.1-14.5,23.8c0,0-13.1,4.8-16.9,6.8c0,0-10.6,4.1-12.5,4.5l-3.9-7.2c0,0,16.9-3.1,33.8-23.7
	c17.5-21.2,29.6-32.5,30.8-33.5C996.7,974.2,996.8,974.2,996.8,974.3z"/>
<path class="st19" d="M949.2,696.3c-17,2.6-26.5,18.9-25.1,36.4c2.2,26,4.6,59.3,19.5,143.8c20,113.5,23.2,102.9,36.1,104.9
	c15.9,2.4,14.6-28.8,17.8-58.9c2.9-27,10.7-87.8,7.4-127.3c-3.9-45.3-20.8-98.8-47.4-99.4C954.6,695.7,951.8,695.9,949.2,696.3z"/>
<path class="st24" d="M955.7,693.4c0,0,23.2-0.5,35.2,34s14.3,50.2,19.5,111.8c4.4,52.6-1.7,97.1-3.8,111c-0.4,2.3-2,4.2-4.2,4.9
	c-5.2,1.6-15.7,4.2-29.2,4c-13.7-0.1-26.6-1.7-32.3-2.5c-1.7-0.2-2.9-1.7-3-3.4c0-2.7-0.3-7.8-0.9-17.6
	c-3.9-57.4-8.5-63.1-11.5-101.9c-2.8-37.1-21-126.6,18.1-138.9C949.7,692.9,955.7,693.4,955.7,693.4z"/>
<path class="st25" d="M990.9,727.4c-7.6-21.8-19.6-29.6-27.5-32.4c0.3,18.3,0.9,34.8,2.1,45.7c3.2,29.9,15.9,161.8,21.3,217.6
	c6.9-0.9,12.3-2.3,15.6-3.3c2.2-0.7,3.8-2.6,4.2-4.9c2.1-13.8,8.2-58.4,3.8-111C1005.3,777.6,1002.9,761.9,990.9,727.4z"/>
<path class="st24" d="M1107.3,406.6c0,0-1.4,49.9,6.5,82.9c10.3,42.7,12.7,112-53.5,128.2c-57.6,14.1-99.6-32.7-106.4-88.7
	c-2.7-19.6-9.2-52.7-10.5-78.5c-1.6-32.3,15.5-69.4,37.6-87.7C1022.7,328.3,1102.4,325,1107.3,406.6z"/>
<path class="st25" d="M1113.8,489.5c-4.2-17.5-5.8-39.7-6.3-56.7c-29.2-2.1-75.4,0.5-120.3,6.1c-26.6,3.3-38.4,11.6-43.2,19.9
	c0.6,7,1.4,14.3,2.4,21.6c8.4,1.1,30.6,3.7,40.8,2.3c12.6-1.7,12.1,6.4,11.4,17.3c-0.6,10.9,11.8,102.9,11.8,102.9
	s59.6-1.5,78.6-5.1c2.9-0.6,5.5-0.4,7.6,0.3C1124.9,570.2,1121.6,522.2,1113.8,489.5z"/>
<path class="st25" d="M1109.8,579.7c-47.3-21.5-123.4-40.9-123.4-40.9s-7.3,28.8-11.5,32.3c-4.2,3.4-19.9-34.8-20-35
	c9.4,52.8,50.2,95.1,105.4,81.6C1085.9,611.4,1101.2,597.2,1109.8,579.7z"/>
<path class="st19" d="M1094,545.9c-12.6-29.1-46.1-41.1-72.8-24.5c-14.5,9-30,25.6-34.7,56c-9.7,62.1-7,84.7-2.4,135.7
	c3.4,36.8,3.3,44.1,9.1,69.8c5.8,25.8,26.9,34.6,40,33c13.2-1.6,33-10,43.2-49.7c9.4-36.5,16.3-63.6,21.3-101.3
	C1101.1,639.3,1110.1,583.2,1094,545.9z"/>
<path class="st24" d="M1050,511.1c0,0-48.2-30.7-62.3,19.3c0,0-12.3,74.1-8.4,145.9c0,0,0.2,114.6,28.8,133.6
	c25.4,16.9,54.7,15.4,70-40.4c15.5-56.4,33.8-163.7,22.5-209.7C1093.1,529.4,1084.8,512.5,1050,511.1z"/>
<path class="st25" d="M1050,511.1c0,0-31.4-20-50.9-1.3c2.3,26.6,11.3,93.2,11.3,93.2s59.6-1.5,78.6-5.1c7.3-1.4,12,1.8,15.1,6.2
	c0.4-17.4-0.6-32.8-3.4-44.3C1093.1,529.4,1084.8,512.5,1050,511.1z"/>
<path class="st26" d="M1108.7,1038.7l0.2,21.8c0,0.4-0.2,0.8-0.6,0.9c-1.9,0.9-8.8,3.3-23.2,2.4l-0.1-19.2L1108.7,1038.7z"/>
<path class="st27" d="M1085.1,1063.8l-9.1-4c-0.4-0.2-0.6-0.5-0.6-0.9l-0.1-14.2l9.6-0.1L1085.1,1063.8z"/>
<path class="st26" d="M1108.4,1025.9c0,0-2-2.2-12.4,2.3c-10.4,4.5-49,16.9-60.5,20.8s-35.1,1.4-43.6,0.1
	c-8.5-1.2-17.1-2.1-16.7,0.3c0,0,3.1,5.3,17.5,7.2c14.4,1.9,38.6,4.3,60.8-6.3S1109.5,1038.5,1108.4,1025.9z"/>
<path class="st28" d="M1108.4,1025.9c0,0,2.1,3.2,1.7,10.6c-0.1,1.2-0.9,2.3-2,2.7c-4.8,1.6-18.2,6-32.8,9.9
	c-14.6,3.9-25.8,8.9-31.1,11.7c-2,1-4.2,1.7-6.4,1.9c-10.2,0.9-35.6,3-59.5-3.3c-1.6-0.4-2.7-1.8-2.9-3.5c-0.2-1.4-0.3-3.5-0.2-6.4
	c0,0,24,8.8,48.1,6.2c24.1-2.6,31.6-9.9,60-16.9C1099.3,1035.2,1106.4,1031,1108.4,1025.9z"/>
<path class="st19" d="M1087.6,970.9c0,0,2.1,8.5,6.3,18.1c5.6,12.9,14.5,33.7,6,41.8c-8.6,8-19,4.8-38.4,12.7
	c-19.4,7.9-29.7,14.2-57,12.7c-13.5-1.5-25.2-1.6-25.5-11.7c-0.2-8.4,9.5-11.4,18.3-12.8c7.9-1.2,22.4-3,38.7-19.4
	c16.4-16.4,21.5-20,20.6-26.6s-0.3-9.7-2-15.2c-1.7-5.5-1.5-15.1,10.6-18.2C1077.5,949.2,1082.7,956.9,1087.6,970.9z"/>
<path class="st28" d="M1042.9,1052.9c0,0-7.1-5.5-10-10.9c-2.8-5.2-8.3-15.2-11.5-18.3c-0.3-0.3-0.8-0.4-1.3-0.3
	c-3.4,1-10.9,5.3-23.2,7.2c-10.2,1.6-23.2,5.4-21.8,18.8C975.2,1049.4,1005.7,1068.6,1042.9,1052.9z"/>
<path class="st28" d="M1097,994.4c0.9,0.7,3.3,2.7,2.9,7c0,0.4-0.2,0.8-0.4,1.2c-1.4,2-6.7,9.5-15.6,19.8c-6.9,8-15.4,14.2-15,22.7
	c0,0-12.9,4.2-16.7,6c0,0-10.5,3.7-12.4,3.9l-5.5-9c0,0,18.7-2.3,35.8-19.9c17.5-18.2,24.9-29.4,26.2-31.5
	C1096.5,994.3,1096.8,994.3,1097,994.4z"/>
<path class="st19" d="M997.6,759.1c0,0,10,54.2,23.9,103.1c12.1,42.4,30.6,109.5,36.7,131.5c6.1,22,18.3,15.2,22.8,12.3
	c4.5-2.8,9.8-11.6,8.9-32.7c-0.9-21.1-0.3-57.8-2.1-92.1c-2-39.8-3.5-109.9-24.5-146C1038.4,692.6,991.5,718.3,997.6,759.1z"/>
<path class="st24" d="M1024.4,711.2c0,0,21.8-4.8,39.4,15.6c16.4,19,26,54.5,32.1,93.9s2.8,134.8,2.8,134.8s-14.6,8.1-24.8,9.2
	c-41.4,4.3-53.2-3.9-53.2-3.9s-4.2-19.9-6.9-30.3c-7.4-27.7-21.5-120.1-25.8-153.3c-4.3-33.1-3.1-38.6,9.4-55.4
	C1008.4,706.6,1024.4,711.2,1024.4,711.2z"/>
<path class="st19" d="M1006.7,209.2c-22.7,0.7-35.6,6.7-50.3,24.4c-12.5,15.1-22.4,48.1-31.6,71.7c-8.9,23-3.8,42.4,12.5,67.1
	c1.1,1.6,5.3,6.9,5.3,6.9s2.9,29.6,7.5,51.7c3.8,18.4,8.3,31,57.4,33.1c49.1,2.2,63.7-29.4,67.3-91.2c2.7-46,2-93-1-116.3
	C1069.8,225.7,1046.5,208,1006.7,209.2z"/>
<path class="st19" d="M970.3,197.8c0,0,2.8,12.5,1.3,22.4s-5.1,20.6,13.2,23.7c14.3,2.4,37.4-9.7,41.5-17.3s3.7-8.8,0.2-16.3
	c-1.9-4.2-9-13.3-9.9-46.8c-0.1-10.5-12.8-18.1-24.8-11.1C983.6,157.3,964.5,164.7,970.3,197.8z"/>
<path class="st22" d="M991.9,152.4c11.9-6.9,21,3.6,20.4,14c-0.2,3.9-7.3,11.9-10.9,19.7c-6,13-11.8,27.1-29.7,33.4
	c1.2-9.8-1.4-21.8-1.4-21.8C964.5,164.7,983.6,157.3,991.9,152.4z"/>
<path class="st29" d="M1026.6,210.4c0,0,28.4,0.4,43.3,23.9s24.7,96.2,28,128.3s7.8,44.1,9.5,57.7c1.7,13.5,8.1,19.9-12.9,29.2
	c-27.3,12.1-139,29.9-149.3,20.2c-3.3-3.2-7.2-53.6-13.6-64.6c-6.4-11.1-19.6-30.6-20.7-60.4s22.4-106.9,60.9-125.8
	c0,0-13.6,25.2-0.8,29.1C983.8,251.9,1014.1,226.7,1026.6,210.4z"/>
<path class="st20" d="M971.8,218.9c0,0-17.2,22.5-30.5,52.7c-10.5,23.7-21.5,54.7-21.6,73.4c-0.1,18.6,3.9,46.5,7.9,53.3
	s7,12.6,9.2,25c2.1,12.5,8.5,46.4,8.5,46.4l-8.4-4.2c0,0-6.3-46.9-12.5-59.8s-17.4-42.3-19-56.6c-1.5-14.3,3.4-47,11.4-62.3
	s27.8-47.1,33.2-55C954.5,225.1,971.8,218.9,971.8,218.9z"/>
<path class="st21" d="M927.6,398.3c-4-6.8-8-34.7-7.9-53.3c0-9.7,3.1-22.8,7.4-36.4c-6.4,4.6-14.4,8.6-19.9,11.1
	c-1.9,11.4-2.7,22.6-1.9,29.5c1.5,14.3,10,40.9,16.3,53.8c0.6,1.2,1.2,5.6,1.8,7.4c2.1-0.8,6.8-2,8.7-3.7
	C930.7,403.7,929.3,401.1,927.6,398.3z"/>
<path class="st20" d="M1026.2,209.5c0,0-22.6,10.8-32.9,30.4s-11.9,62.9-15.4,88.4s2.2,41.4,5.6,63.9c4.8,32.2,17.7,70.8,19,100.4
	c1.1,23.7,10.7,105.3,10.7,105.3s71.7,1.4,113.5-16.6c0,0-13.8-130.2-18.5-184.5c-8.5-96.4-24.4-149.7-39.7-173.2
	C1060.2,215.9,1050.1,208.5,1026.2,209.5z"/>
<path class="st21" d="M1062.5,293.3c0,0-23.1-52-40.6-49c-8.3,1.4-22.7,9.3-35.6,17.2c-4.4,21.3-5.9,48.6-8.4,66.8
	c-2.9,21.1,0.5,35.6,3.7,52.8c9-6,21.9-15.5,35.5-28.7C1042.2,328.1,1062.5,293.3,1062.5,293.3z"/>
<path class="st19" d="M1061.7,244.6c0,0,20.7,24.3-7.1,53.9c-23.2,24.7-112.2,94.5-133.1,91.7c-20.9-2.9-35.2-23.5-3.2-58.1
	s68-56,92-78.4C1034.3,231.2,1052.7,232.5,1061.7,244.6z"/>
<path class="st20" d="M1065.3,241.2c0,0-23.1-18.3-47.6,1.2c-24.6,19.6-81.7,64.8-98.5,82.9c-16.7,18.2-32.7,37.8-16.9,57.9
	c15.9,20.1,34.8,11,51.8-0.5c17.1-11.6,87.1-63.6,103.8-83.5S1080.7,256.2,1065.3,241.2z"/>
<path class="st9" d="M796.3,383.6c0,0-14.6-26.7,7.4-48.9l32,1.8L812.5,376L796.3,383.6z"/>
<path class="st19" d="M712.1,370.1c3.2-1.3,20.2-8,21.6-8.3c2.3-0.4,7.7-10.9,17.2-11.7c2-0.2,2.1-4.1,1.9-6.1
	c-6.3-1-8.7-0.9-18.7-4.8c0,0,10.9-5.7,15.7-6.1c4.8-0.5,9.3-0.8,19.8,4c10,4.5,34.2,5.3,34.3,5.3c8,0.7,9,2.6,14.4,4.3
	c20.8,6.3,9.4,33.2-16.7,29.6c0,0-12-2.9-18.1-4.3c-5.5,4.3-22.4,22.6-26,24.1c-2.6,1-7.1,1.4-12.1,1.4c-5.7,0.5-13.8,1.1-14.6,1.1
	c-2,0-5-3.8-5-3.8s-5.8,0.6-7.5,0.5c-4.3-0.2-5.1-6.2-5.1-6.2s-7.6-1.3-4.6-8.9c0,0-5.3-1.7-3.4-6.5
	C705.3,373.1,706.1,372.6,712.1,370.1z"/>
<path class="st19" d="M927,391.4c0,0-4.1,4.4-57.3-9.5c-37.8-9.9-82.8-8.8-89-13.9c-10.1-8.3-6.3-18.4,7.4-20.8
	c13.6-2.4,45.9-6.8,90.4-6.9c49.8-0.2,61.7,5.6,66.8,17.4C954.1,377.9,944.1,388.2,927,391.4z"/>
<path class="st20" d="M796.3,383.6c0,0,22.8-18.9,7.4-48.9c0,0,105.3-2.8,126.5,6.7s25.9,33,18.2,42.2s-22.2,15.4-48.6,12
	C873.3,392.1,796.3,383.6,796.3,383.6z"/>
<path class="st23" d="M708.3,380.1c16.1,0,31.4-4.5,35.6-10.1C730.9,375.2,721.1,376.9,708.3,380.1z"/>
<path class="st23" d="M712.7,388.7c25.1-3.3,33.5-0.6,38.9-11.3C742.7,384.1,735.3,384.2,712.7,388.7z"/>
<path class="st23" d="M726,394.6c21.6-1,28.4-4.3,30.6-8.1C745.8,391.4,736.7,391.6,726,394.6z"/>
<path class="st7" d="M716.5,359.2c13.8,9.5,24.3-3.7,26.6-5.9c2.3-2.2,9-2.6,13.9-1.6c8.4,2.2,16.2-2.2,12.5-5
	c-3.4-2.3-8.2-3.6-15.7-5.2s-16.4-3.9-22.9-1.3C716.6,345.7,714.1,356.9,716.5,359.2z"/>
<path class="st30" d="M719.8,361.6c11,2.2,19,0.2,24.7-10C737.4,359.4,730.2,361.4,719.8,361.6L719.8,361.6z"/>
<path class="st7" d="M758.4,385.6c-0.6-1.4-2.2-6.6,0.2-8.9c1.2-1.2,5.9,0,5.9,0s-2.5-6.8-0.4-8.1c2.1-1.2,7.1,1.7,7.1,1.7
	s0.9-5.1,3.5-3.9c0.8,0.4,2.3,1.3,4,2.4c1.2,0.8,2.6,1.8,3.8,2.7c0.3,0.3,0.5,0.4,0.7,0.6s0.4,0.4,0.5,0.5c0.3,0.4,0.1,3.6-0.9,4.7
	c-2.1,2.3-4.5,1.5-4.8,1.5c0,0.5-0.9,3.8-1.7,4.6c-1.9,1.7-5.1,2.1-5.4,2c0,0.5-1,5.4-3.1,7.1c-1.4,1.1-4.6-0.2-5.2-0.2
	c-1,0.9-0.5,3.2-2.8,3.9c-0.9,0.3-3.3-0.5-4.6-2.3c-1.3-1.7-0.7-4.3-0.6-4.7C755.1,387.9,758.1,385.9,758.4,385.6z"/>
<path class="st16" d="M771.3,370.3c0.7,1.4,1.9,3.2,2.8,4.5c0.9,1.6,2,3,3.8,3.7l0.1-0.1c-0.6-1.8-1.7-3.1-3-4.4
	c-1.2-1.3-2.4-2.6-3.6-3.9L771.3,370.3z"/>
<path class="st16" d="M764.5,376.9c0.9,1.7,1.8,3.1,2.6,4.3c0.8,1.1,1.9,2.8,3.5,4.1l0.1-0.1c-0.3-2-1.8-3.7-2.4-4.5
	s-2.4-2.5-3.6-3.9L764.5,376.9z"/>
<path class="st16" d="M758.7,386c0.9,1.9,0.9,2.9,2.1,4.7c0.5,0.5,1,1,1.7,1.4l0.1-0.1c-0.1-1.6-0.9-2.7-1.8-3.8
	c-0.9-1.1-1-1.2-1.9-2.3L758.7,386z"/>
<path class="st19" d="M988,62.3c0,0,46.5,3.2,43.8,59.3c-2.6,53.9-48.3,96.6-86,84.2c-12-4.8-19.1-33.1-18.3-75.3
	C928.4,88.2,947,59.6,988,62.3z"/>
<path class="st22" d="M955.1,161.2c0,0,2-4,11.8-3.2c7.9,0.7,13.8,2.2,13.4,7.2C980.4,171.8,950.3,171,955.1,161.2z"/>
<path class="st22" d="M928.1,155.3c0.3,4.1,0.6,7.9,1.1,11.5c5.2-0.6,10.3-2.3,10.3-4.5C939.8,157.8,934.7,156.1,928.1,155.3z"/>
<path class="st15" d="M966.9,148.6c-0.2,2.9-2,5.2-4.2,5c-2.1-0.1-3.7-2.6-3.6-5.5c0.2-2.9,2-5.2,4.2-5
	C965.5,143.2,967.1,145.7,966.9,148.6z"/>
<path class="st15" d="M941.3,146.6c-0.2,2.8-2,5-4,4.9c-2.1-0.1-3.6-2.5-3.4-5.3s2-5,4-4.9C939.9,141.4,941.4,143.8,941.3,146.6z"/>
<path class="st12" d="M937.9,174.3c6,0.9,17.4,1.8,21.7,2c0.8,0.1,1.2,1,0.7,1.6c-1.7,2-5.7,5.2-13.1,4.8c-6.3-0.3-9.1-4.6-10.2-7.1
	C936.5,175,937.1,174.2,937.9,174.3z"/>
<path class="st22" d="M947.1,189.3c-3.1-0.1-5.4-1.2-5.5-1.3c-0.6-0.3-0.9-1.1-0.6-1.7c0.3-0.6,1-0.9,1.7-0.6c0.1,0,3.3,1.6,7.1,0.8
	c0.7-0.2,1.3,0.3,1.5,1c0.1,0.7-0.3,1.3-0.9,1.5C949.2,189.2,948.1,189.3,947.1,189.3z"/>
<path class="st23" d="M947.8,169.2c-1.6,0-4.4-0.3-6.1-1.2c-2.2-1.3-1.3-3.3-0.3-5.6l0.1-0.3c6.1-14,5.7-20,5.7-20.1
	c-0.1-0.7,0.4-1.3,1.1-1.4c0.7-0.1,1.3,0.4,1.3,1.1c0,0.3,0.6,6.6-5.9,21.4l-0.1,0.3c-0.4,0.9-0.8,1.9-0.8,2.3c0,0,0.1,0,0.1,0.1
	c1.2,0.7,4.3,0.9,5.9,0.9c0.7,0,1.2,0.5,1.3,1.2c0,0.7-0.5,1.3-1.2,1.3C948.8,169.2,948.4,169.2,947.8,169.2z"/>
<path class="st15" d="M956.9,132.7c0,0-1.8-0.2-1.9,1.1c-0.1,1.2,0.1,4,0.9,4.3c0.8,0.4,10.1,0.3,13.8,0.5c3.6,0.2,9.4,1.3,9.7,0.9
	c0.3-0.4-1.9-2.8-6-4C970,134.4,961.7,132.6,956.9,132.7z"/>
<path class="st15" d="M928.3,135.6c0,0-1.7,0-1.8-1.1c-0.1-1.4,5.7-3.5,15.6-2.6c2.9,0.4,2.5,3.9,1.7,5.5
	C943.1,138.9,938.9,135.9,928.3,135.6z"/>
<path class="st15" d="M951.2,95.1c0,0-14.4,4.2-18.6,14.1s-3,24.7-3.9,32s-2,10.3-3.4,15.1s-0.5,7.2,1.3,13.6
	c1.8,6.4-0.7,13.7-5.7,16.2c0,0,5.1-6.9,2.4-13c-2.8-6.1-5.9-10.9-4.1-15.5s5.9-11.2,3.2-18.3s-4.3-33.6,3.8-51.7s35.6-29,48.7-27.6
	c0,0,29-5.8,46.3,9.1c17.3,14.9,23.6,34.5,23.5,58.9s-14,52.4-22.4,58.5s-12.5,11.5-12.8,10.5s-2.6-12.9-2.7-18.8
	c-0.2-12.8-2.2-32.9-4.2-33.9c-1.9-1.1-7.6,11.3-7.1,15s4.3,10.8,1.2,15.8c-3.1,4.9-8.1,6.4-6.9,13.2c1.1,6.7,1.5,14.8-2.4,16.3
	c0,0,1.8-5-0.4-9.4s-3.3-10.1-1.3-13.4c2.1-3.3,10.5-10.7,7.7-15.1c-2.8-4.4-6.7-4.9-7.4-14.6c-0.7-9.7,2.2-17.7,0.6-22.1
	c-1.5-4.4-6.6-8.9-15.1-12.2S955.4,109.6,951.2,95.1z"/>
<path class="st31" d="M1025.6,73.4c-13.8-11.9-29-15.1-35.9-13.8c0,0,22.2,7.8,27.2,15.7c4.9,8,11.9,30,12,38.6
	c0.1,8.5,0.5,19-1.3,28.3c-1.8,9.2-3.9,17.9-7.3,21.1c-3.3,3.2-8.1-1-12.5-3.4c-1-0.5-1.8-0.7-2.4-0.5c0.6,6.2,1.1,13.3,1.2,18.9
	c0.1,5.8,2.4,17.8,2.7,18.8s4.4-4.4,12.8-10.5s22.3-34.1,22.4-58.5C1044.6,105.9,1039.4,87.7,1025.6,73.4z"/>
<path class="st31" d="M951.2,95.1c1.2-12.6,11.1-31.9,23.5-35.1C963.7,65.9,955.2,83.4,951.2,95.1z"/>
<path class="st31" d="M960.8,86c15.3,6.7,12.4,14.3,20.8,25.6c2.9,4.3,7.7,5.5,11.9,7.7c5.3,3.6,8.8,10.3,8.4,16.8
	c-0.4-5.5-3.4-10.9-7.6-14.2c-5.1-3.5-10.2-3.2-14.2-9C971.5,101.4,975.4,94.7,960.8,86z"/>
<path class="st31" d="M970.9,79.6c8.5,1.7,16.8,6.3,21.2,14.2c8,11.3,21.4,22.5,19.3,37.9c0.1-15.2-13-25.2-20.8-36.8
	C986.5,87.1,978.8,82.5,970.9,79.6z"/>
<path class="st31" d="M971.2,69.2c14.5-1.3,30.2,2.5,40.1,14c4.9,5.2,9.1,11.3,11.4,18.1c1,3.2,1.7,6.5,1.6,9.9
	c-0.1,1.9-0.1,4.2,0,6.1c0.6,10.5,2.7,21.5-0.4,31.8c2.8-12.7-1.8-25.6-1.4-38.3c-0.6-12.4-8.8-23.1-17.5-31
	C995.7,71.9,983,69.4,971.2,69.2z"/>
<path class="st19" d="M1013.5,134.9c0,0,7.5,0.8,7.3,12.9c-0.2,11.6-7.4,24.8-15.7,22.4c-2.6-0.9-4.6-11.2-4.7-20.3
	C1000.3,140.8,1004.6,134.6,1013.5,134.9z"/>
<path class="st23" d="M1006.8,161.6c-2.9-15.8,5.2-20.1,5.5-20.2c0.4-0.2,0.9,0,1.1,0.4s0,0.9-0.4,1.2c-0.2,0.1-4.5,2.4-5.1,10.3
	c2.4-2.7,6.1-3.1,6.3-3.1c0.5,0,0.9,0.3,0.9,0.8s-0.3,0.9-0.8,0.9c-0.2,0-5.2,0.5-6.5,4.9c0.1,1.4,0.2,2.9,0.6,4.6
	c0.1,0.4-0.2,0.8-0.6,1h-0.1C1007.3,162.4,1006.8,162.1,1006.8,161.6z"/>
<path class="st15" d="M980.2,59.2c0,0,2.1-6.6,14.9-9.6c12.8-3.1,34-1.8,47.8,19.9c13.9,21.7,20.7,61.6,20,79
	c-0.7,17.5-3.4,19.9,1.1,31.4c4.6,11.5,5.7,30.7-0.7,42.4s-30.7,25.4-37.9,37.3c-7.2,12-5.6,32.9-21.5,48.5c-5.2,5.6-13,6.5-13,6.5
	s12.5-15.7,11.4-29.9c0,0-1,4.8-4.4,7.1c0,0,2.7-4.9,0.2-14s-5.1-16.6-3.2-36.3c2.9-30.8,14.1-40.3,18.1-56.2
	c3.9-15.9,18.9-30.3,19.4-54.1c0.3-18.9-4.6-40.5-8.4-49.2C1017.7,67.8,996.2,58.7,980.2,59.2z"/>
<path class="st15" d="M998.3,49c0,0,20.5-4.3,29.4,1.8c9,6,12.3,13.4,18.1,16.3c5.8,2.9,9.3,10.9,8.3,17.9c-1,6.9-0.8,12.8,6.1,22.1
	c6.8,9.3,5,19.2,3.8,27c-1.1,7.7-1.1,10.6,3.2,16.9c4.3,6.3,3.5,12.3,0.6,17.6s-4.8,10.8,0.5,14.8c5.3,3.9,7.7,16.7,3.4,20.9
	c-4.2,4.3-2.4,8.6-2.2,15.6c0.2,7-1.6,16-7.5,15.7s-10.1,4.6-13.4,11s-12.3,13-17.7,13.1c-5.4,0.2-6.6,7.4-6.4,16.5
	s-5.1,36.7-29.1,37.6l13.8-28.7l-12.4-12.2c0,0-6.2-3.1-5.9-10.8c0.3-7.7,2.9-8.7,2.4-11.3s-1.3-6.3-0.5-8.9c0.8-2.7,2-3.8,1.7-7.4
	c-0.3-3.5-1.4-8.3,1.5-11c2.9-2.6,3.2-8.1,3.1-9.8s0.8-6,4-8.7s3.3-7.5,4.4-10.5c1-3,2.2-6.8,4.3-9.2s3.6-15.3,9.8-18.4
	c0,0,17.4-8.3,18.4-26.4s-3.5-65.2-14.5-77.1C1014.3,51.4,998.3,49,998.3,49z"/>
<path class="st31" d="M1005.4,64.9c-3.1-3-8.9-5.4-12-6.7c-3.5-1.5-4.8-1.7-0.9-6c1.2-1.4,3.4-2.4,5.8-3.2c-1.1,0.2-2.1,0.4-3.1,0.6
	c-12.8,3.1-14.9,9.6-14.9,9.6C988.1,59,997.3,61.1,1005.4,64.9z"/>
<path class="st1" d="M678.7,760.9l-64.2,269.9H628l74.7-269.9H678.7z"/>
<path class="st1" d="M714.8,760.9l7.6,292.9h13.5l7.2-292.9H714.8z"/>
<path class="st1" d="M779.3,760.9l64.2,269.9H830l-74.7-269.9H779.3z"/>
<path class="st2" d="M790.1,752.6H667.8c0,0,0,11,0,11.1c0,3,27.4,5.5,61.2,5.5s61.2-2.4,61.2-5.5
	C790.1,763.6,790.1,752.6,790.1,752.6z"/>
<path class="st1" d="M790.1,752.8c0,3-27.4,5.5-61.2,5.5s-61.2-2.4-61.2-5.5c0-3,27.4-5.5,61.2-5.5S790.1,749.7,790.1,752.8z"/>
<path class="st3" d="M739.2,752.6h-20.5c-2.3,0-4.1-1.9-4.1-4.2v-95.8h28.7v95.8C743.3,750.7,741.5,752.6,739.2,752.6z"/>
<path class="st32" d="M1062.5,637.1H395.4l145.1-80h388.6L1062.5,637.1z"/>
<path class="st33" d="M395.4,637.1h667.1v24.7H395.4V637.1z"/>
<path class="st5" d="M870.3,630.8l117.3-14c2.5-0.3,4.4-2.5,4.4-5v-1.4l-132.1-50.2l-126.1-0.3v2c0,2.4,1.4,4.6,3.5,5.6l126.3,62.2
	C865.7,630.7,868,631.1,870.3,630.8z"/>
<path class="st34" d="M866.8,625.4L992,610.5l-131.7-55.9c-0.3-0.1-0.6-0.2-0.9-0.2l-125.6,5.5L866.8,625.4z"/>
<path class="st5" d="M863.4,617.7L965,606.6c0.7-0.1,0.8-1,0.2-1.3l-106.1-46.2c-0.4-0.2-0.9-0.3-1.3-0.2l-93.6,4.1
	c-3.2,0.1-4,4.5-1.2,5.9l98.7,48.6C862.2,617.7,862.8,617.7,863.4,617.7z"/>
<path class="st35" d="M684.9,453.5l-1.7,0.8l54.6,103.6l129,67.4l4.4-0.5l-59.9-121.6c-0.7-1.3-1.8-2.4-3.1-2.9l-118.5-47
	C688.2,452.7,686.4,452.8,684.9,453.5z"/>
<path class="st4" d="M683.2,454.3l50.6,105.6l133,65.4l-59-119.2c-1-2-2.6-3.5-4.6-4.3L683.2,454.3z"/>
</svg>
