<?xml version="1.0" encoding="utf-8"?>
<!-- Generator: Adobe Illustrator 25.0.0, SVG Export Plug-In . SVG Version: 6.00 Build 0)  -->
<svg version="1.1" id="Layer_1" xmlns="http://www.w3.org/2000/svg" xmlns:xlink="http://www.w3.org/1999/xlink" x="0px" y="0px"
	 viewBox="0 0 1491 1153" style="enable-background:new 0 0 1491 1153;" xml:space="preserve">
<style type="text/css">
	.st0{fill:#EBFBEE;}
	.st1{fill:#B27C60;}
	.st2{fill:#A56C53;}
	.st3{fill:#935B47;}
	.st4{fill:#E4E8F2;}
	.st5{fill:#C6D1E5;}
	.st6{fill:#B6C3DB;}
	.st7{fill:#F6AF9A;}
	.st8{fill:#EA9A88;}
	.st9{fill:#564756;}
	.st10{fill:#4A3A4A;}
	.st11{fill:#F0E9E9;}
	.st12{fill:#FFFFFF;}
	.st13{fill:#FFE7D1;}
	.st14{fill:#DE9681;}
	.st15{fill:#192B4F;}
	.st16{fill:#E57E73;}
	.st17{fill:#A34545;}
	.st18{fill:#B54C4C;}
	.st19{fill:#9E5959;}
	.st20{fill:#E26E5F;}
	.st21{fill:#D15C4D;}
	.st22{fill:#914D4D;}
	.st23{fill:#723333;}
	.st24{fill:#69948A;}
	.st25{fill:#558579;}
	.st26{fill:#E5B8B7;}
	.st27{fill:#D69D9D;}
	.st28{fill:#F7D5D3;}
	.st29{fill:#FFF3E8;}
	.st30{fill:#D38475;}
	.st31{fill:#152545;}
	.st32{fill:#DBA086;}
	.st33{fill:#CE8A72;}
	.st34{fill:#DAE1F2;}
	.st35{fill:#ECF0FA;}
</style>
<path class="st0" d="M165.3,938.7C0.5,631.7-1,136,618.1,134.6C2559.4,281.8,475,1515.1,165.3,938.7z"/>
<path class="st1" d="M1311,800.9l19.4,201.1c0.4,5.3-3.7,9.9-8.9,9.9h-5.9c-4.5,0-8.2-3.3-8.9-7.8L1272.1,801L1311,800.9L1311,800.9
	z"/>
<path class="st2" d="M1376.2,762.8l38.1,215.8c0.9,5.6-3.3,10.6-8.9,10.6h-5.7c-4.2,0-7.8-3-8.7-7.1l-53.8-219.3H1376.2z"/>
<path class="st2" d="M1220.3,762.8l-38,215.8c-0.9,5.6,3.3,10.6,8.8,10.6h5.7c4.2,0,7.8-3,8.7-7.1l53.8-219.3H1220.3z"/>
<path class="st1" d="M1091,790.2l-36.8,211.2c-0.8,5.5,3.4,10.5,8.9,10.5h5.7c4.2,0,7.9-3,8.8-7.2l52.4-214.5H1091z"/>
<path class="st3" d="M1383.9,772.9c0,0-3.5,28-42.7,32.2s-193,3-232.7-6.6c-39.8-9.5-32.7-36.4-32.7-36.4L1383.9,772.9z"/>
<path class="st4" d="M1210.3,462.3c0,0-35.1-3-35.1,27.4c0,28.6,0,169.3,0,169.3s5.3,20.9-49.7,31.6c-51.1,10-53.8,31.6-50.3,68.6
	l109.3-42.9V488.5C1184.5,488.5,1184,465.9,1210.3,462.3z"/>
<path class="st5" d="M1390.4,488.5v252.2h-205.8V488.5c0-14.5,11.5-26.2,25.7-26.2h154.4C1378.9,462.3,1390.4,474.1,1390.4,488.5z"
	/>
<path class="st6" d="M1390.4,740.7c0,0,1.2-24.4-53.2-24.4s-152.6,0-152.6,0l-109.3,42.9c0,0-7,15.5,40.3,23.8
	c47.4,8.3,135.6,12.2,155,10.1C1292.7,790.8,1390.4,740.7,1390.4,740.7z"/>
<path class="st4" d="M1364.6,462.3c0,0,17.5,4.2,17.5,50.7s0,168.1,0,168.1s6.7,27.6-58,35.4c-66.3,7.9-69.3,23.7-69.3,77.4
	c0,0,27.9,3.5,54.2,0.5c26.3-3,83-3.6,88.9-49.5c5.8-45.9-1.2-109.7,0-147.9c0.8-27.5,0.5-85.3,0.2-115.5
	c-0.1-10.7-8.6-19.3-19.1-19.3L1364.6,462.3L1364.6,462.3z"/>
<path class="st1" d="M323.8,800.9L304.4,1002c-0.4,5.3,3.7,9.9,8.9,9.9h5.9c4.5,0,8.2-3.3,8.9-7.8L362.7,801L323.8,800.9
	L323.8,800.9z"/>
<path class="st2" d="M258.7,762.8l-38.1,215.8c-0.9,5.6,3.3,10.6,8.9,10.6h5.7c4.2,0,7.8-3,8.7-7.1l53.8-219.3H258.7z"/>
<path class="st2" d="M414.5,762.8l38.1,215.8c0.9,5.6-3.3,10.6-8.8,10.6h-5.7c-4.2,0-7.8-3-8.7-7.1l-53.8-219.3H414.5z"/>
<path class="st1" d="M543.8,790.2l36.8,211.2c0.8,5.5-3.4,10.5-8.9,10.5H566c-4.2,0-7.9-3-8.8-7.2l-52.4-214.5H543.8z"/>
<path class="st3" d="M250.9,772.9c0,0,3.5,28,42.7,32.2s193,3,232.7-6.6c39.8-9.5,32.7-36.4,32.7-36.4L250.9,772.9z"/>
<path class="st4" d="M424.5,462.3c0,0,35.1-3,35.1,27.4c0,28.6,0,169.3,0,169.3s-5.3,20.9,49.7,31.6c51.1,10,53.8,31.6,50.3,68.6
	l-109.3-42.9V488.6C450.3,488.5,450.9,465.9,424.5,462.3z"/>
<path class="st5" d="M244.4,488.5v252.2h205.9V488.5c0-14.5-11.5-26.2-25.7-26.2H270.2C256,462.3,244.4,474.1,244.4,488.5z"/>
<path class="st6" d="M244.4,740.7c0,0-1.2-24.4,53.2-24.4s152.6,0,152.6,0l109.4,42.9c0,0,7,15.5-40.3,23.8
	c-47.4,8.3-135.6,12.2-155,10.1C342.1,790.8,244.4,740.7,244.4,740.7z"/>
<path class="st4" d="M270.2,462.3c0,0-17.5,4.2-17.5,50.7s0,168.1,0,168.1s-6.7,27.6,58,35.4c66.3,7.9,69.3,23.7,69.3,77.4
	c0,0-27.9,3.5-54.3,0.5c-26.3-3-83-3.6-88.9-49.5c-5.8-45.9,1.2-109.7,0-147.9c-0.8-27.5-0.5-85.3-0.2-115.5
	c0.1-10.7,8.6-19.3,19.1-19.3L270.2,462.3L270.2,462.3z"/>
<path class="st7" d="M560.8,458.6c0,0,27.1-1.5,36.4,42.7c7.7,36.8,17,209.5,15,237.4c-2,27.9-39.6,42.1-61.2,0.6
	c-30-57.7-49.9-160.9-52.6-204.6C495.5,491.2,516.6,458,560.8,458.6z"/>
<path class="st8" d="M498.6,516.7l78.9-13.2c0,0-11.3,40.2-18.1,53.3c-6.1,12-11.4,110.3-19,159.9c-24.7-61-40-144.4-42.3-180.2
	C497.6,529.7,498,523,498.6,516.7z"/>
<path class="st9" d="M550.1,454.4c0,0,32.2-2.9,40.9,20.7c7.8,21.4,13.9,52.4,19.5,132.2s7.4,107.2,3,129.8
	c-3,15.3-14.9,31.5-28.9,33c-14.1,1.5-25.8-6.7-39.6-38.6c-13.9-31.9-28.3-82.5-35.5-113.2s-14.5-69.1-13.4-99.6
	S513.4,458.2,550.1,454.4z"/>
<path class="st10" d="M555.2,561.8c0,0,0.3-21.1-11-33.5l-37.9,76.1c1,4.7,2.1,9.3,3.1,13.8c7.2,30.7,21.6,81.3,35.5,113.2
	c0.2,0.5,0.4,1,0.6,1.4c5.2-13.4,10.8-28.6,14-39.8c7.1-24.8,12.1-130.3,12.1-130.3s8.1-15.3,4.8-33.9
	C576.5,528.9,567.2,562.5,555.2,561.8z"/>
<path class="st7" d="M611.4,744.8c0,0-26.9,227-30.9,242.3s-27.4,18.3-27.9-6.4s-4.7-74.2-9.2-127.3s2.6-107.5,7.8-128.2
	C558.7,695.3,612.8,693.2,611.4,744.8z"/>
<path class="st9" d="M590.1,693.9c0,0,27.9,3.4,24.2,53.4c-3,41.3-22.9,182.1-22.9,182.1s-28.3,3.5-43.9-0.8c0,0-6.8-82.6-8.4-106.1
	c-3.1-42.8,4.7-81.3,8.1-102.3C550.4,699.2,574.7,690.2,590.1,693.9z"/>
<path class="st10" d="M556.3,703.3c-4.7,4.3-8.1,9.9-9.2,16.9c-0.6,3.5-1.2,7.4-1.9,11.8c0.1,0.3,0.2,0.6,0.4,0.8
	C549.3,723.2,553.2,712.6,556.3,703.3z"/>
<path class="st7" d="M574.5,953.2c0,0,9.1,1.4,7,19c-1.4,12,14.7,31.6,27.5,41.8c4.1,3.3,6.6,5.3,9.4,6.9
	c11.6,6.6,18.2,10.5,15.7,16.4s-32.8-0.8-42.1-4.4c-9.3-3.5-16.4-15.2-32.2-18.8s-20.6-9.6-20-16.8c0.9-11.2,13.2-20.5,16.3-33.6
	C559.3,950.8,567.9,950.8,574.5,953.2z"/>
<path class="st9" d="M539.8,1013.6c0,0,2.3,7.6,4.1,14.1s2.4,16.7,2.4,16.7s2.4,1.1,4.1-0.2c0,0,0-10.2,0.2-15s1.4-12.5,1.4-12.5
	S543.5,1012,539.8,1013.6z"/>
<path class="st9" d="M539.5,1007.2c0,0,0.1,5.4,0.4,6.9c0.3,1.6,17.7,5.4,24.9,9.1c7.2,3.7,18.4,9.6,21.7,13.6
	c3.4,4,11.8,7.7,17.7,8.5s26.5,0.9,41.2-6.5l-54.5-9.5l-34.4-19.4L539.5,1007.2z"/>
<path class="st11" d="M610.7,1015.2c0,0-5.3,6.1-12,8.9c-6.7,2.8-18.4-4.7-26.5-10.2s-23.3-24.8-25.3-32.1c0,0-9.7,9.1-8.1,24.3
	c0.3,5.5,11.4,8.5,18.9,10.9c7.5,2.3,25.1,12.4,28.5,16.2c3.4,3.8,8.7,11,39.8,9.2c9.9-0.6,20.1-3.7,20.1-3.7
	S629,1024.4,610.7,1015.2z"/>
<path class="st7" d="M594.2,451.8c0,0,1.7,27.6,0.8,45.7c-0.9,18.1-9.8,36.3-23.9,54.5c-13.3,17.4-39.8,28-66.1,25
	s-58.7-2.8-64.2-32.2c-5.5-29.5,10.2-64.8,22.1-79.5s16.1-17.2,20.8-31.1C488.4,420.1,592.9,398,594.2,451.8z"/>
<path class="st9" d="M595.7,448.3c0,0-86.1,4.4-113.4-10.4c0,0-8.2,10.5-16.5,19.8s-22.1,29.9-26.1,60s10.1,47.6,14,53.7
	c3.8,6.1,21.1,11.8,40.2,12.5c18.2,0.7,51.5-3.1,71.2-22.4c19.8-19.3,29.7-48.4,31.7-61C598.6,487.7,595.7,448.3,595.7,448.3z"/>
<path class="st10" d="M565,561.4c4.3-4.2,8-8.8,11.4-13.6c0.9-5.4,1.3-11.9,0.1-18.9c0,0-9.3,33.6-21.3,32.9c0,0,0.3-21.1-11-33.5
	l-26.9,54C533.7,579.8,552.2,573.9,565,561.4z"/>
<path class="st10" d="M470.2,452.6c3.5-9.7,6.6-18,6.6-18c27.4,14.9,119,13.6,119,13.6s0.3,4.7,0.7,11.3
	C578,466.1,528.8,478.5,470.2,452.6z"/>
<path class="st7" d="M492.7,486.9c0,0,43.8-2.9,51.6,41.4c7.8,44.4-12.6,190.2-20.8,216.1c-8.2,25.8-48.6,38.1-60.3-14.1
	s-23.3-100.8-21.3-194.2C441.9,534.1,448,489.1,492.7,486.9z"/>
<path class="st9" d="M498,477.8c0,0,33.3,2.5,46.1,34.2c12.9,31.7-1.6,145.7-2.9,162.4s-7.4,54.5-12,69.8
	c-5.1,17-19.7,31.5-38.6,30.7S461.9,760,453,717.5c-8.9-42.4-7.1-56.2-9.8-81.1c-2.7-25-5.9-80.5-3.5-103.2
	C442.1,510.4,460.6,476.9,498,477.8z"/>
<path class="st7" d="M521.7,768.4c0,0-65.2,208.3-71.7,222.6s-30.1,13.2-26.4-11.2s4.3-59.4,8.9-112.4c4.6-53.1,20.7-105.5,29.3-125
	C474.2,714.3,531.8,717.8,521.7,768.4z"/>
<path class="st9" d="M505.4,718.4c0,0,28.7,10,18.4,50c-10.3,40.1-57,182.2-57,182.2s-28.5-1.5-43.2-8.5c0,0,7.3-82.5,9.6-106
	c4.2-42.7,18.4-79.2,25.3-99.4C465.4,716.7,490.9,712.1,505.4,718.4z"/>
<path class="st7" d="M446,962.5c0,0,8.9,2.4,5,19.7c-2.6,11.8,11.5,33,23.2,44.5c3.7,3.7,6,6,8.6,7.9c10.8,7.8,17,12.4,13.9,18
	s-32.5-4.3-41.4-8.8s-14.8-16.8-30.1-22.1c-15.3-5.3-19.5-11.7-18.2-18.8c2-11,15.2-19,19.7-31.7C431.1,958.5,439.7,959.4,446,962.5
	z"/>
<path class="st9" d="M405.4,1018.9c0,0,1.5,7.8,2.7,14.4s0.7,16.9,0.7,16.9s2.3,1.3,4.1,0.2c0,0,1-10.2,1.7-14.9
	c0.7-4.8,2.6-12.3,2.6-12.3S409.3,1017.7,405.4,1018.9z"/>
<path class="st9" d="M405.7,1012.5c0,0-0.5,5.3-0.3,6.9c0.2,1.6,17,7.2,23.8,11.7s17.3,11.5,20.3,15.8s10.9,8.9,16.7,10.3
	c5.8,1.5,26.2,3.6,41.6-2.1l-53.3-15.1l-32.2-23L405.7,1012.5z"/>
<path class="st11" d="M475.7,1027.9c0,0-5.9,5.5-12.8,7.6s-17.8-6.6-25.3-12.9c-7.5-6.3-20.6-27.1-21.9-34.6c0,0-10.6,8-10.5,23.3
	c-0.3,5.5,10.5,9.7,17.7,12.8c7.3,3.1,23.7,15,26.7,19.1s7.6,11.8,38.7,13.3c9.9,0.5,20.4-1.5,20.4-1.5S493.1,1039,475.7,1027.9z"/>
<path class="st7" d="M533.5,244.3c0,0,12.6-22.8,45.9-6.2S683.2,337,689,345.8c6.4,9.7-0.1,31.7-21.8,24.1
	c-21.7-7.5-110.2-81.2-121-87.1C535.5,276.9,524.6,262.7,533.5,244.3z"/>
<path class="st12" d="M577.5,229c0,0,11.6,1.9,18.9,9.3c6.7,6.8,61,60.2,78.5,81.1s26.6,35.7,15.3,48.6s-34,0.2-40.1-3.9
	c-6-4.1-94.9-69.9-109.7-82.6s-15.3-35.6-4.4-44.5C546.9,228,570,224.5,577.5,229z"/>
<path class="st13" d="M612,336c0.1-9.9-2-24.4-11.8-43L584,244.4c0,0,6.2,1,9.5,4.5c0,0-1.9-9.8-13.4-19.3c-1.6-0.4-2.7-0.6-2.7-0.6
	c-7.5-4.5-30.5-1-41.4,8c-6.2,5.1-8.7,14.9-6.9,24.7c6.8,5.2,15.4,9.9,25.8,12.5c0,0-4.3-11.7,3-19c0,0,33.8,37,37.3,41.1
	c3,3.5,10.2,22.4,11.5,35.9C608.5,333.4,610.3,334.7,612,336z"/>
<path class="st13" d="M565.6,301.2c24.2,18.5,58.3,43.8,74.9,55.9c1.9-6.5,4.3-26.6,1.4-39.5c-3.4-15.5-18.6-30.4-29.3-47.8
	c-5.2-8.4-17.9-21.1-17.9-21.1S566.4,277.7,565.6,301.2z"/>
<path class="st14" d="M683.5,374.7c0,0,10.1,2.4,23,3c41.6,1.8,108.2,0.6,114-0.4c7.7-1.3,21.7-19.6-3.4-23.1
	c-25.1-3.5-54-10.2-75.9-14.6c-25.2-5-57.2-10.1-67.1,1.6S671,374.1,683.5,374.7z"/>
<path class="st7" d="M786.3,351.7c2.6,0.2,5.5,0.7,8,1.1c3.2,0.6,6.3,1.1,9.5,1.4c11-4.4,19.5-10.2,21.2-10.7c2.8-0.8,10.3,0,10.3,0
	c1.2,2.9,30.3,15.6,34.5,16.6c0.2,0,0.4,0.1,0.5,0.1c-2.8,12.9-6.7,24-15.6,33.6c-16.2-5.2-46-15.4-48.8-16.2v-0.1
	c-2.9,0-11.5,0.8-20.4,0.3C776.6,377.1,779.8,351.2,786.3,351.7z"/>
<path class="st12" d="M806,352.5c0,0-7.2,13.1-2.4,25.8c0,0-7.1,2-19,3s-100.1-2-112.7-8.1c-12.7-6.1-17.4-29-5.8-38.8
	s14.5-5.5,36.4-3.1c7.1,0.8,89.6,17.5,93.9,18.3C800.6,350.2,806,352.5,806,352.5z"/>
<path class="st7" d="M545.3,174.6c0,0,0.8,38.7-21,61.6c-2.5,2.7,18.8,18.6,36.7,16.5s25.5-9.7,26.1-19.7s-0.4-21.1,4-39.2
	c4.4-18.2-4.1-33.5-19.7-37.2C553,152.3,546,166,545.3,174.6z"/>
<path class="st8" d="M547.2,177.6c0.8-8.6,5.8-25.3,24.2-20.9c15.5,3.7,24,19,19.7,37.2c-3,12.5-3.2,23.8-3.8,32.1
	C550.7,216.4,555.9,199.7,547.2,177.6z"/>
<path class="st7" d="M584.7,228.7c0,0,10.2,9.4,15.6,23.1c5.3,13.5,15.5,38.2,23.3,55.7c7.7,17.5,12.2,47.3-9.6,61
	c-1.9,2.5-2.7,7.3-4.1,15.1c-1.4,7.7-4.1,18-7.6,23.6c-0.3,4.3-7.8,21-9,38.3S489,462.1,482.5,432.6c0.3-4.3,7.1-23.4,3.5-51
	s-9.2-77.1-5.8-101.6s29.7-44.7,45.1-50.6C540.7,223.3,562,218,584.7,228.7z"/>
<path class="st12" d="M632.2,326.5c-7.4-29.8-13-38.7-21.1-57c-10.5-24-17.4-34.2-24-38.4c0,0,6.5,10.1,4.2,18.5l4,48.1L569,252.8
	c-35.6-15.6-37.7-25.9-37.7-25.9l-34.3,8.9c0,0-10.7,11.5-14.1,19.6c0,0-13.1,33.7-4.6,90c8.6,56.3,3.7,63.7,1.3,70.7
	s-14,18.7-4.4,26.5c9.7,7.8,81.5,24.9,116.8,12c9.6-2.9,9-6.3,10.9-22.5c1.9-16.1,12.2-44.7,13.1-58.3
	C616.2,373.8,639.6,356.4,632.2,326.5z"/>
<path class="st13" d="M587.1,375.7c-0.3,3.2-11.6,70-13.8,82.9c2.6-0.3,5.1-0.6,7.5-1c1.9-15,10-77.7,11.5-81.9
	c1.7-4.8,7-17.3,9.6-26.8c2.5-9.5,4.1-24.8-2-46.6l-5.5-51c0,0,5.8,2.3,8.3,6.5c0,0,0.1-4.5-2.6-11c-4.9-8.7-9-13.2-13-15.7
	c0,0,6.5,10.1,4.2,18.5l4,48.1L569,252.8c-35.6-15.6-37.7-25.9-37.7-25.9l-9.1,2.4c2.5,7.6,12.1,32.1,37.5,44.6
	c0,0-1.7-12.4,6.9-17.9c0,0,25.1,43.6,27.7,48.3c2.6,4.8,6.2,30.8,2.6,43.3C593.3,360.1,587.4,372.2,587.1,375.7z"/>
<path class="st13" d="M524,333.2c-9.2,21.9-22.1,75.7-15.3,82.3c14.2,13.9,34.3,40.4,93,27.5c-1.1,7.1-2.7,9.4-9.6,11.6
	c-35.3,12.9-107.2-4.2-116.8-12s2-19.5,4.4-26.5s7.3-14.5-1.3-70.7c-4.6-30.2-2.6-51.8,0.2-65.3c33.5-5.2,51.7-6.1,51.7-6.1
	S533.2,311.3,524,333.2z"/>
<path class="st13" d="M616.1,373.7c-4.7,1.3-9.8,1.3-14.3,3.5C605.8,378.7,612.7,375.5,616.1,373.7z"/>
<path class="st13" d="M577.2,375.6c0,0-25.1,13.8-56.1-6.3C521.1,369.3,552.1,380.3,577.2,375.6z"/>
<path class="st7" d="M563.2,72.7c0,0-46.9,4.4-42.8,60.9c3.9,54.4,51,96.4,88.8,82.9c12-5.1,18.5-33.9,16.7-76.5
	C624,97.4,604.6,68.9,563.2,72.7z"/>
<path class="st8" d="M599.5,170.5c0,0-2.1-4-11.9-2.9c-8,0.8-13.9,2.6-13.4,7.6C574.2,181.8,604.5,180.3,599.5,170.5z"/>
<path class="st8" d="M613.9,171.3c0,2.4,5.8,3.9,11.3,4.4c0.4-3.7,0.6-7.7,0.8-11.8C618.9,164.7,613.4,166.6,613.9,171.3z"/>
<path class="st15" d="M584.7,158.8c0.2,2.9,2.2,5.2,4.4,5s3.7-2.7,3.5-5.7c-0.2-2.9-2.2-5.2-4.4-5S584.5,155.9,584.7,158.8z"/>
<path class="st15" d="M612.4,155.7c0.2,2.8,2.1,5,4.2,4.8c2.1-0.2,3.6-2.6,3.4-5.4c-0.2-2.8-2.1-5-4.2-4.8S612.2,152.9,612.4,155.7z
	"/>
<path class="st16" d="M605.6,179.6c1.6-0.1,4.5-0.4,6.1-1.4c2.2-1.3,1.3-3.3,0.2-5.6l-0.1-0.3c-6.5-14-6.2-20.1-6.2-20.2
	c0-0.7-0.5-1.3-1.1-1.4c-0.7,0-1.3,0.5-1.3,1.2c0,0.3-0.5,6.7,6.4,21.5l0.1,0.3c0.4,0.9,0.9,1.9,0.9,2.3c0,0-0.1,0-0.1,0.1
	c-1.2,0.7-4.3,1-5.9,1c-0.7,0-1.2,0.6-1.2,1.3s0.6,1.3,1.3,1.3C604.6,179.7,605,179.7,605.6,179.6z"/>
<path class="st17" d="M594.4,142.5c0,0,1.8-0.2,1.9,1c0.1,1.2-0.1,4-0.8,4.4c-0.8,0.4-10.2,0.6-13.9,0.9c-3.7,0.3-9.4,1.5-9.7,1.1
	s1.8-2.8,5.9-4.2C581.3,144.5,589.6,142.5,594.4,142.5z"/>
<path class="st17" d="M625.2,144.3c0,0,1.8,0,1.8-1.1c0.1-1.4-5.8-3.4-15.8-2.2c-2.9,0.5-2.4,4-1.6,5.6
	C610.4,148,614.5,144.9,625.2,144.3z"/>
<path class="st8" d="M607.4,196.1c-2.8,0-4.9,0.9-5,1c-0.6,0.3-0.8,0.9-0.6,1.5c0.3,0.6,0.9,0.8,1.5,0.6c0.1,0,3-1.3,6.4-0.4
	c0.6,0.2,1.2-0.2,1.4-0.8s-0.2-1.2-0.8-1.4C609.2,196.2,608.3,196.1,607.4,196.1z"/>
<path class="st12" d="M615.4,185.5c-6,0.9-17.1,1.7-21.4,2c-0.8,0-1.2,1-0.6,1.6c1.7,1.9,5.7,5.1,12.9,4.7c6.2-0.3,9-4.6,10.1-7
	C616.7,186.2,616.2,185.4,615.4,185.5z"/>
<path class="st18" d="M510.1,157.1c0,0-10.8-1.7-12.1,12.2c-0.6,6.1-4,5.3-3.1,11.3c1,6,1.2,4.7,2.5,9.3c1.2,4.7,1.6,10.7,6.9,12.1
	s6.8,3.7,10.6,5.5c3.7,1.8,9.4,1.2,11.6-0.6s5.3-0.1,7.1-4.7C533.6,202.3,526,163.9,510.1,157.1z"/>
<path class="st17" d="M515.4,184.6c-6-4.4-7.5-15.5-6.5-27.4L515.4,184.6z"/>
<path class="st18" d="M599.6,98.2c0,0,16.1,10.6,20.6,20.5s3.6,24.8,4.7,32.2c1.1,7.4,2.3,10.4,3.8,15.2s0.7,7.2-1,13.7
	c-1.6,6.5,1.1,13.8,6.2,16.2c0,0-5.3-6.8-2.7-13c2.7-6.2,5.7-11.1,3.8-15.8c-1.9-4.6-6.2-11.2-3.6-18.4c2.6-7.2,3.5-34-5.1-52.1
	S589.7,68.3,576.5,70c0,0-29.5-5.1-46.5,10.3s-23,35.4-22.4,60.1c0.6,24.6,5.1,44.3,12.8,54.3c6.4,8.3,19.8,12.6,20.1,11.6
	s4.2-6.6,7.1-21.6c2.5-12.6,0.9-27.8,2.8-28.9c1.9-1.1,8,11.2,7.5,15c-0.5,3.7-4.1,11-0.8,15.9c3.2,4.9,8.3,6.3,7.3,13.1
	s-1.2,14.9,2.9,16.4c0,0-1.9-5,0.2-9.5c2.1-4.5,3.1-10.3,0.9-13.6s-10.8-10.6-8.1-15.1s6.7-5.1,7.2-14.9c0.5-9.8-2.6-17.8-1.2-22.3
	c1.4-4.5,6.5-9.1,14.9-12.6C589.8,124.7,595.8,112.9,599.6,98.2z"/>
<path class="st17" d="M599.6,98.2c-1.5-12.7-10.5-25.2-23-28.1C587.8,75.7,595.4,86.4,599.6,98.2z"/>
<path class="st17" d="M591.2,95.9c-15.3,7.1-12.2,14.8-20.4,26.3c-2.8,4.4-7.6,5.7-11.8,8.1c-5.3,3.8-8.7,10.6-8.1,17.2
	c0.3-5.6,3.2-11.1,7.4-14.6c5-3.7,10.2-3.5,14.1-9.4C580.8,111.7,576.7,105,591.2,95.9z"/>
<path class="st17" d="M580.9,89.7c-8.5,2-16.8,6.8-21.1,14.8c-7.8,11.6-21,23.2-18.6,38.7c-0.5-15.3,12.5-25.8,20.1-37.7
	C565.3,97.7,573,92.8,580.9,89.7z"/>
<path class="st17" d="M580.4,79.3c-14.7-1-30.4,3.3-40.2,15.1c-4.8,5.4-8.9,11.6-11.1,18.6c-1,3.2-1.6,6.6-1.4,10
	c0.2,1.9,0.2,4.3,0.1,6.2c-0.4,10.6-2.3,21.7,1.1,32.1c-3.1-12.7,1.3-25.9,0.5-38.7c0.3-12.5,8.3-23.5,17-31.8
	C555.7,82.5,568.4,79.7,580.4,79.3z"/>
<path class="st7" d="M542.1,152.4c0,0-5.8,1.6-4.3,11.1c1.5,9.2,8.7,18.7,14.9,15.8c2-1.1,2.3-9.4,1.4-16.6
	C553.1,155.5,549,151.1,542.1,152.4z"/>
<path class="st16" d="M550.5,172.7c0.4-12.8-6.4-15.2-6.7-15.3c-0.4-0.1-0.7,0.1-0.8,0.4c-0.1,0.4,0.1,0.7,0.4,0.9
	c0.2,0.1,3.8,1.4,5.2,7.5c-2.2-1.9-5.2-1.7-5.4-1.7c-0.4,0-0.7,0.3-0.6,0.7c0,0.4,0.3,0.7,0.7,0.6c0.2,0,4.2-0.2,5.7,3.1
	c0.1,1.1,0.1,2.3,0.1,3.7c0,0.3,0.2,0.6,0.6,0.7h0.1C550.1,173.3,550.4,173,550.5,172.7z"/>
<path class="st7" d="M507.1,241.5c0,0,33.6,6.5,19.1,56.2c-14.5,49.6-58.8,131.9-77.3,135.3c-20.6,3.7-21.1-14.2-15.7-32.8
	s35.1-125.7,40.7-135.1C479.6,255.7,488.7,238.7,507.1,241.5z"/>
<path class="st12" d="M499.4,235.4c0,0-12.8,0.3-23.4,21.5s-47.9,141.7-48.7,156.3c-0.8,14.6,5.8,22.9,15.9,24.7
	c10.1,1.8,22.3-6.8,32.1-20.3S510.1,345,523.6,313C539.1,275.9,537,235.1,499.4,235.4z"/>
<path class="st7" d="M458.8,584.3c2.6-2,1.2,11.5,3.2,18.9c2,7.5,4.7,10.1,6.6,8.3c1.9-1.7,0.3-10.7,0-18.1
	c-0.3-7.4,2.5-21.8,1.7-30.3s-9.2-23.1-9.2-23.2c-1.6-9.1-10.9-6.9-11-6.8c-3.5,1.1-7.5-0.1-7.5,10.8c0,10.4-4.5,20.6-5,22.6
	c-1.4,5.1-9.7,22.2-9.1,25.5c0.6,3.2,9.2,24.1,10.9,25.9c1.7,1.8,10.3,7.5,12.1,8.7s7.6,6,9.2,7.3c1.6,1.2,3.8,1.4,4.4-2.1
	c0.5-3.5-10.7-21.8-11.8-26.1c-0.2-1,0.2-4.8,1-9.9C455.3,589.1,456.2,586.3,458.8,584.3z"/>
<path class="st7" d="M459.6,631.6c0,0-4,4.8-10.6-2c0,0-4.2,3.1-9.3-6.5c0,0-4.3-0.4-6.2-5.3c-1.3-3.2-7.2-18.7-7.8-22.3
	s10.6-25.2,10.6-25.2l12.1,39L459.6,631.6z"/>
<path class="st16" d="M458.8,632.4c-3.4-6.2-6.8-12.7-10.3-18.9c-2.7-5.7-3.4-12-4.5-18.3h-0.2c-0.7,6.9,0.1,14.3,4.1,20.1
	c3.5,5.6,6.8,10.9,10.3,16.4L458.8,632.4z"/>
<path class="st16" d="M439.7,623.2c-2.8-9.1-6.6-18-8.7-27.3h-0.2c-0.7,4.8,0.8,9.9,3,14.1c1.7,3.9,3.7,8.6,5.5,12.4L439.7,623.2z"
	/>
<path class="st16" d="M449,629.7c-5.8-10.4-9.7-21.6-12.6-33.2h-0.2c-0.2,12.3,5.8,22.3,12.2,32.3L449,629.7z"/>
<path class="st7" d="M451,401.7c0,0,11.1-0.1,16.2,15.9c3.8,11.9,6.6,48.1,2.6,75.8c-4,27.8-4.8,58.8-6.5,70.3s-15.9,11.7-20.1-6.9
	C439,538.1,428,433.2,429,421.5C430.1,409.7,438,401.5,451,401.7z"/>
<path class="st12" d="M441.2,544.7c0,0,14.5-9.9,23.8,1.3c0,0,3-6.1,3.9-16c0.5-5.2,5.5-68.4,5.8-81.9c1.1-43.3-2.1-50.5-17.1-56.6
	s-27.8,16.4-29.7,24s1.1,64.3,3.3,81C434.5,523.3,441.2,544.7,441.2,544.7z"/>
<path class="st19" d="M1070.5,230.4c0,0-31.8-12.8-45.6,37.1c-13.8,49.9-19.5,143.6-5.5,156.5c15.5,14.4,25.3-0.5,30.5-19.2
	s36.3-125.4,36.4-136.4S1087.6,238.1,1070.5,230.4z"/>
<path class="st20" d="M1080.3,229.4c0,0,10.6,7.2,8.5,30.9s-33.8,145.9-40.7,158.6c-7,12.7-16.9,16.2-26.4,12.2
	c-9.4-4-15.2-17.9-16.5-34.7c-1.3-16.8,8.6-80.3,14.1-114.7C1025.5,242,1048.6,208.7,1080.3,229.4z"/>
<path class="st21" d="M1061.8,286.8c6-29.6-18.1-46.5-18.1-46.5s-13.5,21.6-21.7,28.3c-1.1,4.3-2.1,8.7-2.8,13.2
	c-1.4,9-3.1,19.9-4.9,31.5C1030.4,315.4,1057,310.1,1061.8,286.8z"/>
<path class="st9" d="M932.1,506.4c0,0,13.3,24.1,42.5,25.7l1-18.2l-28.5-17.8L932.1,506.4z"/>
<path class="st19" d="M1034,396.4c0,0-9.4-6.1-22,4.6c-9.4,8-30.8,37-42,62.7s-26.8,52.3-31.4,62.9c-4.6,10.6,7.3,18.6,20.6,5.1
	s77.7-96.1,82.9-106.6C1047.5,414.6,1045.1,403.3,1034,396.4z"/>
<path class="st19" d="M965.8,507.9c-0.1-0.1-6.8-7-12.9-0.2c-0.1,0.1-17.9,7.9-23,14.7s-7.1,18.2-11.3,24.2s-12.3,9.6-11.7,12.1
	c0.7,2.5,7.8,0.7,12.8-1.6c6.9-3.3,10.8-13.8,11.9-10.7c1.2,3.1,0.4,6-2.3,12.2c-2,4.7-21.1,13.4-22.5,16.7s0.6,4.4,2.6,4.2
	c0.5,0,1.4-0.2,2.5-0.3c0.7,1.7,3,4.6,9.7,3c0,0,1.9,4.9,11.3-0.4c0,0,3.8,2,8-1.1c2.8-2,11.6-8.8,13.9-11.5
	c2.4-2.7,5.3-25.7,5.5-26.6c0.6-2,3.6-12.2,9-21.1C975.1,512.5,968.2,510.8,965.8,507.9z"/>
<path class="st22" d="M957.1,533.6c-0.1-2.8-10.3-10-10.3-10s1,7.2-5.5,12.4s-8.7,7.4-10.2,9.8l0,0c0.3,0,0.5,0.1,0.7,0.5
	c1.1,3.1,0.4,6-2.3,12.2c0,0.1-0.1,0.2-0.2,0.4c1.8,0.4,5.7,1.2,8.5,2c3.8,1,8.7,1.9,11.3,1.7c2.5-0.2,4.6-5.3,5.9-10
	C956.2,548.1,957.3,536.4,957.1,533.6z"/>
<path class="st23" d="M931,545.9c0,0,3.5-5.4,7.9-8s8.1-9.6,7.9-14.2c0,0,0.5,5.6-1.9,10.1S933.4,541.9,931,545.9z"/>
<path class="st23" d="M911.9,579.3c1.2-2.1,2.5-4,4.4-5.5c3-1.8,6-3.5,8.9-5.4c1.4-0.9,3-1.8,4.5-2.5l0.8-0.4
	c1.2-0.6,2.2-1.5,3.1-2.7c0-0.1,0.2,0,0.2,0.1c-0.3,1.5-1.3,2.9-2.5,3.8c-2.4,1.9-5.5,3.5-8.2,4.8c-1.5,0.8-3.1,1.6-4.7,2.3
	c-0.4,0.2-1.1,0.5-1.5,0.7c-1.9,1.2-3.4,3-4.7,4.8c0,0-0.1,0.1-0.1,0C911.9,579.4,911.9,579.3,911.9,579.3z"/>
<path class="st23" d="M921.6,582.3c1.1-2.1,2.4-4,4.3-5.5c0.9-0.7,1.8-1.4,2.7-2c1.6-1.2,3.9-2.8,5.4-4.1c1.7-1.4,3.6-2.5,5.1-4.1
	c0.8-0.8,1.4-1.7,2.1-2.6c0,0,0.1-0.1,0.1,0v0.1c-0.2,1.2-0.6,2.3-1.3,3.3c-1.2,2-3.2,3.5-5.1,4.8c-2.7,1.7-6,3.8-8.7,5.4
	c-1.8,1.2-3.3,3-4.6,4.8c0,0-0.1,0.1-0.1,0C921.5,582.4,921.5,582.3,921.6,582.3z"/>
<path class="st23" d="M932.8,582c0.4-1.5,1.1-2.9,2.1-4.1c1-1.1,2.1-2.1,3.2-3.2c1.3-1.2,3-3,4.2-4.3c1-1.1,2.2-2,3.3-3
	c1.1-0.9,1.8-2.1,2.2-3.5c0-0.1,0.2-0.1,0.2,0c0.2,1,0,2.2-0.4,3.2s-1.2,1.8-1.9,2.5c-1.4,1.4-3,2.6-4.5,3.9c-1.6,1.3-3.6,3-5.2,4.3
	c-1.3,1-2.3,2.5-3,4.1L932.8,582L932.8,582z"/>
<path class="st20" d="M974.6,532c0,0-22.4-28.8-42.5-25.7c0,0,47.9-79.6,54.7-91.2c21.8-37.2,31.1-34,46.9-31
	c15.8,3,14.9,29,12.6,36.5C1044,428.2,974.6,532,974.6,532z"/>
<path class="st21" d="M1033.8,384.2c-15.7-3-25-6.1-46.3,29.9c5.9-1.2,14.7-1.9,21.7,1.6c7.7,3.9,7.1,35.1,5.8,55.1
	c15.7-24.1,30.3-46.9,31.3-50.2C1048.7,413.2,1049.6,387.2,1033.8,384.2z"/>
<path class="st20" d="M1018.9,383.7c0,0,7.8,48.2,6.6,73.9c-1.2,25.6-19.4,102.2-19.4,102.2l89.3,14l-19-198.3L1018.9,383.7z"/>
<path class="st19" d="M1094.6,475.7c0,0-55-3.9-64.7,71c-9.1,70.1-21.8,170.5-3,202.3c4.9,9.5,40.4,31.4,59.3-3.9
	c18.9-35.4,40.1-93.5,50.1-127.7C1146.3,583.3,1171,482.4,1094.6,475.7z"/>
<path class="st24" d="M1100.5,474.7c0,0-34.2-31.6-54.7,7.1c-4.8,9-16.4,54.5-21.5,97s-8.9,100.6-6.2,173.8
	c1.3,33.8,9.8,33.4,38.2,36c25.1,2.4,37.6-54.3,42.4-65.3c0,0,40.3-84.1,49.1-152C1156.7,503.3,1135.6,479.6,1100.5,474.7z"/>
<path class="st25" d="M1092.2,539.9c0,0-10.3,30.4-14.5,33.8c-4.2,3.4-23.6-37.6-23.6-37.6s5.2,31.4,7.3,45.9
	c2,14.5-0.7,120.6,3.4,158.7c0.9,8.1,2.4,23.9,4.4,43.6c16.7-13.1,25.6-52.1,29.5-61c0,0,40.3-84.1,49.1-152c0.7-5,1.1-9.8,1.5-14.3
	C1118.3,546.7,1092.2,539.9,1092.2,539.9z"/>
<path class="st26" d="M1105,1019.3l1,22.6c0,0.2-0.1,0.5-0.3,0.6c-1.5,0.8-8.4,3.9-24,3.4l-0.8-19.6L1105,1019.3z"/>
<path class="st27" d="M1081.7,1045.9l-9.6-3.8c-0.3-0.1-0.5-0.4-0.5-0.7l-0.6-14.7l9.9-0.4L1081.7,1045.9z"/>
<path class="st26" d="M1104.2,1006.2c0,0-1.5-3.3-12,1.7s-50.2,20.2-61.8,24.7c-11.6,4.5-30.5,2.5-39.2,1.5
	c-8.7-0.9-17.6-1.5-17.1,1c0,0,3.4,5.3,18.2,6.7c14.8,1.4,34.2,3.2,56.6-8.5C1071.2,1021.5,1105.8,1019.1,1104.2,1006.2z"/>
<path class="st28" d="M1104.2,1006.2c0,0,2.3,3.2,2.1,10.8c0,1.3-0.8,2.4-2,2.8c-4.8,1.8-18.2,7.6-33.2,11.4
	c-15.6,3.9-26.1,10.1-31.4,13.1c-2,1.1-4.2,1.9-6.5,2.1c-10.4,1.3-30.9,4.2-55.6-1.4c-1.6-0.4-2.9-1.7-3.1-3.4
	c-0.2-1.5-0.4-3.6-0.4-6.5c0,0,19.5,8.4,44.1,4.8c24.6-3.5,28.1-10.2,56.9-18.4C1103.9,1014.2,1104.1,1009.2,1104.2,1006.2z"/>
<path class="st19" d="M1094.8,947.8c0,0-1.8,11.4,0.3,22.9c2.7,14.2,12.1,29.5,3.5,39.2c-8,9-23.4,7.1-43,15.9s-22.6,15.1-55.1,15.3
	c-13.9-1.1-22.2-0.8-22.2-11.3c0-8.1,9.1-12.8,18.1-14.5c8.1-1.5,18.3-7.1,35.8-21.5c19.6-16,26.1-21.1,25.3-30.3
	c-0.6-6.8-1.3-13.8-1.9-20.1c-0.7-8.3,5.9-16.3,19.4-17.5C1087.9,924.8,1096,932.3,1094.8,947.8z"/>
<path class="st28" d="M1040.2,1035.7c0,0-8.8-5.3-12.2-10.6c-5.3-8.3-9.6-15.8-12.8-18.5c-0.4-0.3-0.9-0.4-1.4-0.2
	c-3,1.2-7,5.5-20.3,9c-14.1,3.7-19.7,7.9-19.4,19.7C974,1035.1,1002.7,1053.2,1040.2,1035.7z"/>
<path class="st28" d="M1096,974.3c0.4,0.5,2.7,2.6,2.2,6.7c0,0.2-0.1,0.4-0.3,0.6c-1.5,1.6-9.6,10.4-18.9,21.9
	c-6.8,8.4-15.3,15.1-14.5,23.8c0,0-13.1,4.8-16.9,6.8c0,0-10.6,4.1-12.5,4.5l-3.9-7.2c0,0,16.9-3.1,33.8-23.7
	c17.5-21.2,29.6-32.5,30.8-33.5C1095.9,974.2,1096,974.2,1096,974.3z"/>
<path class="st19" d="M1048.4,696.3c-17,2.6-26.5,18.9-25.1,36.4c2.2,26,4.6,59.3,19.5,143.8c20,113.5,23.2,102.9,36.1,104.9
	c15.9,2.4,14.6-28.8,17.8-58.9c2.9-27,10.7-87.8,7.4-127.3c-3.9-45.3-20.8-98.8-47.4-99.4C1053.8,695.7,1051,695.9,1048.4,696.3z"/>
<path class="st24" d="M1054.9,693.4c0,0,23.2-0.5,35.2,34s14.3,50.2,19.5,111.8c4.4,52.6-1.7,97.1-3.8,111c-0.4,2.3-2,4.2-4.2,4.9
	c-5.2,1.6-15.7,4.2-29.2,4c-13.7-0.1-26.6-1.7-32.3-2.5c-1.7-0.2-2.9-1.7-3-3.4c0-2.7-0.3-7.8-0.9-17.6
	c-3.9-57.4-8.5-63.1-11.5-101.9c-2.8-37.1-21-126.6,18.1-138.9C1048.9,692.9,1054.9,693.4,1054.9,693.4z"/>
<path class="st25" d="M1090.1,727.4c-7.6-21.8-19.6-29.6-27.5-32.4c0.3,18.3,0.9,34.8,2.1,45.7c3.2,29.9,15.9,161.8,21.3,217.6
	c6.9-0.9,12.3-2.3,15.6-3.3c2.2-0.7,3.8-2.6,4.2-4.9c2.1-13.8,8.2-58.4,3.8-111C1104.5,777.6,1102.1,761.9,1090.1,727.4z"/>
<path class="st24" d="M1206.5,406.6c0,0-1.4,49.9,6.5,82.9c10.3,42.7,12.7,112-53.5,128.2c-57.6,14.1-99.6-32.7-106.4-88.7
	c-2.7-19.6-9.2-52.7-10.5-78.5c-1.6-32.3,15.5-69.4,37.6-87.7C1121.9,328.3,1201.6,325,1206.5,406.6z"/>
<path class="st25" d="M1213,489.5c-4.2-17.5-5.8-39.7-6.3-56.7c-29.2-2.1-75.4,0.5-120.3,6.1c-26.6,3.3-38.4,11.6-43.2,19.9
	c0.6,7,1.4,14.3,2.4,21.6c8.4,1.1,30.6,3.7,40.8,2.3c12.6-1.7,12.1,6.4,11.4,17.3c-0.6,10.9,11.8,102.9,11.8,102.9
	s59.6-1.5,78.6-5.1c2.9-0.6,5.5-0.4,7.6,0.3C1224.1,570.2,1220.8,522.2,1213,489.5z"/>
<path class="st25" d="M1209,579.7c-47.3-21.5-123.4-40.9-123.4-40.9s-7.3,28.8-11.5,32.3c-4.2,3.4-19.9-34.8-20-35
	c9.4,52.8,50.2,95.1,105.4,81.6C1185.1,611.4,1200.4,597.2,1209,579.7z"/>
<path class="st19" d="M1193.2,545.9c-12.6-29.1-46.1-41.1-72.8-24.5c-14.5,9-30,25.6-34.7,56c-9.7,62.1-7,84.7-2.4,135.7
	c3.4,36.8,3.3,44.1,9.1,69.8c5.8,25.8,26.9,34.6,40,33c13.2-1.6,33-10,43.2-49.7c9.4-36.5,16.3-63.6,21.3-101.3
	C1200.3,639.3,1209.3,583.2,1193.2,545.9z"/>
<path class="st24" d="M1149.2,511.1c0,0-48.2-30.7-62.3,19.3c0,0-12.3,74.1-8.4,145.9c0,0,0.2,114.6,28.8,133.6
	c25.4,16.9,54.7,15.4,70-40.4c15.5-56.4,33.8-163.7,22.5-209.7C1192.3,529.4,1184,512.5,1149.2,511.1z"/>
<path class="st25" d="M1149.2,511.1c0,0-31.4-20-50.9-1.3c2.3,26.6,11.3,93.2,11.3,93.2s59.6-1.5,78.6-5.1c7.3-1.4,12,1.8,15.1,6.2
	c0.4-17.4-0.6-32.8-3.4-44.3C1192.3,529.4,1184,512.5,1149.2,511.1z"/>
<path class="st26" d="M1207.9,1038.7l0.2,21.8c0,0.4-0.2,0.8-0.6,0.9c-1.9,0.9-8.8,3.3-23.2,2.4l-0.1-19.2L1207.9,1038.7z"/>
<path class="st27" d="M1184.3,1063.8l-9.1-4c-0.4-0.2-0.6-0.5-0.6-0.9l-0.1-14.2l9.6-0.1L1184.3,1063.8z"/>
<path class="st26" d="M1207.6,1025.9c0,0-2-2.2-12.4,2.3c-10.4,4.5-49,16.9-60.5,20.8s-35.1,1.4-43.6,0.1
	c-8.5-1.2-17.1-2.1-16.7,0.3c0,0,3.1,5.3,17.5,7.2c14.4,1.9,38.6,4.3,60.8-6.3S1208.7,1038.5,1207.6,1025.9z"/>
<path class="st28" d="M1207.6,1025.9c0,0,2.1,3.2,1.7,10.6c-0.1,1.2-0.9,2.3-2,2.7c-4.8,1.6-18.2,6-32.8,9.9
	c-14.6,3.9-25.8,8.9-31.1,11.7c-2,1-4.2,1.7-6.4,1.9c-10.2,0.9-35.6,3-59.5-3.3c-1.6-0.4-2.7-1.8-2.9-3.5c-0.2-1.4-0.3-3.5-0.2-6.4
	c0,0,24,8.8,48.1,6.2c24.1-2.6,31.6-9.9,60-16.9C1198.5,1035.2,1205.6,1031,1207.6,1025.9z"/>
<path class="st19" d="M1186.8,970.9c0,0,2.1,8.5,6.3,18.1c5.6,12.9,14.5,33.7,6,41.8c-8.6,8-19,4.8-38.4,12.7
	c-19.4,7.9-29.7,14.2-57,12.7c-13.5-1.5-25.2-1.6-25.5-11.7c-0.2-8.4,9.5-11.4,18.3-12.8c7.9-1.2,22.4-3,38.7-19.4
	c16.4-16.4,21.5-20,20.6-26.6s-0.3-9.7-2-15.2s-1.5-15.1,10.6-18.2C1176.7,949.2,1181.9,956.9,1186.8,970.9z"/>
<path class="st28" d="M1142.1,1052.9c0,0-7.1-5.5-10-10.9c-2.8-5.2-8.3-15.2-11.5-18.3c-0.3-0.3-0.8-0.4-1.3-0.3
	c-3.4,1-10.9,5.3-23.2,7.2c-10.2,1.6-23.2,5.4-21.8,18.8C1074.4,1049.4,1104.9,1068.6,1142.1,1052.9z"/>
<path class="st28" d="M1196.2,994.4c0.9,0.7,3.3,2.7,2.9,7c0,0.4-0.2,0.8-0.4,1.2c-1.4,2-6.7,9.5-15.6,19.8
	c-6.9,8-15.4,14.2-15,22.7c0,0-12.9,4.2-16.7,6c0,0-10.5,3.7-12.4,3.9l-5.5-9c0,0,18.7-2.3,35.8-19.9c17.5-18.2,24.9-29.4,26.2-31.5
	C1195.7,994.3,1196,994.3,1196.2,994.4z"/>
<path class="st19" d="M1096.8,759.1c0,0,10,54.2,23.9,103.1c12.1,42.4,30.6,109.5,36.7,131.5s18.3,15.2,22.8,12.3
	c4.5-2.8,9.8-11.6,8.9-32.7c-0.9-21.1-0.3-57.8-2.1-92.1c-2-39.8-3.5-109.9-24.5-146C1137.6,692.6,1090.7,718.3,1096.8,759.1z"/>
<path class="st24" d="M1123.6,711.2c0,0,21.8-4.8,39.4,15.6c16.4,19,26,54.5,32.1,93.9s2.8,134.8,2.8,134.8s-14.6,8.1-24.8,9.2
	c-41.4,4.3-53.2-3.9-53.2-3.9s-4.2-19.9-6.9-30.3c-7.4-27.7-21.5-120.1-25.8-153.3c-4.3-33.1-3.1-38.6,9.4-55.4
	C1107.6,706.6,1123.6,711.2,1123.6,711.2z"/>
<path class="st19" d="M1105.9,209.2c-22.7,0.7-35.6,6.7-50.3,24.4c-12.5,15.1-22.4,48.1-31.6,71.7c-8.9,23-3.8,42.4,12.5,67.1
	c1.1,1.6,5.3,6.9,5.3,6.9s2.9,29.6,7.5,51.7c3.8,18.4,8.3,31,57.4,33.1c49.1,2.2,63.7-29.4,67.3-91.2c2.7-46,2-93-1-116.3
	C1169,225.7,1145.7,208,1105.9,209.2z"/>
<path class="st19" d="M1069.5,197.8c0,0,2.8,12.5,1.3,22.4s-5.1,20.6,13.2,23.7c14.3,2.4,37.4-9.7,41.5-17.3s3.7-8.8,0.2-16.3
	c-1.9-4.2-9-13.3-9.9-46.8c-0.1-10.5-12.8-18.1-24.8-11.1C1082.8,157.3,1063.7,164.7,1069.5,197.8z"/>
<path class="st22" d="M1091.1,152.4c11.9-6.9,21,3.6,20.4,14c-0.2,3.9-7.3,11.9-10.9,19.7c-6,13-11.8,27.1-29.7,33.4
	c1.2-9.8-1.4-21.8-1.4-21.8C1063.7,164.7,1082.8,157.3,1091.1,152.4z"/>
<path class="st29" d="M1125.8,210.4c0,0,28.4,0.4,43.3,23.9s24.7,96.2,28,128.3s7.8,44.1,9.5,57.7c1.7,13.5,8.1,19.9-12.9,29.2
	c-27.3,12.1-139,29.9-149.3,20.2c-3.3-3.2-7.2-53.6-13.6-64.6c-6.4-11.1-19.6-30.6-20.7-60.4s22.4-106.9,60.9-125.8
	c0,0-13.6,25.2-0.8,29.1C1083,251.9,1113.3,226.7,1125.8,210.4z"/>
<path class="st20" d="M1071,218.9c0,0-17.2,22.5-30.5,52.7c-10.5,23.7-21.5,54.7-21.6,73.4c-0.1,18.6,3.9,46.5,7.9,53.3
	s7,12.6,9.2,25c2.1,12.5,8.5,46.4,8.5,46.4l-8.4-4.2c0,0-6.3-46.9-12.5-59.8c-6.2-12.9-17.4-42.3-19-56.6
	c-1.5-14.3,3.4-47,11.4-62.3s27.8-47.1,33.2-55C1053.7,225.1,1071,218.9,1071,218.9z"/>
<path class="st21" d="M1026.8,398.3c-4-6.8-8-34.7-7.9-53.3c0-9.7,3.1-22.8,7.4-36.4c-6.4,4.6-14.4,8.6-19.9,11.1
	c-1.9,11.4-2.7,22.6-1.9,29.5c1.5,14.3,10,40.9,16.3,53.8c0.6,1.2,1.2,5.6,1.8,7.4c2.1-0.8,6.8-2,8.7-3.7
	C1029.9,403.7,1028.5,401.1,1026.8,398.3z"/>
<path class="st20" d="M1125.4,209.5c0,0-22.6,10.8-32.9,30.4s-11.9,62.9-15.4,88.4s2.2,41.4,5.6,63.9c4.8,32.2,17.7,70.8,19,100.4
	c1.1,23.7,10.7,105.3,10.7,105.3s71.7,1.4,113.5-16.6c0,0-13.8-130.2-18.5-184.5c-8.5-96.4-24.4-149.7-39.7-173.2
	C1159.4,215.9,1149.3,208.5,1125.4,209.5z"/>
<path class="st21" d="M1161.7,293.3c0,0-23.1-52-40.6-49c-8.3,1.4-22.7,9.3-35.6,17.2c-4.4,21.3-5.9,48.6-8.4,66.8
	c-2.9,21.1,0.5,35.6,3.7,52.8c9-6,21.9-15.5,35.5-28.7C1141.4,328.1,1161.7,293.3,1161.7,293.3z"/>
<path class="st19" d="M1160.9,244.6c0,0,20.7,24.3-7.1,53.9c-23.2,24.7-112.2,94.5-133.1,91.7c-20.9-2.9-35.2-23.5-3.2-58.1
	c32-34.6,68-56,92-78.4C1133.5,231.2,1151.9,232.5,1160.9,244.6z"/>
<path class="st20" d="M1164.5,241.2c0,0-23.1-18.3-47.6,1.2c-24.6,19.6-81.7,64.8-98.5,82.9c-16.7,18.2-32.7,37.8-16.9,57.9
	c15.9,20.1,34.8,11,51.8-0.5c17.1-11.6,87.1-63.6,103.8-83.5S1179.9,256.2,1164.5,241.2z"/>
<path class="st9" d="M895.5,383.6c0,0-14.6-26.7,7.4-48.9l32,1.8L911.7,376L895.5,383.6z"/>
<path class="st19" d="M811.3,370.1c3.2-1.3,20.2-8,21.6-8.3c2.3-0.4,7.7-10.9,17.2-11.7c2-0.2,2.1-4.1,1.9-6.1
	c-6.3-1-8.7-0.9-18.7-4.8c0,0,10.9-5.7,15.7-6.1c4.8-0.5,9.3-0.8,19.8,4c10,4.5,34.2,5.3,34.3,5.3c8,0.7,9,2.6,14.4,4.3
	c20.8,6.3,9.4,33.2-16.7,29.6c0,0-12-2.9-18.1-4.3c-5.5,4.3-22.4,22.6-26,24.1c-2.6,1-7.1,1.4-12.1,1.4c-5.7,0.5-13.8,1.1-14.6,1.1
	c-2,0-5-3.8-5-3.8s-5.8,0.6-7.5,0.5c-4.3-0.2-5.1-6.2-5.1-6.2s-7.6-1.3-4.6-8.9c0,0-5.3-1.7-3.4-6.5
	C804.5,373.1,805.3,372.6,811.3,370.1z"/>
<path class="st19" d="M1026.2,391.4c0,0-4.1,4.4-57.3-9.5c-37.8-9.9-82.8-8.8-89-13.9c-10.1-8.3-6.3-18.4,7.4-20.8
	c13.6-2.4,45.9-6.8,90.4-6.9c49.8-0.2,61.7,5.6,66.8,17.4C1053.3,377.9,1043.3,388.2,1026.2,391.4z"/>
<path class="st20" d="M895.5,383.6c0,0,22.8-18.9,7.4-48.9c0,0,105.3-2.8,126.5,6.7c21.2,9.5,25.9,33,18.2,42.2
	c-7.7,9.2-22.2,15.4-48.6,12C972.5,392.1,895.5,383.6,895.5,383.6z"/>
<path class="st23" d="M807.5,380.1c16.1,0,31.4-4.5,35.6-10.1C830.1,375.2,820.3,376.9,807.5,380.1z"/>
<path class="st23" d="M811.9,388.7c25.1-3.3,33.5-0.6,38.9-11.3C841.9,384.1,834.5,384.2,811.9,388.7z"/>
<path class="st23" d="M825.2,394.6c21.6-1,28.4-4.3,30.6-8.1C845,391.4,835.9,391.6,825.2,394.6z"/>
<path class="st7" d="M815.7,359.2c13.8,9.5,24.3-3.7,26.6-5.9c2.3-2.2,9-2.6,13.9-1.6c8.4,2.2,16.2-2.2,12.5-5
	c-3.4-2.3-8.2-3.6-15.7-5.2s-16.4-3.9-22.9-1.3C815.8,345.7,813.3,356.9,815.7,359.2z"/>
<path class="st30" d="M819,361.6c11,2.2,19,0.2,24.7-10C836.6,359.4,829.4,361.4,819,361.6L819,361.6z"/>
<path class="st7" d="M857.6,385.6c-0.6-1.4-2.2-6.6,0.2-8.9c1.2-1.2,5.9,0,5.9,0s-2.5-6.8-0.4-8.1c2.1-1.2,7.1,1.7,7.1,1.7
	s0.9-5.1,3.5-3.9c0.8,0.4,2.3,1.3,4,2.4c1.2,0.8,2.6,1.8,3.8,2.7c0.3,0.3,0.5,0.4,0.7,0.6s0.4,0.4,0.5,0.5c0.3,0.4,0.1,3.6-0.9,4.7
	c-2.1,2.3-4.5,1.5-4.8,1.5c0,0.5-0.9,3.8-1.7,4.6c-1.9,1.7-5.1,2.1-5.4,2c0,0.5-1,5.4-3.1,7.1c-1.4,1.1-4.6-0.2-5.2-0.2
	c-1,0.9-0.5,3.2-2.8,3.9c-0.9,0.3-3.3-0.5-4.6-2.3c-1.3-1.7-0.7-4.3-0.6-4.7C854.3,387.9,857.3,385.9,857.6,385.6z"/>
<path class="st16" d="M870.5,370.3c0.7,1.4,1.9,3.2,2.8,4.5c0.9,1.6,2,3,3.8,3.7l0.1-0.1c-0.6-1.8-1.7-3.1-3-4.4
	c-1.2-1.3-2.4-2.6-3.6-3.9L870.5,370.3z"/>
<path class="st16" d="M863.7,376.9c0.9,1.7,1.8,3.1,2.6,4.3c0.8,1.1,1.9,2.8,3.5,4.1l0.1-0.1c-0.3-2-1.8-3.7-2.4-4.5
	s-2.4-2.5-3.6-3.9L863.7,376.9z"/>
<path class="st16" d="M857.9,386c0.9,1.9,0.9,2.9,2.1,4.7c0.5,0.5,1,1,1.7,1.4l0.1-0.1c-0.1-1.6-0.9-2.7-1.8-3.8
	c-0.9-1.1-1-1.2-1.9-2.3L857.9,386z"/>
<path class="st19" d="M1087.2,62.3c0,0,46.5,3.2,43.8,59.3c-2.6,53.9-48.3,96.6-86,84.2c-12-4.8-19.1-33.1-18.3-75.3
	C1027.6,88.2,1046.2,59.6,1087.2,62.3z"/>
<path class="st22" d="M1054.3,161.2c0,0,2-4,11.8-3.2c7.9,0.7,13.8,2.2,13.4,7.2C1079.6,171.8,1049.5,171,1054.3,161.2z"/>
<path class="st22" d="M1027.3,155.3c0.3,4.1,0.6,7.9,1.1,11.5c5.2-0.6,10.3-2.3,10.3-4.5C1039,157.8,1033.9,156.1,1027.3,155.3z"/>
<path class="st15" d="M1066.1,148.6c-0.2,2.9-2,5.2-4.2,5c-2.1-0.1-3.7-2.6-3.6-5.5c0.2-2.9,2-5.2,4.2-5
	C1064.7,143.2,1066.3,145.7,1066.1,148.6z"/>
<path class="st15" d="M1040.5,146.6c-0.2,2.8-2,5-4,4.9c-2.1-0.1-3.6-2.5-3.4-5.3s2-5,4-4.9C1039.1,141.4,1040.6,143.8,1040.5,146.6
	z"/>
<path class="st12" d="M1037.1,174.3c6,0.9,17.4,1.8,21.7,2c0.8,0.1,1.2,1,0.7,1.6c-1.7,2-5.7,5.2-13.1,4.8
	c-6.3-0.3-9.1-4.6-10.2-7.1C1035.7,175,1036.3,174.2,1037.1,174.3z"/>
<path class="st22" d="M1046.3,189.3c-3.1-0.1-5.4-1.2-5.5-1.3c-0.6-0.3-0.9-1.1-0.6-1.7c0.3-0.6,1-0.9,1.7-0.6
	c0.1,0,3.3,1.6,7.1,0.8c0.7-0.2,1.3,0.3,1.5,1c0.1,0.7-0.3,1.3-0.9,1.5C1048.4,189.2,1047.3,189.3,1046.3,189.3z"/>
<path class="st23" d="M1047,169.2c-1.6,0-4.4-0.3-6.1-1.2c-2.2-1.3-1.3-3.3-0.3-5.6l0.1-0.3c6.1-14,5.7-20,5.7-20.1
	c-0.1-0.7,0.4-1.3,1.1-1.4c0.7-0.1,1.3,0.4,1.3,1.1c0,0.3,0.6,6.6-5.9,21.4l-0.1,0.3c-0.4,0.9-0.8,1.9-0.8,2.3c0,0,0.1,0,0.1,0.1
	c1.2,0.7,4.3,0.9,5.9,0.9c0.7,0,1.2,0.5,1.3,1.2c0,0.7-0.5,1.3-1.2,1.3C1048,169.2,1047.6,169.2,1047,169.2z"/>
<path class="st15" d="M1056.1,132.7c0,0-1.8-0.2-1.9,1.1c-0.1,1.2,0.1,4,0.9,4.3c0.8,0.4,10.1,0.3,13.8,0.5c3.6,0.2,9.4,1.3,9.7,0.9
	c0.3-0.4-1.9-2.8-6-4C1069.2,134.4,1060.9,132.6,1056.1,132.7z"/>
<path class="st15" d="M1027.5,135.6c0,0-1.7,0-1.8-1.1c-0.1-1.4,5.7-3.5,15.6-2.6c2.9,0.4,2.5,3.9,1.7,5.5
	C1042.3,138.9,1038.1,135.9,1027.5,135.6z"/>
<path class="st15" d="M1050.4,95.1c0,0-14.4,4.2-18.6,14.1s-3,24.7-3.9,32s-2,10.3-3.4,15.1s-0.5,7.2,1.3,13.6
	c1.8,6.4-0.7,13.7-5.7,16.2c0,0,5.1-6.9,2.4-13c-2.8-6.1-5.9-10.9-4.1-15.5s5.9-11.2,3.2-18.3c-2.7-7.1-4.3-33.6,3.8-51.7
	c8.1-18.1,35.6-29,48.7-27.6c0,0,29-5.8,46.3,9.1s23.6,34.5,23.5,58.9s-14,52.4-22.4,58.5S1109,198,1108.7,197s-2.6-12.9-2.7-18.8
	c-0.2-12.8-2.2-32.9-4.2-33.9c-1.9-1.1-7.6,11.3-7.1,15s4.3,10.8,1.2,15.8c-3.1,4.9-8.1,6.4-6.9,13.2c1.1,6.7,1.5,14.8-2.4,16.3
	c0,0,1.8-5-0.4-9.4c-2.2-4.4-3.3-10.1-1.3-13.4c2.1-3.3,10.5-10.7,7.7-15.1c-2.8-4.4-6.7-4.9-7.4-14.6c-0.7-9.7,2.2-17.7,0.6-22.1
	c-1.5-4.4-6.6-8.9-15.1-12.2S1054.6,109.6,1050.4,95.1z"/>
<path class="st31" d="M1124.8,73.4c-13.8-11.9-29-15.1-35.9-13.8c0,0,22.2,7.8,27.2,15.7c4.9,8,11.9,30,12,38.6
	c0.1,8.5,0.5,19-1.3,28.3c-1.8,9.2-3.9,17.9-7.3,21.1c-3.3,3.2-8.1-1-12.5-3.4c-1-0.5-1.8-0.7-2.4-0.5c0.6,6.2,1.1,13.3,1.2,18.9
	c0.1,5.8,2.4,17.8,2.7,18.8c0.3,1,4.4-4.4,12.8-10.5s22.3-34.1,22.4-58.5C1143.8,105.9,1138.6,87.7,1124.8,73.4z"/>
<path class="st31" d="M1050.4,95.1c1.2-12.6,11.1-31.9,23.5-35.1C1062.9,65.9,1054.4,83.4,1050.4,95.1z"/>
<path class="st31" d="M1060,86c15.3,6.7,12.4,14.3,20.8,25.6c2.9,4.3,7.7,5.5,11.9,7.7c5.3,3.6,8.8,10.3,8.4,16.8
	c-0.4-5.5-3.4-10.9-7.6-14.2c-5.1-3.5-10.2-3.2-14.2-9C1070.7,101.4,1074.6,94.7,1060,86z"/>
<path class="st31" d="M1070.1,79.6c8.5,1.7,16.8,6.3,21.2,14.2c8,11.3,21.4,22.5,19.3,37.9c0.1-15.2-13-25.2-20.8-36.8
	C1085.7,87.1,1078,82.5,1070.1,79.6z"/>
<path class="st31" d="M1070.4,69.2c14.5-1.3,30.2,2.5,40.1,14c4.9,5.2,9.1,11.3,11.4,18.1c1,3.2,1.7,6.5,1.6,9.9
	c-0.1,1.9-0.1,4.2,0,6.1c0.6,10.5,2.7,21.5-0.4,31.8c2.8-12.7-1.8-25.6-1.4-38.3c-0.6-12.4-8.8-23.1-17.5-31
	C1094.9,71.9,1082.2,69.4,1070.4,69.2z"/>
<path class="st19" d="M1112.7,134.9c0,0,7.5,0.8,7.3,12.9c-0.2,11.6-7.4,24.8-15.7,22.4c-2.6-0.9-4.6-11.2-4.7-20.3
	C1099.5,140.8,1103.8,134.6,1112.7,134.9z"/>
<path class="st23" d="M1106,161.6c-2.9-15.8,5.2-20.1,5.5-20.2c0.4-0.2,0.9,0,1.1,0.4s0,0.9-0.4,1.2c-0.2,0.1-4.5,2.4-5.1,10.3
	c2.4-2.7,6.1-3.1,6.3-3.1c0.5,0,0.9,0.3,0.9,0.8s-0.3,0.9-0.8,0.9c-0.2,0-5.2,0.5-6.5,4.9c0.1,1.4,0.2,2.9,0.6,4.6
	c0.1,0.4-0.2,0.8-0.6,1h-0.1C1106.5,162.4,1106,162.1,1106,161.6z"/>
<path class="st15" d="M1079.4,59.2c0,0,2.1-6.6,14.9-9.6c12.8-3.1,34-1.8,47.8,19.9c13.9,21.7,20.7,61.6,20,79
	c-0.7,17.5-3.4,19.9,1.1,31.4c4.6,11.5,5.7,30.7-0.7,42.4s-30.7,25.4-37.9,37.3c-7.2,12-5.6,32.9-21.5,48.5c-5.2,5.6-13,6.5-13,6.5
	s12.5-15.7,11.4-29.9c0,0-1,4.8-4.4,7.1c0,0,2.7-4.9,0.2-14s-5.1-16.6-3.2-36.3c2.9-30.8,14.1-40.3,18.1-56.2
	c3.9-15.9,18.9-30.3,19.4-54.1c0.3-18.9-4.6-40.5-8.4-49.2C1116.9,67.8,1095.4,58.7,1079.4,59.2z"/>
<path class="st15" d="M1097.5,49c0,0,20.5-4.3,29.4,1.8c9,6,12.3,13.4,18.1,16.3c5.8,2.9,9.3,10.9,8.3,17.9
	c-1,6.9-0.8,12.8,6.1,22.1c6.8,9.3,5,19.2,3.8,27c-1.1,7.7-1.1,10.6,3.2,16.9c4.3,6.3,3.5,12.3,0.6,17.6s-4.8,10.8,0.5,14.8
	c5.3,3.9,7.7,16.7,3.4,20.9c-4.2,4.3-2.4,8.6-2.2,15.6c0.2,7-1.6,16-7.5,15.7s-10.1,4.6-13.4,11s-12.3,13-17.7,13.1
	c-5.4,0.2-6.6,7.4-6.4,16.5s-5.1,36.7-29.1,37.6l13.8-28.7l-12.4-12.2c0,0-6.2-3.1-5.9-10.8c0.3-7.7,2.9-8.7,2.4-11.3
	s-1.3-6.3-0.5-8.9c0.8-2.7,2-3.8,1.7-7.4c-0.3-3.5-1.4-8.3,1.5-11c2.9-2.6,3.2-8.1,3.1-9.8s0.8-6,4-8.7s3.3-7.5,4.4-10.5
	c1-3,2.2-6.8,4.3-9.2s3.6-15.3,9.8-18.4c0,0,17.4-8.3,18.4-26.4s-3.5-65.2-14.5-77.1C1113.5,51.4,1097.5,49,1097.5,49z"/>
<path class="st31" d="M1104.6,64.9c-3.1-3-8.9-5.4-12-6.7c-3.5-1.5-4.8-1.7-0.9-6c1.2-1.4,3.4-2.4,5.8-3.2c-1.1,0.2-2.1,0.4-3.1,0.6
	c-12.8,3.1-14.9,9.6-14.9,9.6C1087.3,59,1096.5,61.1,1104.6,64.9z"/>
<path class="st1" d="M777.9,760.9l-64.2,269.9h13.5l74.7-269.9H777.9z"/>
<path class="st1" d="M814,760.9l7.6,292.9h13.5l7.2-292.9H814z"/>
<path class="st1" d="M878.5,760.9l64.2,269.9h-13.5l-74.7-269.9H878.5z"/>
<path class="st2" d="M889.3,752.6H767c0,0,0,11,0,11.1c0,3,27.4,5.5,61.2,5.5s61.2-2.4,61.2-5.5
	C889.3,763.6,889.3,752.6,889.3,752.6z"/>
<path class="st1" d="M889.3,752.8c0,3-27.4,5.5-61.2,5.5s-61.2-2.4-61.2-5.5c0-3,27.4-5.5,61.2-5.5S889.3,749.7,889.3,752.8z"/>
<path class="st3" d="M838.4,752.6h-20.5c-2.3,0-4.1-1.9-4.1-4.2v-95.8h28.7v95.8C842.5,750.7,840.7,752.6,838.4,752.6z"/>
<path class="st32" d="M1161.7,637.1H494.6l145.1-80h388.6L1161.7,637.1z"/>
<path class="st33" d="M494.6,637.1h667.1v24.7H494.6V637.1z"/>
<path class="st5" d="M969.5,630.8l117.3-14c2.5-0.3,4.4-2.5,4.4-5v-1.4l-132.1-50.2L833,559.9v2c0,2.4,1.4,4.6,3.5,5.6l126.3,62.2
	C964.9,630.7,967.2,631.1,969.5,630.8z"/>
<path class="st34" d="M966,625.4l125.2-14.9l-131.7-55.9c-0.3-0.1-0.6-0.2-0.9-0.2L833,559.9L966,625.4z"/>
<path class="st5" d="M962.6,617.7l101.6-11.1c0.7-0.1,0.8-1,0.2-1.3l-106.1-46.2c-0.4-0.2-0.9-0.3-1.3-0.2l-93.6,4.1
	c-3.2,0.1-4,4.5-1.2,5.9l98.7,48.6C961.4,617.7,962,617.7,962.6,617.7z"/>
<path class="st35" d="M784.1,453.5l-1.7,0.8L837,557.9l129,67.4l4.4-0.5l-59.9-121.6c-0.7-1.3-1.8-2.4-3.1-2.9l-118.5-47
	C787.4,452.7,785.6,452.8,784.1,453.5z"/>
<path class="st4" d="M782.4,454.3L833,559.9l133,65.4l-59-119.2c-1-2-2.6-3.5-4.6-4.3L782.4,454.3z"/>
</svg>
