<?xml version="1.0" encoding="utf-8"?>
<!-- Generator: Adobe Illustrator 25.0.0, SVG Export Plug-In . SVG Version: 6.00 Build 0)  -->
<svg version="1.1" id="Layer_1" xmlns="http://www.w3.org/2000/svg" xmlns:xlink="http://www.w3.org/1999/xlink" x="0px" y="0px"
	 viewBox="0 0 1388.9 1120.1" style="enable-background:new 0 0 1388.9 1120.1;" xml:space="preserve">
<style type="text/css">
	.st0{fill:#FFF5F5;}
	.st1{fill:#B27C60;}
	.st2{fill:#A56C53;}
	.st3{fill:#935B47;}
	.st4{fill:#E4E8F2;}
	.st5{fill:#C6D1E5;}
	.st6{fill:#B6C3DB;}
	.st7{fill:#F6AF9A;}
	.st8{fill:#EA9A88;}
	.st9{fill:#564756;}
	.st10{fill:#4A3A4A;}
	.st11{fill:#F0E9E9;}
	.st12{fill:#FFFFFF;}
	.st13{fill:#FFE7D1;}
	.st14{fill:#DE9681;}
	.st15{fill:#192B4F;}
	.st16{fill:#E57E73;}
	.st17{fill:#A34545;}
	.st18{fill:#B54C4C;}
	.st19{fill:#9E5959;}
	.st20{fill:#E26E5F;}
	.st21{fill:#D15C4D;}
	.st22{fill:#914D4D;}
	.st23{fill:#723333;}
	.st24{fill:#69948A;}
	.st25{fill:#558579;}
	.st26{fill:#E5B8B7;}
	.st27{fill:#D69D9D;}
	.st28{fill:#F7D5D3;}
	.st29{fill:#FFF3E8;}
	.st30{fill:#D38475;}
	.st31{fill:#152545;}
	.st32{fill:#DBA086;}
	.st33{fill:#CE8A72;}
	.st34{fill:#DAE1F2;}
	.st35{fill:#ECF0FA;}
</style>
<path class="st0" d="M64.5,648.6c-99-309.8,50-487.9,273.5-512.6c207.4-23.1,234.5,158.9,342.8,30.5
	c53.4-63.3,213.7-194,446.2-126.1c270.3,78.8,254.1,373.1,182.1,629C1212.8,1011.6,250.4,1230.3,64.5,648.6z"/>
<path class="st1" d="M1185.3,810l19.4,201.1c0.4,5.3-3.7,9.9-8.9,9.9h-5.9c-4.5,0-8.2-3.3-8.9-7.8l-34.6-203.1L1185.3,810
	L1185.3,810z"/>
<path class="st2" d="M1250.5,771.9l38.1,215.8c0.9,5.6-3.3,10.6-8.9,10.6h-5.7c-4.2,0-7.8-3-8.7-7.1l-53.8-219.3H1250.5z"/>
<path class="st2" d="M1094.6,771.9l-38,215.8c-0.9,5.6,3.3,10.6,8.8,10.6h5.7c4.2,0,7.8-3,8.7-7.1l53.8-219.3H1094.6z"/>
<path class="st1" d="M965.3,799.3l-36.8,211.2c-0.8,5.5,3.4,10.5,8.9,10.5h5.7c4.2,0,7.9-3,8.8-7.2l52.4-214.5H965.3z"/>
<path class="st3" d="M1258.2,782c0,0-3.5,28-42.7,32.2s-193,3-232.7-6.6c-39.8-9.5-32.7-36.4-32.7-36.4L1258.2,782z"/>
<path class="st4" d="M1084.6,471.4c0,0-35.1-3-35.1,27.4c0,28.6,0,169.3,0,169.3s5.3,20.9-49.7,31.6c-51.1,10-53.8,31.6-50.3,68.6
	l109.3-42.9V497.6C1058.8,497.6,1058.3,475,1084.6,471.4z"/>
<path class="st5" d="M1264.7,497.6v252.2h-205.8V497.6c0-14.5,11.5-26.2,25.7-26.2H1239C1253.2,471.4,1264.7,483.2,1264.7,497.6z"/>
<path class="st6" d="M1264.7,749.8c0,0,1.2-24.4-53.2-24.4s-152.6,0-152.6,0l-109.3,42.9c0,0-7,15.5,40.3,23.8
	c47.4,8.3,135.6,12.2,155,10.1C1167,799.9,1264.7,749.8,1264.7,749.8z"/>
<path class="st4" d="M1238.9,471.4c0,0,17.5,4.2,17.5,50.7s0,168.1,0,168.1s6.7,27.6-58,35.4c-66.3,7.9-69.3,23.7-69.3,77.4
	c0,0,27.9,3.5,54.2,0.5c26.3-3,83-3.6,88.9-49.5c5.8-45.9-1.2-109.7,0-147.9c0.8-27.5,0.5-85.3,0.2-115.5
	c-0.1-10.7-8.6-19.3-19.1-19.3L1238.9,471.4L1238.9,471.4z"/>
<path class="st1" d="M198.1,810l-19.4,201.1c-0.4,5.3,3.7,9.9,8.9,9.9h5.9c4.5,0,8.2-3.3,8.9-7.8L237,810.1L198.1,810L198.1,810z"/>
<path class="st2" d="M133,771.9L94.9,987.7c-0.9,5.6,3.3,10.6,8.9,10.6h5.7c4.2,0,7.8-3,8.7-7.1L172,771.9H133z"/>
<path class="st2" d="M288.8,771.9l38.1,215.8c0.9,5.6-3.3,10.6-8.8,10.6h-5.7c-4.2,0-7.8-3-8.7-7.1l-53.8-219.3H288.8z"/>
<path class="st1" d="M418.1,799.3l36.8,211.2c0.8,5.5-3.4,10.5-8.9,10.5h-5.7c-4.2,0-7.9-3-8.8-7.2l-52.4-214.5H418.1z"/>
<path class="st3" d="M125.2,782c0,0,3.5,28,42.7,32.2s193,3,232.7-6.6c39.8-9.5,32.7-36.4,32.7-36.4L125.2,782z"/>
<path class="st4" d="M298.8,471.4c0,0,35.1-3,35.1,27.4c0,28.6,0,169.3,0,169.3s-5.3,20.9,49.7,31.6c51.1,10,53.8,31.6,50.3,68.6
	l-109.3-42.9V497.7C324.6,497.6,325.2,475,298.8,471.4z"/>
<path class="st5" d="M118.7,497.6v252.2h205.9V497.6c0-14.5-11.5-26.2-25.7-26.2H144.5C130.3,471.4,118.7,483.2,118.7,497.6z"/>
<path class="st6" d="M118.7,749.8c0,0-1.2-24.4,53.2-24.4s152.6,0,152.6,0l109.4,42.9c0,0,7,15.5-40.3,23.8
	c-47.4,8.3-135.6,12.2-155,10.1C216.4,799.9,118.7,749.8,118.7,749.8z"/>
<path class="st4" d="M144.5,471.4c0,0-17.5,4.2-17.5,50.7s0,168.1,0,168.1s-6.7,27.6,58,35.4c66.3,7.9,69.3,23.7,69.3,77.4
	c0,0-27.9,3.5-54.3,0.5c-26.3-3-83-3.6-88.9-49.5c-5.8-45.9,1.2-109.7,0-147.9c-0.8-27.5-0.5-85.3-0.2-115.5
	c0.1-10.7,8.6-19.3,19.1-19.3L144.5,471.4L144.5,471.4z"/>
<path class="st7" d="M435.1,467.7c0,0,27.1-1.5,36.4,42.7c7.7,36.8,17,209.5,15,237.4c-2,27.9-39.6,42.1-61.2,0.6
	c-30-57.7-49.9-160.9-52.6-204.6C369.8,500.3,390.9,467.1,435.1,467.7z"/>
<path class="st8" d="M372.9,525.8l78.9-13.2c0,0-11.3,40.2-18.1,53.3c-6.1,12-11.4,110.3-19,159.9c-24.7-61-40-144.4-42.3-180.2
	C371.9,538.8,372.3,532.1,372.9,525.8z"/>
<path class="st9" d="M424.4,463.5c0,0,32.2-2.9,40.9,20.7c7.8,21.4,13.9,52.4,19.5,132.2s7.4,107.2,3,129.8
	c-3,15.3-14.9,31.5-28.9,33c-14.1,1.5-25.8-6.7-39.6-38.6c-13.9-31.9-28.3-82.5-35.5-113.2s-14.5-69.1-13.4-99.6
	C371.5,497.3,387.7,467.3,424.4,463.5z"/>
<path class="st10" d="M429.5,570.9c0,0,0.3-21.1-11-33.5l-37.9,76.1c1,4.7,2.1,9.3,3.1,13.8c7.2,30.7,21.6,81.3,35.5,113.2
	c0.2,0.5,0.4,1,0.6,1.4c5.2-13.4,10.8-28.6,14-39.8c7.1-24.8,12.1-130.3,12.1-130.3s8.1-15.3,4.8-33.9
	C450.8,538,441.5,571.6,429.5,570.9z"/>
<path class="st7" d="M485.7,753.9c0,0-26.9,227-30.9,242.3s-27.4,18.3-27.9-6.4s-4.7-74.2-9.2-127.3s2.6-107.5,7.8-128.2
	C433,704.4,487.1,702.3,485.7,753.9z"/>
<path class="st9" d="M464.4,703c0,0,27.9,3.4,24.2,53.4c-3,41.3-22.9,182.1-22.9,182.1s-28.3,3.5-43.9-0.8c0,0-6.8-82.6-8.4-106.1
	c-3.1-42.8,4.7-81.3,8.1-102.3C424.7,708.3,449,699.3,464.4,703z"/>
<path class="st10" d="M430.6,712.4c-4.7,4.3-8.1,9.9-9.2,16.9c-0.6,3.5-1.2,7.4-1.9,11.8c0.1,0.3,0.2,0.6,0.4,0.8
	C423.6,732.3,427.5,721.7,430.6,712.4z"/>
<path class="st7" d="M448.8,962.3c0,0,9.1,1.4,7,19c-1.4,12,14.7,31.6,27.5,41.8c4.1,3.3,6.6,5.3,9.4,6.9
	c11.6,6.6,18.2,10.5,15.7,16.4s-32.8-0.8-42.1-4.4c-9.3-3.5-16.4-15.2-32.2-18.8c-15.8-3.6-20.6-9.6-20-16.8
	c0.9-11.2,13.2-20.5,16.3-33.6C433.6,959.9,442.2,959.9,448.8,962.3z"/>
<path class="st9" d="M414.1,1022.7c0,0,2.3,7.6,4.1,14.1s2.4,16.7,2.4,16.7s2.4,1.1,4.1-0.2c0,0,0-10.2,0.2-15s1.4-12.5,1.4-12.5
	S417.8,1021.1,414.1,1022.7z"/>
<path class="st9" d="M413.8,1016.3c0,0,0.1,5.4,0.4,6.9c0.3,1.6,17.7,5.4,24.9,9.1c7.2,3.7,18.4,9.6,21.7,13.6
	c3.4,4,11.8,7.7,17.7,8.5s26.5,0.9,41.2-6.5l-54.5-9.5l-34.4-19.4L413.8,1016.3z"/>
<path class="st11" d="M485,1024.3c0,0-5.3,6.1-12,8.9c-6.7,2.8-18.4-4.7-26.5-10.2c-8.1-5.5-23.3-24.8-25.3-32.1
	c0,0-9.7,9.1-8.1,24.3c0.3,5.5,11.4,8.5,18.9,10.9c7.5,2.3,25.1,12.4,28.5,16.2c3.4,3.8,8.7,11,39.8,9.2c9.9-0.6,20.1-3.7,20.1-3.7
	S503.3,1033.5,485,1024.3z"/>
<path class="st7" d="M468.5,460.9c0,0,1.7,27.6,0.8,45.7c-0.9,18.1-9.8,36.3-23.9,54.5c-13.3,17.4-39.8,28-66.1,25
	s-58.7-2.8-64.2-32.2c-5.5-29.5,10.2-64.8,22.1-79.5s16.1-17.2,20.8-31.1C362.7,429.2,467.2,407.1,468.5,460.9z"/>
<path class="st9" d="M470,457.4c0,0-86.1,4.4-113.4-10.4c0,0-8.2,10.5-16.5,19.8s-22.1,29.9-26.1,60c-4,30.1,10.1,47.6,14,53.7
	c3.8,6.1,21.1,11.8,40.2,12.5c18.2,0.7,51.5-3.1,71.2-22.4c19.8-19.3,29.7-48.4,31.7-61C472.9,496.8,470,457.4,470,457.4z"/>
<path class="st10" d="M439.3,570.5c4.3-4.2,8-8.8,11.4-13.6c0.9-5.4,1.3-11.9,0.1-18.9c0,0-9.3,33.6-21.3,32.9c0,0,0.3-21.1-11-33.5
	l-26.9,54C408,588.9,426.5,583,439.3,570.5z"/>
<path class="st10" d="M344.5,461.7c3.5-9.7,6.6-18,6.6-18c27.4,14.9,119,13.6,119,13.6s0.3,4.7,0.7,11.3
	C452.3,475.2,403.1,487.6,344.5,461.7z"/>
<path class="st7" d="M367,496c0,0,43.8-2.9,51.6,41.4c7.8,44.4-12.6,190.2-20.8,216.1c-8.2,25.8-48.6,38.1-60.3-14.1
	s-23.3-100.8-21.3-194.2C316.2,543.2,322.3,498.2,367,496z"/>
<path class="st9" d="M372.3,486.9c0,0,33.3,2.5,46.1,34.2c12.9,31.7-1.6,145.7-2.9,162.4s-7.4,54.5-12,69.8
	c-5.1,17-19.7,31.5-38.6,30.7s-28.7-14.9-37.6-57.4c-8.9-42.4-7.1-56.2-9.8-81.1c-2.7-25-5.9-80.5-3.5-103.2
	C316.4,519.5,334.9,486,372.3,486.9z"/>
<path class="st7" d="M396,777.5c0,0-65.2,208.3-71.7,222.6s-30.1,13.2-26.4-11.2s4.3-59.4,8.9-112.4c4.6-53.1,20.7-105.5,29.3-125
	C348.5,723.4,406.1,726.9,396,777.5z"/>
<path class="st9" d="M379.7,727.5c0,0,28.7,10,18.4,50c-10.3,40.1-57,182.2-57,182.2s-28.5-1.5-43.2-8.5c0,0,7.3-82.5,9.6-106
	c4.2-42.7,18.4-79.2,25.3-99.4C339.7,725.8,365.2,721.2,379.7,727.5z"/>
<path class="st7" d="M320.3,971.6c0,0,8.9,2.4,5,19.7c-2.6,11.8,11.5,33,23.2,44.5c3.7,3.7,6,6,8.6,7.9c10.8,7.8,17,12.4,13.9,18
	s-32.5-4.3-41.4-8.8s-14.8-16.8-30.1-22.1c-15.3-5.3-19.5-11.7-18.2-18.8c2-11,15.2-19,19.7-31.7C305.4,967.6,314,968.5,320.3,971.6
	z"/>
<path class="st9" d="M279.7,1028c0,0,1.5,7.8,2.7,14.4s0.7,16.9,0.7,16.9s2.3,1.3,4.1,0.2c0,0,1-10.2,1.7-14.9
	c0.7-4.8,2.6-12.3,2.6-12.3S283.6,1026.8,279.7,1028z"/>
<path class="st9" d="M280,1021.6c0,0-0.5,5.3-0.3,6.9s17,7.2,23.8,11.7s17.3,11.5,20.3,15.8s10.9,8.9,16.7,10.3
	c5.8,1.5,26.2,3.6,41.6-2.1l-53.3-15.1l-32.2-23L280,1021.6z"/>
<path class="st11" d="M350,1037c0,0-5.9,5.5-12.8,7.6s-17.8-6.6-25.3-12.9c-7.5-6.3-20.6-27.1-21.9-34.6c0,0-10.6,8-10.5,23.3
	c-0.3,5.5,10.5,9.7,17.7,12.8c7.3,3.1,23.7,15,26.7,19.1s7.6,11.8,38.7,13.3c9.9,0.5,20.4-1.5,20.4-1.5S367.4,1048.1,350,1037z"/>
<path class="st7" d="M407.8,253.4c0,0,12.6-22.8,45.9-6.2s103.8,98.9,109.6,107.7c6.4,9.7-0.1,31.7-21.8,24.1
	c-21.7-7.5-110.2-81.2-121-87.1C409.8,286,398.9,271.8,407.8,253.4z"/>
<path class="st12" d="M451.8,238.1c0,0,11.6,1.9,18.9,9.3c6.7,6.8,61,60.2,78.5,81.1s26.6,35.7,15.3,48.6s-34,0.2-40.1-3.9
	c-6-4.1-94.9-69.9-109.7-82.6s-15.3-35.6-4.4-44.5C421.2,237.1,444.3,233.6,451.8,238.1z"/>
<path class="st13" d="M486.3,345.1c0.1-9.9-2-24.4-11.8-43l-16.2-48.6c0,0,6.2,1,9.5,4.5c0,0-1.9-9.8-13.4-19.3
	c-1.6-0.4-2.7-0.6-2.7-0.6c-7.5-4.5-30.5-1-41.4,8c-6.2,5.1-8.7,14.9-6.9,24.7c6.8,5.2,15.4,9.9,25.8,12.5c0,0-4.3-11.7,3-19
	c0,0,33.8,37,37.3,41.1c3,3.5,10.2,22.4,11.5,35.9C482.8,342.5,484.6,343.8,486.3,345.1z"/>
<path class="st13" d="M439.9,310.3c24.2,18.5,58.3,43.8,74.9,55.9c1.9-6.5,4.3-26.6,1.4-39.5c-3.4-15.5-18.6-30.4-29.3-47.8
	c-5.2-8.4-17.9-21.1-17.9-21.1S440.7,286.8,439.9,310.3z"/>
<path class="st14" d="M557.8,383.8c0,0,10.1,2.4,23,3c41.6,1.8,108.2,0.6,114-0.4c7.7-1.3,21.7-19.6-3.4-23.1
	c-25.1-3.5-54-10.2-75.9-14.6c-25.2-5-57.2-10.1-67.1,1.6S545.3,383.2,557.8,383.8z"/>
<path class="st7" d="M660.6,360.8c2.6,0.2,5.5,0.7,8,1.1c3.2,0.6,6.3,1.1,9.5,1.4c11-4.4,19.5-10.2,21.2-10.7c2.8-0.8,10.3,0,10.3,0
	c1.2,2.9,30.3,15.6,34.5,16.6c0.2,0,0.4,0.1,0.5,0.1c-2.8,12.9-6.7,24-15.6,33.6c-16.2-5.2-46-15.4-48.8-16.2v-0.1
	c-2.9,0-11.5,0.8-20.4,0.3C650.9,386.2,654.1,360.3,660.6,360.8z"/>
<path class="st12" d="M680.3,361.6c0,0-7.2,13.1-2.4,25.8c0,0-7.1,2-19,3s-100.1-2-112.7-8.1c-12.7-6.1-17.4-29-5.8-38.8
	s14.5-5.5,36.4-3.1c7.1,0.8,89.6,17.5,93.9,18.3C674.9,359.3,680.3,361.6,680.3,361.6z"/>
<path class="st7" d="M419.6,183.7c0,0,0.8,38.7-21,61.6c-2.5,2.7,18.8,18.6,36.7,16.5s25.5-9.7,26.1-19.7s-0.4-21.1,4-39.2
	c4.4-18.2-4.1-33.5-19.7-37.2C427.3,161.4,420.3,175.1,419.6,183.7z"/>
<path class="st8" d="M421.5,186.7c0.8-8.6,5.8-25.3,24.2-20.9c15.5,3.7,24,19,19.7,37.2c-3,12.5-3.2,23.8-3.8,32.1
	C425,225.5,430.2,208.8,421.5,186.7z"/>
<path class="st7" d="M459,237.8c0,0,10.2,9.4,15.6,23.1c5.3,13.5,15.5,38.2,23.3,55.7c7.7,17.5,12.2,47.3-9.6,61
	c-1.9,2.5-2.7,7.3-4.1,15.1c-1.4,7.7-4.1,18-7.6,23.6c-0.3,4.3-7.8,21-9,38.3s-104.3,16.6-110.8-12.9c0.3-4.3,7.1-23.4,3.5-51
	s-9.2-77.1-5.8-101.6s29.7-44.7,45.1-50.6C415,232.4,436.3,227.1,459,237.8z"/>
<path class="st12" d="M506.5,335.6c-7.4-29.8-13-38.7-21.1-57c-10.5-24-17.4-34.2-24-38.4c0,0,6.5,10.1,4.2,18.5l4,48.1l-26.3-44.9
	c-35.6-15.6-37.7-25.9-37.7-25.9l-34.3,8.9c0,0-10.7,11.5-14.1,19.6c0,0-13.1,33.7-4.6,90c8.6,56.3,3.7,63.7,1.3,70.7
	s-14,18.7-4.4,26.5c9.7,7.8,81.5,24.9,116.8,12c9.6-2.9,9-6.3,10.9-22.5c1.9-16.1,12.2-44.7,13.1-58.3
	C490.5,382.9,513.9,365.5,506.5,335.6z"/>
<path class="st13" d="M461.4,384.8c-0.3,3.2-11.6,70-13.8,82.9c2.6-0.3,5.1-0.6,7.5-1c1.9-15,10-77.7,11.5-81.9
	c1.7-4.8,7-17.3,9.6-26.8c2.5-9.5,4.1-24.8-2-46.6l-5.5-51c0,0,5.8,2.3,8.3,6.5c0,0,0.1-4.5-2.6-11c-4.9-8.7-9-13.2-13-15.7
	c0,0,6.5,10.1,4.2,18.5l4,48.1l-26.3-44.9c-35.6-15.6-37.7-25.9-37.7-25.9l-9.1,2.4c2.5,7.6,12.1,32.1,37.5,44.6
	c0,0-1.7-12.4,6.9-17.9c0,0,25.1,43.6,27.7,48.3c2.6,4.8,6.2,30.8,2.6,43.3S461.7,381.3,461.4,384.8z"/>
<path class="st13" d="M398.3,342.3c-9.2,21.9-22.1,75.7-15.3,82.3c14.2,13.9,34.3,40.4,93,27.5c-1.1,7.1-2.7,9.4-9.6,11.6
	c-35.3,12.9-107.2-4.2-116.8-12s2-19.5,4.4-26.5s7.3-14.5-1.3-70.7c-4.6-30.2-2.6-51.8,0.2-65.3c33.5-5.2,51.7-6.1,51.7-6.1
	S407.5,320.4,398.3,342.3z"/>
<path class="st13" d="M490.4,382.8c-4.7,1.3-9.8,1.3-14.3,3.5C480.1,387.8,487,384.6,490.4,382.8z"/>
<path class="st13" d="M451.5,384.7c0,0-25.1,13.8-56.1-6.3C395.4,378.4,426.4,389.4,451.5,384.7z"/>
<path class="st7" d="M437.5,81.8c0,0-46.9,4.4-42.8,60.9c3.9,54.4,51,96.4,88.8,82.9c12-5.1,18.5-33.9,16.7-76.5
	C498.3,106.5,478.9,78,437.5,81.8z"/>
<path class="st8" d="M473.8,179.6c0,0-2.1-4-11.9-2.9c-8,0.8-13.9,2.6-13.4,7.6C448.5,190.9,478.8,189.4,473.8,179.6z"/>
<path class="st8" d="M488.2,180.4c0,2.4,5.8,3.9,11.3,4.4c0.4-3.7,0.6-7.7,0.8-11.8C493.2,173.8,487.7,175.7,488.2,180.4z"/>
<path class="st15" d="M459,167.9c0.2,2.9,2.2,5.2,4.4,5s3.7-2.7,3.5-5.7c-0.2-2.9-2.2-5.2-4.4-5S458.8,165,459,167.9z"/>
<path class="st15" d="M486.7,164.8c0.2,2.8,2.1,5,4.2,4.8s3.6-2.6,3.4-5.4c-0.2-2.8-2.1-5-4.2-4.8C488,159.6,486.5,162,486.7,164.8z
	"/>
<path class="st16" d="M479.9,188.7c1.6-0.1,4.5-0.4,6.1-1.4c2.2-1.3,1.3-3.3,0.2-5.6l-0.1-0.3c-6.5-14-6.2-20.1-6.2-20.2
	c0-0.7-0.5-1.3-1.1-1.4c-0.7,0-1.3,0.5-1.3,1.2c0,0.3-0.5,6.7,6.4,21.5l0.1,0.3c0.4,0.9,0.9,1.9,0.9,2.3c0,0-0.1,0-0.1,0.1
	c-1.2,0.7-4.3,1-5.9,1c-0.7,0-1.2,0.6-1.2,1.3s0.6,1.3,1.3,1.3C478.9,188.8,479.3,188.8,479.9,188.7z"/>
<path class="st17" d="M468.7,151.6c0,0,1.8-0.2,1.9,1s-0.1,4-0.8,4.4c-0.8,0.4-10.2,0.6-13.9,0.9c-3.7,0.3-9.4,1.5-9.7,1.1
	s1.8-2.8,5.9-4.2C455.6,153.6,463.9,151.6,468.7,151.6z"/>
<path class="st17" d="M499.5,153.4c0,0,1.8,0,1.8-1.1c0.1-1.4-5.8-3.4-15.8-2.2c-2.9,0.5-2.4,4-1.6,5.6
	C484.7,157.1,488.8,154,499.5,153.4z"/>
<path class="st8" d="M481.7,205.2c-2.8,0-4.9,0.9-5,1c-0.6,0.3-0.8,0.9-0.6,1.5c0.3,0.6,0.9,0.8,1.5,0.6c0.1,0,3-1.3,6.4-0.4
	c0.6,0.2,1.2-0.2,1.4-0.8s-0.2-1.2-0.8-1.4C483.5,205.3,482.6,205.2,481.7,205.2z"/>
<path class="st12" d="M489.7,194.6c-6,0.9-17.1,1.7-21.4,2c-0.8,0-1.2,1-0.6,1.6c1.7,1.9,5.7,5.1,12.9,4.7c6.2-0.3,9-4.6,10.1-7
	C491,195.3,490.5,194.5,489.7,194.6z"/>
<path class="st18" d="M384.4,166.2c0,0-10.8-1.7-12.1,12.2c-0.6,6.1-4,5.3-3.1,11.3c1,6,1.2,4.7,2.5,9.3c1.2,4.7,1.6,10.7,6.9,12.1
	s6.8,3.7,10.6,5.5c3.7,1.8,9.4,1.2,11.6-0.6s5.3-0.1,7.1-4.7C407.9,211.4,400.3,173,384.4,166.2z"/>
<path class="st17" d="M389.7,193.7c-6-4.4-7.5-15.5-6.5-27.4L389.7,193.7z"/>
<path class="st18" d="M473.9,107.3c0,0,16.1,10.6,20.6,20.5c4.5,9.9,3.6,24.8,4.7,32.2s2.3,10.4,3.8,15.2s0.7,7.2-1,13.7
	c-1.6,6.5,1.1,13.8,6.2,16.2c0,0-5.3-6.8-2.7-13c2.7-6.2,5.7-11.1,3.8-15.8c-1.9-4.6-6.2-11.2-3.6-18.4s3.5-34-5.1-52.1
	S464,77.4,450.8,79.1c0,0-29.5-5.1-46.5,10.3s-23,35.4-22.4,60.1c0.6,24.6,5.1,44.3,12.8,54.3c6.4,8.3,19.8,12.6,20.1,11.6
	s4.2-6.6,7.1-21.6c2.5-12.6,0.9-27.8,2.8-28.9c1.9-1.1,8,11.2,7.5,15c-0.5,3.7-4.1,11-0.8,15.9c3.2,4.9,8.3,6.3,7.3,13.1
	s-1.2,14.9,2.9,16.4c0,0-1.9-5,0.2-9.5s3.1-10.3,0.9-13.6s-10.8-10.6-8.1-15.1s6.7-5.1,7.2-14.9c0.5-9.8-2.6-17.8-1.2-22.3
	s6.5-9.1,14.9-12.6C464.1,133.8,470.1,122,473.9,107.3z"/>
<path class="st17" d="M473.9,107.3c-1.5-12.7-10.5-25.2-23-28.1C462.1,84.8,469.7,95.5,473.9,107.3z"/>
<path class="st17" d="M465.5,105c-15.3,7.1-12.2,14.8-20.4,26.3c-2.8,4.4-7.6,5.7-11.8,8.1c-5.3,3.8-8.7,10.6-8.1,17.2
	c0.3-5.6,3.2-11.1,7.4-14.6c5-3.7,10.2-3.5,14.1-9.4C455.1,120.8,451,114.1,465.5,105z"/>
<path class="st17" d="M455.2,98.8c-8.5,2-16.8,6.8-21.1,14.8c-7.8,11.6-21,23.2-18.6,38.7c-0.5-15.3,12.5-25.8,20.1-37.7
	C439.6,106.8,447.3,101.9,455.2,98.8z"/>
<path class="st17" d="M454.7,88.4c-14.7-1-30.4,3.3-40.2,15.1c-4.8,5.4-8.9,11.6-11.1,18.6c-1,3.2-1.6,6.6-1.4,10
	c0.2,1.9,0.2,4.3,0.1,6.2c-0.4,10.6-2.3,21.7,1.1,32.1c-3.1-12.7,1.3-25.9,0.5-38.7c0.3-12.5,8.3-23.5,17-31.8
	C430,91.6,442.7,88.8,454.7,88.4z"/>
<path class="st7" d="M416.4,161.5c0,0-5.8,1.6-4.3,11.1c1.5,9.2,8.7,18.7,14.9,15.8c2-1.1,2.3-9.4,1.4-16.6
	C427.4,164.6,423.3,160.2,416.4,161.5z"/>
<path class="st16" d="M424.8,181.8c0.4-12.8-6.4-15.2-6.7-15.3c-0.4-0.1-0.7,0.1-0.8,0.4c-0.1,0.4,0.1,0.7,0.4,0.9
	c0.2,0.1,3.8,1.4,5.2,7.5c-2.2-1.9-5.2-1.7-5.4-1.7c-0.4,0-0.7,0.3-0.6,0.7c0,0.4,0.3,0.7,0.7,0.6c0.2,0,4.2-0.2,5.7,3.1
	c0.1,1.1,0.1,2.3,0.1,3.7c0,0.3,0.2,0.6,0.6,0.7h0.1C424.4,182.4,424.7,182.1,424.8,181.8z"/>
<path class="st7" d="M381.4,250.6c0,0,33.6,6.5,19.1,56.2c-14.5,49.6-58.8,131.9-77.3,135.3c-20.6,3.7-21.1-14.2-15.7-32.8
	s35.1-125.7,40.7-135.1C353.9,264.8,363,247.8,381.4,250.6z"/>
<path class="st12" d="M373.7,244.5c0,0-12.8,0.3-23.4,21.5s-47.9,141.7-48.7,156.3c-0.8,14.6,5.8,22.9,15.9,24.7
	c10.1,1.8,22.3-6.8,32.1-20.3s34.8-72.6,48.3-104.6C413.4,285,411.3,244.2,373.7,244.5z"/>
<path class="st7" d="M333.1,593.4c2.6-2,1.2,11.5,3.2,18.9c2,7.5,4.7,10.1,6.6,8.3c1.9-1.7,0.3-10.7,0-18.1
	c-0.3-7.4,2.5-21.8,1.7-30.3s-9.2-23.1-9.2-23.2c-1.6-9.1-10.9-6.9-11-6.8c-3.5,1.1-7.5-0.1-7.5,10.8c0,10.4-4.5,20.6-5,22.6
	c-1.4,5.1-9.7,22.2-9.1,25.5c0.6,3.2,9.2,24.1,10.9,25.9c1.7,1.8,10.3,7.5,12.1,8.7s7.6,6,9.2,7.3c1.6,1.2,3.8,1.4,4.4-2.1
	c0.5-3.5-10.7-21.8-11.8-26.1c-0.2-1,0.2-4.8,1-9.9C329.6,598.2,330.5,595.4,333.1,593.4z"/>
<path class="st7" d="M333.9,640.7c0,0-4,4.8-10.6-2c0,0-4.2,3.1-9.3-6.5c0,0-4.3-0.4-6.2-5.3c-1.3-3.2-7.2-18.7-7.8-22.3
	s10.6-25.2,10.6-25.2l12.1,39L333.9,640.7z"/>
<path class="st16" d="M333.1,641.5c-3.4-6.2-6.8-12.7-10.3-18.9c-2.7-5.7-3.4-12-4.5-18.3h-0.2c-0.7,6.9,0.1,14.3,4.1,20.1
	c3.5,5.6,6.8,10.9,10.3,16.4L333.1,641.5z"/>
<path class="st16" d="M314,632.3c-2.8-9.1-6.6-18-8.7-27.3h-0.2c-0.7,4.8,0.8,9.9,3,14.1c1.7,3.9,3.7,8.6,5.5,12.4L314,632.3z"/>
<path class="st16" d="M323.3,638.8c-5.8-10.4-9.7-21.6-12.6-33.2h-0.2c-0.2,12.3,5.8,22.3,12.2,32.3L323.3,638.8z"/>
<path class="st7" d="M325.3,410.8c0,0,11.1-0.1,16.2,15.9c3.8,11.9,6.6,48.1,2.6,75.8c-4,27.8-4.8,58.8-6.5,70.3
	s-15.9,11.7-20.1-6.9c-4.2-18.7-15.2-123.6-14.2-135.3C304.4,418.8,312.3,410.6,325.3,410.8z"/>
<path class="st12" d="M315.5,553.8c0,0,14.5-9.9,23.8,1.3c0,0,3-6.1,3.9-16c0.5-5.2,5.5-68.4,5.8-81.9c1.1-43.3-2.1-50.5-17.1-56.6
	s-27.8,16.4-29.7,24s1.1,64.3,3.3,81C308.8,532.4,315.5,553.8,315.5,553.8z"/>
<path class="st19" d="M944.8,239.5c0,0-31.8-12.8-45.6,37.1s-19.5,143.6-5.5,156.5c15.5,14.4,25.3-0.5,30.5-19.2
	s36.3-125.4,36.4-136.4S961.9,247.2,944.8,239.5z"/>
<path class="st20" d="M954.6,238.5c0,0,10.6,7.2,8.5,30.9S929.3,415.3,922.4,428c-7,12.7-16.9,16.2-26.4,12.2
	c-9.4-4-15.2-17.9-16.5-34.7c-1.3-16.8,8.6-80.3,14.1-114.7C899.8,251.1,922.9,217.8,954.6,238.5z"/>
<path class="st21" d="M936.1,295.9c6-29.6-18.1-46.5-18.1-46.5s-13.5,21.6-21.7,28.3c-1.1,4.3-2.1,8.7-2.8,13.2
	c-1.4,9-3.1,19.9-4.9,31.5C904.7,324.5,931.3,319.2,936.1,295.9z"/>
<path class="st9" d="M806.4,515.5c0,0,13.3,24.1,42.5,25.7l1-18.2l-28.5-17.8L806.4,515.5z"/>
<path class="st19" d="M908.3,405.5c0,0-9.4-6.1-22,4.6c-9.4,8-30.8,37-42,62.7s-26.8,52.3-31.4,62.9c-4.6,10.6,7.3,18.6,20.6,5.1
	s77.7-96.1,82.9-106.6C921.8,423.7,919.4,412.4,908.3,405.5z"/>
<path class="st19" d="M840.1,517c-0.1-0.1-6.8-7-12.9-0.2c-0.1,0.1-17.9,7.9-23,14.7s-7.1,18.2-11.3,24.2s-12.3,9.6-11.7,12.1
	c0.7,2.5,7.8,0.7,12.8-1.6c6.9-3.3,10.8-13.8,11.9-10.7c1.2,3.1,0.4,6-2.3,12.2c-2,4.7-21.1,13.4-22.5,16.7s0.6,4.4,2.6,4.2
	c0.5,0,1.4-0.2,2.5-0.3c0.7,1.7,3,4.6,9.7,3c0,0,1.9,4.9,11.3-0.4c0,0,3.8,2,8-1.1c2.8-2,11.6-8.8,13.9-11.5
	c2.4-2.7,5.3-25.7,5.5-26.6c0.6-2,3.6-12.2,9-21.1C849.4,521.6,842.5,519.9,840.1,517z"/>
<path class="st22" d="M831.4,542.7c-0.1-2.8-10.3-10-10.3-10s1,7.2-5.5,12.4s-8.7,7.4-10.2,9.8l0,0c0.3,0,0.5,0.1,0.7,0.5
	c1.1,3.1,0.4,6-2.3,12.2c0,0.1-0.1,0.2-0.2,0.4c1.8,0.4,5.7,1.2,8.5,2c3.8,1,8.7,1.9,11.3,1.7c2.5-0.2,4.6-5.3,5.9-10
	C830.5,557.2,831.6,545.5,831.4,542.7z"/>
<path class="st23" d="M805.3,555c0,0,3.5-5.4,7.9-8s8.1-9.6,7.9-14.2c0,0,0.5,5.6-1.9,10.1S807.7,551,805.3,555z"/>
<path class="st23" d="M786.2,588.4c1.2-2.1,2.5-4,4.4-5.5c3-1.8,6-3.5,8.9-5.4c1.4-0.9,3-1.8,4.5-2.5l0.8-0.4
	c1.2-0.6,2.2-1.5,3.1-2.7c0-0.1,0.2,0,0.2,0.1c-0.3,1.5-1.3,2.9-2.5,3.8c-2.4,1.9-5.5,3.5-8.2,4.8c-1.5,0.8-3.1,1.6-4.7,2.3
	c-0.4,0.2-1.1,0.5-1.5,0.7c-1.9,1.2-3.4,3-4.7,4.8c0,0-0.1,0.1-0.1,0C786.2,588.5,786.2,588.4,786.2,588.4z"/>
<path class="st23" d="M795.9,591.4c1.1-2.1,2.4-4,4.3-5.5c0.9-0.7,1.8-1.4,2.7-2c1.6-1.2,3.9-2.8,5.4-4.1c1.7-1.4,3.6-2.5,5.1-4.1
	c0.8-0.8,1.4-1.7,2.1-2.6c0,0,0.1-0.1,0.1,0v0.1c-0.2,1.2-0.6,2.3-1.3,3.3c-1.2,2-3.2,3.5-5.1,4.8c-2.7,1.7-6,3.8-8.7,5.4
	c-1.8,1.2-3.3,3-4.6,4.8c0,0-0.1,0.1-0.1,0C795.8,591.5,795.8,591.4,795.9,591.4z"/>
<path class="st23" d="M807.1,591.1c0.4-1.5,1.1-2.9,2.1-4.1c1-1.1,2.1-2.1,3.2-3.2c1.3-1.2,3-3,4.2-4.3c1-1.1,2.2-2,3.3-3
	c1.1-0.9,1.8-2.1,2.2-3.5c0-0.1,0.2-0.1,0.2,0c0.2,1,0,2.2-0.4,3.2s-1.2,1.8-1.9,2.5c-1.4,1.4-3,2.6-4.5,3.9c-1.6,1.3-3.6,3-5.2,4.3
	c-1.3,1-2.3,2.5-3,4.1L807.1,591.1L807.1,591.1z"/>
<path class="st20" d="M848.9,541.1c0,0-22.4-28.8-42.5-25.7c0,0,47.9-79.6,54.7-91.2c21.8-37.2,31.1-34,46.9-31s14.9,29,12.6,36.5
	C918.3,437.3,848.9,541.1,848.9,541.1z"/>
<path class="st21" d="M908.1,393.3c-15.7-3-25-6.1-46.3,29.9c5.9-1.2,14.7-1.9,21.7,1.6c7.7,3.9,7.1,35.1,5.8,55.1
	c15.7-24.1,30.3-46.9,31.3-50.2C923,422.3,923.9,396.3,908.1,393.3z"/>
<path class="st20" d="M893.2,392.8c0,0,7.8,48.2,6.6,73.9c-1.2,25.6-19.4,102.2-19.4,102.2l89.3,14l-19-198.3L893.2,392.8z"/>
<path class="st19" d="M968.9,484.8c0,0-55-3.9-64.7,71c-9.1,70.1-21.8,170.5-3,202.3c4.9,9.5,40.4,31.4,59.3-3.9
	c18.9-35.4,40.1-93.5,50.1-127.7C1020.6,592.4,1045.3,491.5,968.9,484.8z"/>
<path class="st24" d="M974.8,483.8c0,0-34.2-31.6-54.7,7.1c-4.8,9-16.4,54.5-21.5,97s-8.9,100.6-6.2,173.8
	c1.3,33.8,9.8,33.4,38.2,36c25.1,2.4,37.6-54.3,42.4-65.3c0,0,40.3-84.1,49.1-152C1031,512.4,1009.9,488.7,974.8,483.8z"/>
<path class="st25" d="M966.5,549c0,0-10.3,30.4-14.5,33.8c-4.2,3.4-23.6-37.6-23.6-37.6s5.2,31.4,7.3,45.9
	c2,14.5-0.7,120.6,3.4,158.7c0.9,8.1,2.4,23.9,4.4,43.6c16.7-13.1,25.6-52.1,29.5-61c0,0,40.3-84.1,49.1-152c0.7-5,1.1-9.8,1.5-14.3
	C992.6,555.8,966.5,549,966.5,549z"/>
<path class="st26" d="M979.3,1028.4l1,22.6c0,0.2-0.1,0.5-0.3,0.6c-1.5,0.8-8.4,3.9-24,3.4l-0.8-19.6L979.3,1028.4z"/>
<path class="st27" d="M956,1055l-9.6-3.8c-0.3-0.1-0.5-0.4-0.5-0.7l-0.6-14.7l9.9-0.4L956,1055z"/>
<path class="st26" d="M978.5,1015.3c0,0-1.5-3.3-12,1.7s-50.2,20.2-61.8,24.7s-30.5,2.5-39.2,1.5c-8.7-0.9-17.6-1.5-17.1,1
	c0,0,3.4,5.3,18.2,6.7c14.8,1.4,34.2,3.2,56.6-8.5C945.5,1030.6,980.1,1028.2,978.5,1015.3z"/>
<path class="st28" d="M978.5,1015.3c0,0,2.3,3.2,2.1,10.8c0,1.3-0.8,2.4-2,2.8c-4.8,1.8-18.2,7.6-33.2,11.4
	c-15.6,3.9-26.1,10.1-31.4,13.1c-2,1.1-4.2,1.9-6.5,2.1c-10.4,1.3-30.9,4.2-55.6-1.4c-1.6-0.4-2.9-1.7-3.1-3.4
	c-0.2-1.5-0.4-3.6-0.4-6.5c0,0,19.5,8.4,44.1,4.8c24.6-3.5,28.1-10.2,56.9-18.4C978.2,1023.3,978.4,1018.3,978.5,1015.3z"/>
<path class="st19" d="M969.1,956.9c0,0-1.8,11.4,0.3,22.9c2.7,14.2,12.1,29.5,3.5,39.2c-8,9-23.4,7.1-43,15.9s-22.6,15.1-55.1,15.3
	c-13.9-1.1-22.2-0.8-22.2-11.3c0-8.1,9.1-12.8,18.1-14.5c8.1-1.5,18.3-7.1,35.8-21.5c19.6-16,26.1-21.1,25.3-30.3
	c-0.6-6.8-1.3-13.8-1.9-20.1c-0.7-8.3,5.9-16.3,19.4-17.5C962.2,933.9,970.3,941.4,969.1,956.9z"/>
<path class="st28" d="M914.5,1044.8c0,0-8.8-5.3-12.2-10.6c-5.3-8.3-9.6-15.8-12.8-18.5c-0.4-0.3-0.9-0.4-1.4-0.2
	c-3,1.2-7,5.5-20.3,9c-14.1,3.7-19.7,7.9-19.4,19.7C848.3,1044.2,877,1062.3,914.5,1044.8z"/>
<path class="st28" d="M970.3,983.4c0.4,0.5,2.7,2.6,2.2,6.7c0,0.2-0.1,0.4-0.3,0.6c-1.5,1.6-9.6,10.4-18.9,21.9
	c-6.8,8.4-15.3,15.1-14.5,23.8c0,0-13.1,4.8-16.9,6.8c0,0-10.6,4.1-12.5,4.5l-3.9-7.2c0,0,16.9-3.1,33.8-23.7
	c17.5-21.2,29.6-32.5,30.8-33.5C970.2,983.3,970.3,983.3,970.3,983.4z"/>
<path class="st19" d="M922.7,705.4c-17,2.6-26.5,18.9-25.1,36.4c2.2,26,4.6,59.3,19.5,143.8c20,113.5,23.2,102.9,36.1,104.9
	c15.9,2.4,14.6-28.8,17.8-58.9c2.9-27,10.7-87.8,7.4-127.3c-3.9-45.3-20.8-98.8-47.4-99.4C928.1,704.8,925.3,705,922.7,705.4z"/>
<path class="st24" d="M929.2,702.5c0,0,23.2-0.5,35.2,34s14.3,50.2,19.5,111.8c4.4,52.6-1.7,97.1-3.8,111c-0.4,2.3-2,4.2-4.2,4.9
	c-5.2,1.6-15.7,4.2-29.2,4c-13.7-0.1-26.6-1.7-32.3-2.5c-1.7-0.2-2.9-1.7-3-3.4c0-2.7-0.3-7.8-0.9-17.6
	c-3.9-57.4-8.5-63.1-11.5-101.9c-2.8-37.1-21-126.6,18.1-138.9C923.2,702,929.2,702.5,929.2,702.5z"/>
<path class="st25" d="M964.4,736.5c-7.6-21.8-19.6-29.6-27.5-32.4c0.3,18.3,0.9,34.8,2.1,45.7c3.2,29.9,15.9,161.8,21.3,217.6
	c6.9-0.9,12.3-2.3,15.6-3.3c2.2-0.7,3.8-2.6,4.2-4.9c2.1-13.8,8.2-58.4,3.8-111C978.8,786.7,976.4,771,964.4,736.5z"/>
<path class="st24" d="M1080.8,415.7c0,0-1.4,49.9,6.5,82.9c10.3,42.7,12.7,112-53.5,128.2c-57.6,14.1-99.6-32.7-106.4-88.7
	c-2.7-19.6-9.2-52.7-10.5-78.5c-1.6-32.3,15.5-69.4,37.6-87.7C996.2,337.4,1075.9,334.1,1080.8,415.7z"/>
<path class="st25" d="M1087.3,498.6c-4.2-17.5-5.8-39.7-6.3-56.7c-29.2-2.1-75.4,0.5-120.3,6.1c-26.6,3.3-38.4,11.6-43.2,19.9
	c0.6,7,1.4,14.3,2.4,21.6c8.4,1.1,30.6,3.7,40.8,2.3c12.6-1.7,12.1,6.4,11.4,17.3C971.5,520,983.9,612,983.9,612s59.6-1.5,78.6-5.1
	c2.9-0.6,5.5-0.4,7.6,0.3C1098.4,579.3,1095.1,531.3,1087.3,498.6z"/>
<path class="st25" d="M1083.3,588.8c-47.3-21.5-123.4-40.9-123.4-40.9s-7.3,28.8-11.5,32.3c-4.2,3.4-19.9-34.8-20-35
	c9.4,52.8,50.2,95.1,105.4,81.6C1059.4,620.5,1074.7,606.3,1083.3,588.8z"/>
<path class="st19" d="M1067.5,555c-12.6-29.1-46.1-41.1-72.8-24.5c-14.5,9-30,25.6-34.7,56c-9.7,62.1-7,84.7-2.4,135.7
	c3.4,36.8,3.3,44.1,9.1,69.8c5.8,25.8,26.9,34.6,40,33c13.2-1.6,33-10,43.2-49.7c9.4-36.5,16.3-63.6,21.3-101.3
	C1074.6,648.4,1083.6,592.3,1067.5,555z"/>
<path class="st24" d="M1023.5,520.2c0,0-48.2-30.7-62.3,19.3c0,0-12.3,74.1-8.4,145.9c0,0,0.2,114.6,28.8,133.6
	c25.4,16.9,54.7,15.4,70-40.4c15.5-56.4,33.8-163.7,22.5-209.7C1066.6,538.5,1058.3,521.6,1023.5,520.2z"/>
<path class="st25" d="M1023.5,520.2c0,0-31.4-20-50.9-1.3c2.3,26.6,11.3,93.2,11.3,93.2s59.6-1.5,78.6-5.1c7.3-1.4,12,1.8,15.1,6.2
	c0.4-17.4-0.6-32.8-3.4-44.3C1066.6,538.5,1058.3,521.6,1023.5,520.2z"/>
<path class="st26" d="M1082.2,1047.8l0.2,21.8c0,0.4-0.2,0.8-0.6,0.9c-1.9,0.9-8.8,3.3-23.2,2.4l-0.1-19.2L1082.2,1047.8z"/>
<path class="st27" d="M1058.6,1072.9l-9.1-4c-0.4-0.2-0.6-0.5-0.6-0.9l-0.1-14.2l9.6-0.1L1058.6,1072.9z"/>
<path class="st26" d="M1081.9,1035c0,0-2-2.2-12.4,2.3s-49,16.9-60.5,20.8s-35.1,1.4-43.6,0.1c-8.5-1.2-17.1-2.1-16.7,0.3
	c0,0,3.1,5.3,17.5,7.2c14.4,1.9,38.6,4.3,60.8-6.3C1049.2,1048.8,1083,1047.6,1081.9,1035z"/>
<path class="st28" d="M1081.9,1035c0,0,2.1,3.2,1.7,10.6c-0.1,1.2-0.9,2.3-2,2.7c-4.8,1.6-18.2,6-32.8,9.9
	c-14.6,3.9-25.8,8.9-31.1,11.7c-2,1-4.2,1.7-6.4,1.9c-10.2,0.9-35.6,3-59.5-3.3c-1.6-0.4-2.7-1.8-2.9-3.5c-0.2-1.4-0.3-3.5-0.2-6.4
	c0,0,24,8.8,48.1,6.2c24.1-2.6,31.6-9.9,60-16.9C1072.8,1044.3,1079.9,1040.1,1081.9,1035z"/>
<path class="st19" d="M1061.1,980c0,0,2.1,8.5,6.3,18.1c5.6,12.9,14.5,33.7,6,41.8c-8.6,8-19,4.8-38.4,12.7
	c-19.4,7.9-29.7,14.2-57,12.7c-13.5-1.5-25.2-1.6-25.5-11.7c-0.2-8.4,9.5-11.4,18.3-12.8c7.9-1.2,22.4-3,38.7-19.4
	c16.4-16.4,21.5-20,20.6-26.6s-0.3-9.7-2-15.2c-1.7-5.5-1.5-15.1,10.6-18.2C1051,958.3,1056.2,966,1061.1,980z"/>
<path class="st28" d="M1016.4,1062c0,0-7.1-5.5-10-10.9c-2.8-5.2-8.3-15.2-11.5-18.3c-0.3-0.3-0.8-0.4-1.3-0.3
	c-3.4,1-10.9,5.3-23.2,7.2c-10.2,1.6-23.2,5.4-21.8,18.8C948.7,1058.5,979.2,1077.7,1016.4,1062z"/>
<path class="st28" d="M1070.5,1003.5c0.9,0.7,3.3,2.7,2.9,7c0,0.4-0.2,0.8-0.4,1.2c-1.4,2-6.7,9.5-15.6,19.8
	c-6.9,8-15.4,14.2-15,22.7c0,0-12.9,4.2-16.7,6c0,0-10.5,3.7-12.4,3.9l-5.5-9c0,0,18.7-2.3,35.8-19.9c17.5-18.2,24.9-29.4,26.2-31.5
	C1070,1003.4,1070.3,1003.4,1070.5,1003.5z"/>
<path class="st19" d="M971.1,768.2c0,0,10,54.2,23.9,103.1c12.1,42.4,30.6,109.5,36.7,131.5c6.1,22,18.3,15.2,22.8,12.3
	c4.5-2.8,9.8-11.6,8.9-32.7c-0.9-21.1-0.3-57.8-2.1-92.1c-2-39.8-3.5-109.9-24.5-146C1011.9,701.7,965,727.4,971.1,768.2z"/>
<path class="st24" d="M997.9,720.3c0,0,21.8-4.8,39.4,15.6c16.4,19,26,54.5,32.1,93.9s2.8,134.8,2.8,134.8s-14.6,8.1-24.8,9.2
	c-41.4,4.3-53.2-3.9-53.2-3.9s-4.2-19.9-6.9-30.3c-7.4-27.7-21.5-120.1-25.8-153.3c-4.3-33.1-3.1-38.6,9.4-55.4
	C981.9,715.7,997.9,720.3,997.9,720.3z"/>
<path class="st19" d="M980.2,218.3c-22.7,0.7-35.6,6.7-50.3,24.4c-12.5,15.1-22.4,48.1-31.6,71.7c-8.9,23-3.8,42.4,12.5,67.1
	c1.1,1.6,5.3,6.9,5.3,6.9s2.9,29.6,7.5,51.7c3.8,18.4,8.3,31,57.4,33.1c49.1,2.2,63.7-29.4,67.3-91.2c2.7-46,2-93-1-116.3
	C1043.3,234.8,1020,217.1,980.2,218.3z"/>
<path class="st19" d="M943.8,206.9c0,0,2.8,12.5,1.3,22.4s-5.1,20.6,13.2,23.7c14.3,2.4,37.4-9.7,41.5-17.3s3.7-8.8,0.2-16.3
	c-1.9-4.2-9-13.3-9.9-46.8c-0.1-10.5-12.8-18.1-24.8-11.1C957.1,166.4,938,173.8,943.8,206.9z"/>
<path class="st22" d="M965.4,161.5c11.9-6.9,21,3.6,20.4,14c-0.2,3.9-7.3,11.9-10.9,19.7c-6,13-11.8,27.1-29.7,33.4
	c1.2-9.8-1.4-21.8-1.4-21.8C938,173.8,957.1,166.4,965.4,161.5z"/>
<path class="st29" d="M1000.1,219.5c0,0,28.4,0.4,43.3,23.9c14.9,23.5,24.7,96.2,28,128.3s7.8,44.1,9.5,57.7
	c1.7,13.5,8.1,19.9-12.9,29.2c-27.3,12.1-139,29.9-149.3,20.2c-3.3-3.2-7.2-53.6-13.6-64.6c-6.4-11.1-19.6-30.6-20.7-60.4
	s22.4-106.9,60.9-125.8c0,0-13.6,25.2-0.8,29.1S987.6,235.8,1000.1,219.5z"/>
<path class="st20" d="M945.3,228c0,0-17.2,22.5-30.5,52.7c-10.5,23.7-21.5,54.7-21.6,73.4c-0.1,18.6,3.9,46.5,7.9,53.3
	s7,12.6,9.2,25c2.1,12.5,8.5,46.4,8.5,46.4l-8.4-4.2c0,0-6.3-46.9-12.5-59.8s-17.4-42.3-19-56.6c-1.5-14.3,3.4-47,11.4-62.3
	s27.8-47.1,33.2-55C928,234.2,945.3,228,945.3,228z"/>
<path class="st21" d="M901.1,407.4c-4-6.8-8-34.7-7.9-53.3c0-9.7,3.1-22.8,7.4-36.4c-6.4,4.6-14.4,8.6-19.9,11.1
	c-1.9,11.4-2.7,22.6-1.9,29.5c1.5,14.3,10,40.9,16.3,53.8c0.6,1.2,1.2,5.6,1.8,7.4c2.1-0.8,6.8-2,8.7-3.7
	C904.2,412.8,902.8,410.2,901.1,407.4z"/>
<path class="st20" d="M999.7,218.6c0,0-22.6,10.8-32.9,30.4s-11.9,62.9-15.4,88.4s2.2,41.4,5.6,63.9c4.8,32.2,17.7,70.8,19,100.4
	c1.1,23.7,10.7,105.3,10.7,105.3s71.7,1.4,113.5-16.6c0,0-13.8-130.2-18.5-184.5c-8.5-96.4-24.4-149.7-39.7-173.2
	C1033.7,225,1023.6,217.6,999.7,218.6z"/>
<path class="st21" d="M1036,302.4c0,0-23.1-52-40.6-49c-8.3,1.4-22.7,9.3-35.6,17.2c-4.4,21.3-5.9,48.6-8.4,66.8
	c-2.9,21.1,0.5,35.6,3.7,52.8c9-6,21.9-15.5,35.5-28.7C1015.7,337.2,1036,302.4,1036,302.4z"/>
<path class="st19" d="M1035.2,253.7c0,0,20.7,24.3-7.1,53.9c-23.2,24.7-112.2,94.5-133.1,91.7c-20.9-2.9-35.2-23.5-3.2-58.1
	s68-56,92-78.4C1007.8,240.3,1026.2,241.6,1035.2,253.7z"/>
<path class="st20" d="M1038.8,250.3c0,0-23.1-18.3-47.6,1.2c-24.6,19.6-81.7,64.8-98.5,82.9c-16.7,18.2-32.7,37.8-16.9,57.9
	c15.9,20.1,34.8,11,51.8-0.5c17.1-11.6,87.1-63.6,103.8-83.5C1048.1,288.4,1054.2,265.3,1038.8,250.3z"/>
<path class="st9" d="M769.8,392.7c0,0-14.6-26.7,7.4-48.9l32,1.8L786,385.1L769.8,392.7z"/>
<path class="st19" d="M685.6,379.2c3.2-1.3,20.2-8,21.6-8.3c2.3-0.4,7.7-10.9,17.2-11.7c2-0.2,2.1-4.1,1.9-6.1
	c-6.3-1-8.7-0.9-18.7-4.8c0,0,10.9-5.7,15.7-6.1c4.8-0.5,9.3-0.8,19.8,4c10,4.5,34.2,5.3,34.3,5.3c8,0.7,9,2.6,14.4,4.3
	c20.8,6.3,9.4,33.2-16.7,29.6c0,0-12-2.9-18.1-4.3c-5.5,4.3-22.4,22.6-26,24.1c-2.6,1-7.1,1.4-12.1,1.4c-5.7,0.5-13.8,1.1-14.6,1.1
	c-2,0-5-3.8-5-3.8s-5.8,0.6-7.5,0.5c-4.3-0.2-5.1-6.2-5.1-6.2s-7.6-1.3-4.6-8.9c0,0-5.3-1.7-3.4-6.5
	C678.8,382.2,679.6,381.7,685.6,379.2z"/>
<path class="st19" d="M900.5,400.5c0,0-4.1,4.4-57.3-9.5c-37.8-9.9-82.8-8.8-89-13.9c-10.1-8.3-6.3-18.4,7.4-20.8
	c13.6-2.4,45.9-6.8,90.4-6.9c49.8-0.2,61.7,5.6,66.8,17.4C927.6,387,917.6,397.3,900.5,400.5z"/>
<path class="st20" d="M769.8,392.7c0,0,22.8-18.9,7.4-48.9c0,0,105.3-2.8,126.5,6.7s25.9,33,18.2,42.2s-22.2,15.4-48.6,12
	C846.8,401.2,769.8,392.7,769.8,392.7z"/>
<path class="st23" d="M681.8,389.2c16.1,0,31.4-4.5,35.6-10.1C704.4,384.3,694.6,386,681.8,389.2z"/>
<path class="st23" d="M686.2,397.8c25.1-3.3,33.5-0.6,38.9-11.3C716.2,393.2,708.8,393.3,686.2,397.8z"/>
<path class="st23" d="M699.5,403.7c21.6-1,28.4-4.3,30.6-8.1C719.3,400.5,710.2,400.7,699.5,403.7z"/>
<path class="st7" d="M690,368.3c13.8,9.5,24.3-3.7,26.6-5.9c2.3-2.2,9-2.6,13.9-1.6c8.4,2.2,16.2-2.2,12.5-5
	c-3.4-2.3-8.2-3.6-15.7-5.2s-16.4-3.9-22.9-1.3C690.1,354.8,687.6,366,690,368.3z"/>
<path class="st30" d="M693.3,370.7c11,2.2,19,0.2,24.7-10C710.9,368.5,703.7,370.5,693.3,370.7L693.3,370.7z"/>
<path class="st7" d="M731.9,394.7c-0.6-1.4-2.2-6.6,0.2-8.9c1.2-1.2,5.9,0,5.9,0s-2.5-6.8-0.4-8.1c2.1-1.2,7.1,1.7,7.1,1.7
	s0.9-5.1,3.5-3.9c0.8,0.4,2.3,1.3,4,2.4c1.2,0.8,2.6,1.8,3.8,2.7c0.3,0.3,0.5,0.4,0.7,0.6s0.4,0.4,0.5,0.5c0.3,0.4,0.1,3.6-0.9,4.7
	c-2.1,2.3-4.5,1.5-4.8,1.5c0,0.5-0.9,3.8-1.7,4.6c-1.9,1.7-5.1,2.1-5.4,2c0,0.5-1,5.4-3.1,7.1c-1.4,1.1-4.6-0.2-5.2-0.2
	c-1,0.9-0.5,3.2-2.8,3.9c-0.9,0.3-3.3-0.5-4.6-2.3c-1.3-1.7-0.7-4.3-0.6-4.7C728.6,397,731.6,395,731.9,394.7z"/>
<path class="st16" d="M744.8,379.4c0.7,1.4,1.9,3.2,2.8,4.5c0.9,1.6,2,3,3.8,3.7l0.1-0.1c-0.6-1.8-1.7-3.1-3-4.4
	c-1.2-1.3-2.4-2.6-3.6-3.9L744.8,379.4z"/>
<path class="st16" d="M738,386c0.9,1.7,1.8,3.1,2.6,4.3c0.8,1.1,1.9,2.8,3.5,4.1l0.1-0.1c-0.3-2-1.8-3.7-2.4-4.5s-2.4-2.5-3.6-3.9
	L738,386z"/>
<path class="st16" d="M732.2,395.1c0.9,1.9,0.9,2.9,2.1,4.7c0.5,0.5,1,1,1.7,1.4l0.1-0.1c-0.1-1.6-0.9-2.7-1.8-3.8
	c-0.9-1.1-1-1.2-1.9-2.3L732.2,395.1z"/>
<path class="st19" d="M961.5,71.4c0,0,46.5,3.2,43.8,59.3c-2.6,53.9-48.3,96.6-86,84.2c-12-4.8-19.1-33.1-18.3-75.3
	C901.9,97.3,920.5,68.7,961.5,71.4z"/>
<path class="st22" d="M928.6,170.3c0,0,2-4,11.8-3.2c7.9,0.7,13.8,2.2,13.4,7.2C953.9,180.9,923.8,180.1,928.6,170.3z"/>
<path class="st22" d="M901.6,164.4c0.3,4.1,0.6,7.9,1.1,11.5c5.2-0.6,10.3-2.3,10.3-4.5C913.3,166.9,908.2,165.2,901.6,164.4z"/>
<path class="st15" d="M940.4,157.7c-0.2,2.9-2,5.2-4.2,5c-2.1-0.1-3.7-2.6-3.6-5.5c0.2-2.9,2-5.2,4.2-5
	C939,152.3,940.6,154.8,940.4,157.7z"/>
<path class="st15" d="M914.8,155.7c-0.2,2.8-2,5-4,4.9c-2.1-0.1-3.6-2.5-3.4-5.3s2-5,4-4.9C913.4,150.5,914.9,152.9,914.8,155.7z"/>
<path class="st12" d="M911.4,183.4c6,0.9,17.4,1.8,21.7,2c0.8,0.1,1.2,1,0.7,1.6c-1.7,2-5.7,5.2-13.1,4.8c-6.3-0.3-9.1-4.6-10.2-7.1
	C910,184.1,910.6,183.3,911.4,183.4z"/>
<path class="st22" d="M920.6,198.4c-3.1-0.1-5.4-1.2-5.5-1.3c-0.6-0.3-0.9-1.1-0.6-1.7c0.3-0.6,1-0.9,1.7-0.6c0.1,0,3.3,1.6,7.1,0.8
	c0.7-0.2,1.3,0.3,1.5,1c0.1,0.7-0.3,1.3-0.9,1.5C922.7,198.3,921.6,198.4,920.6,198.4z"/>
<path class="st23" d="M921.3,178.3c-1.6,0-4.4-0.3-6.1-1.2c-2.2-1.3-1.3-3.3-0.3-5.6l0.1-0.3c6.1-14,5.7-20,5.7-20.1
	c-0.1-0.7,0.4-1.3,1.1-1.4c0.7-0.1,1.3,0.4,1.3,1.1c0,0.3,0.6,6.6-5.9,21.4l-0.1,0.3c-0.4,0.9-0.8,1.9-0.8,2.3c0,0,0.1,0,0.1,0.1
	c1.2,0.7,4.3,0.9,5.9,0.9c0.7,0,1.2,0.5,1.3,1.2c0,0.7-0.5,1.3-1.2,1.3C922.3,178.3,921.9,178.3,921.3,178.3z"/>
<path class="st15" d="M930.4,141.8c0,0-1.8-0.2-1.9,1.1c-0.1,1.2,0.1,4,0.9,4.3c0.8,0.4,10.1,0.3,13.8,0.5c3.6,0.2,9.4,1.3,9.7,0.9
	c0.3-0.4-1.9-2.8-6-4C943.5,143.5,935.2,141.7,930.4,141.8z"/>
<path class="st15" d="M901.8,144.7c0,0-1.7,0-1.8-1.1c-0.1-1.4,5.7-3.5,15.6-2.6c2.9,0.4,2.5,3.9,1.7,5.5
	C916.6,148,912.4,145,901.8,144.7z"/>
<path class="st15" d="M924.7,104.2c0,0-14.4,4.2-18.6,14.1s-3,24.7-3.9,32s-2,10.3-3.4,15.1s-0.5,7.2,1.3,13.6
	c1.8,6.4-0.7,13.7-5.7,16.2c0,0,5.1-6.9,2.4-13c-2.8-6.1-5.9-10.9-4.1-15.5s5.9-11.2,3.2-18.3s-4.3-33.6,3.8-51.7s35.6-29,48.7-27.6
	c0,0,29-5.8,46.3,9.1s23.6,34.5,23.5,58.9s-14,52.4-22.4,58.5s-12.5,11.5-12.8,10.5s-2.6-12.9-2.7-18.8c-0.2-12.8-2.2-32.9-4.2-33.9
	c-1.9-1.1-7.6,11.3-7.1,15s4.3,10.8,1.2,15.8c-3.1,4.9-8.1,6.4-6.9,13.2c1.1,6.7,1.5,14.8-2.4,16.3c0,0,1.8-5-0.4-9.4
	s-3.3-10.1-1.3-13.4c2.1-3.3,10.5-10.7,7.7-15.1c-2.8-4.4-6.7-4.9-7.4-14.6c-0.7-9.7,2.2-17.7,0.6-22.1c-1.5-4.4-6.6-8.9-15.1-12.2
	S928.9,118.7,924.7,104.2z"/>
<path class="st31" d="M999.1,82.5c-13.8-11.9-29-15.1-35.9-13.8c0,0,22.2,7.8,27.2,15.7c4.9,8,11.9,30,12,38.6
	c0.1,8.5,0.5,19-1.3,28.3c-1.8,9.2-3.9,17.9-7.3,21.1c-3.3,3.2-8.1-1-12.5-3.4c-1-0.5-1.8-0.7-2.4-0.5c0.6,6.2,1.1,13.3,1.2,18.9
	c0.1,5.8,2.4,17.8,2.7,18.8s4.4-4.4,12.8-10.5s22.3-34.1,22.4-58.5C1018.1,115,1012.9,96.8,999.1,82.5z"/>
<path class="st31" d="M924.7,104.2c1.2-12.6,11.1-31.9,23.5-35.1C937.2,75,928.7,92.5,924.7,104.2z"/>
<path class="st31" d="M934.3,95.1c15.3,6.7,12.4,14.3,20.8,25.6c2.9,4.3,7.7,5.5,11.9,7.7c5.3,3.6,8.8,10.3,8.4,16.8
	c-0.4-5.5-3.4-10.9-7.6-14.2c-5.1-3.5-10.2-3.2-14.2-9C945,110.5,948.9,103.8,934.3,95.1z"/>
<path class="st31" d="M944.4,88.7c8.5,1.7,16.8,6.3,21.2,14.2c8,11.3,21.4,22.5,19.3,37.9c0.1-15.2-13-25.2-20.8-36.8
	C960,96.2,952.3,91.6,944.4,88.7z"/>
<path class="st31" d="M944.7,78.3c14.5-1.3,30.2,2.5,40.1,14c4.9,5.2,9.1,11.3,11.4,18.1c1,3.2,1.7,6.5,1.6,9.9
	c-0.1,1.9-0.1,4.2,0,6.1c0.6,10.5,2.7,21.5-0.4,31.8c2.8-12.7-1.8-25.6-1.4-38.3c-0.6-12.4-8.8-23.1-17.5-31
	C969.2,81,956.5,78.5,944.7,78.3z"/>
<path class="st19" d="M987,144c0,0,7.5,0.8,7.3,12.9c-0.2,11.6-7.4,24.8-15.7,22.4c-2.6-0.9-4.6-11.2-4.7-20.3
	C973.8,149.9,978.1,143.7,987,144z"/>
<path class="st23" d="M980.3,170.7c-2.9-15.8,5.2-20.1,5.5-20.2c0.4-0.2,0.9,0,1.1,0.4s0,0.9-0.4,1.2c-0.2,0.1-4.5,2.4-5.1,10.3
	c2.4-2.7,6.1-3.1,6.3-3.1c0.5,0,0.9,0.3,0.9,0.8s-0.3,0.9-0.8,0.9c-0.2,0-5.2,0.5-6.5,4.9c0.1,1.4,0.2,2.9,0.6,4.6
	c0.1,0.4-0.2,0.8-0.6,1h-0.1C980.8,171.5,980.3,171.2,980.3,170.7z"/>
<path class="st15" d="M953.7,68.3c0,0,2.1-6.6,14.9-9.6c12.8-3.1,34-1.8,47.8,19.9c13.9,21.7,20.7,61.6,20,79
	c-0.7,17.5-3.4,19.9,1.1,31.4c4.6,11.5,5.7,30.7-0.7,42.4s-30.7,25.4-37.9,37.3c-7.2,12-5.6,32.9-21.5,48.5c-5.2,5.6-13,6.5-13,6.5
	s12.5-15.7,11.4-29.9c0,0-1,4.8-4.4,7.1c0,0,2.7-4.9,0.2-14s-5.1-16.6-3.2-36.3c2.9-30.8,14.1-40.3,18.1-56.2
	c3.9-15.9,18.9-30.3,19.4-54.1c0.3-18.9-4.6-40.5-8.4-49.2C991.2,76.9,969.7,67.8,953.7,68.3z"/>
<path class="st15" d="M971.8,58.1c0,0,20.5-4.3,29.4,1.8c9,6,12.3,13.4,18.1,16.3c5.8,2.9,9.3,10.9,8.3,17.9
	c-1,6.9-0.8,12.8,6.1,22.1c6.8,9.3,5,19.2,3.8,27c-1.1,7.7-1.1,10.6,3.2,16.9c4.3,6.3,3.5,12.3,0.6,17.6s-4.8,10.8,0.5,14.8
	c5.3,3.9,7.7,16.7,3.4,20.9c-4.2,4.3-2.4,8.6-2.2,15.6c0.2,7-1.6,16-7.5,15.7s-10.1,4.6-13.4,11s-12.3,13-17.7,13.1
	c-5.4,0.2-6.6,7.4-6.4,16.5s-5.1,36.7-29.1,37.6l13.8-28.7L970.3,282c0,0-6.2-3.1-5.9-10.8c0.3-7.7,2.9-8.7,2.4-11.3
	s-1.3-6.3-0.5-8.9c0.8-2.7,2-3.8,1.7-7.4c-0.3-3.5-1.4-8.3,1.5-11c2.9-2.6,3.2-8.1,3.1-9.8s0.8-6,4-8.7s3.3-7.5,4.4-10.5
	c1-3,2.2-6.8,4.3-9.2s3.6-15.3,9.8-18.4c0,0,17.4-8.3,18.4-26.4S1010,84.4,999,72.5C987.8,60.5,971.8,58.1,971.8,58.1z"/>
<path class="st31" d="M978.9,74c-3.1-3-8.9-5.4-12-6.7c-3.5-1.5-4.8-1.7-0.9-6c1.2-1.4,3.4-2.4,5.8-3.2c-1.1,0.2-2.1,0.4-3.1,0.6
	c-12.8,3.1-14.9,9.6-14.9,9.6C961.6,68.1,970.8,70.2,978.9,74z"/>
<path class="st1" d="M652.2,770L588,1039.9h13.5L676.2,770H652.2z"/>
<path class="st1" d="M688.3,770l7.6,292.9h13.5l7.2-292.9H688.3z"/>
<path class="st1" d="M752.8,770l64.2,269.9h-13.5L728.8,770H752.8z"/>
<path class="st2" d="M763.6,761.7H641.3c0,0,0,11,0,11.1c0,3,27.4,5.5,61.2,5.5s61.2-2.4,61.2-5.5
	C763.6,772.7,763.6,761.7,763.6,761.7z"/>
<path class="st1" d="M763.6,761.9c0,3-27.4,5.5-61.2,5.5s-61.2-2.4-61.2-5.5c0-3,27.4-5.5,61.2-5.5S763.6,758.8,763.6,761.9z"/>
<path class="st3" d="M712.7,761.7h-20.5c-2.3,0-4.1-1.9-4.1-4.2v-95.8h28.7v95.8C716.8,759.8,715,761.7,712.7,761.7z"/>
<path class="st32" d="M1036,646.2H368.9l145.1-80h388.6L1036,646.2z"/>
<path class="st33" d="M368.9,646.2H1036v24.7H368.9V646.2z"/>
<path class="st5" d="M843.8,639.9l117.3-14c2.5-0.3,4.4-2.5,4.4-5v-1.4l-132.1-50.2L707.3,569v2c0,2.4,1.4,4.6,3.5,5.6l126.3,62.2
	C839.2,639.8,841.5,640.2,843.8,639.9z"/>
<path class="st34" d="M840.3,634.5l125.2-14.9l-131.7-55.9c-0.3-0.1-0.6-0.2-0.9-0.2L707.3,569L840.3,634.5z"/>
<path class="st5" d="M836.9,626.8l101.6-11.1c0.7-0.1,0.8-1,0.2-1.3l-106.1-46.2c-0.4-0.2-0.9-0.3-1.3-0.2l-93.6,4.1
	c-3.2,0.1-4,4.5-1.2,5.9l98.7,48.6C835.7,626.8,836.3,626.8,836.9,626.8z"/>
<path class="st35" d="M658.4,462.6l-1.7,0.8L711.3,567l129,67.4l4.4-0.5l-59.9-121.6c-0.7-1.3-1.8-2.4-3.1-2.9l-118.5-47
	C661.7,461.8,659.9,461.9,658.4,462.6z"/>
<path class="st4" d="M656.7,463.4L707.3,569l133,65.4l-59-119.2c-1-2-2.6-3.5-4.6-4.3L656.7,463.4z"/>
</svg>
