<?xml version="1.0" encoding="utf-8"?>
<!-- Generator: Adobe Illustrator 25.0.0, SVG Export Plug-In . SVG Version: 6.00 Build 0)  -->
<svg version="1.1" id="TalentPot_logo" xmlns="http://www.w3.org/2000/svg" xmlns:xlink="http://www.w3.org/1999/xlink" x="0px"
	 y="0px" viewBox="0 0 217.1 60" style="enable-background:new 0 0 217.1 60;" xml:space="preserve">
<style type="text/css">
	.st0{clip-path:url(#SVGID_2_);}
	.st1{fill:#F49C12;}
	.st2{fill:#3E3D3F;}
	.st3{clip-path:url(#SVGID_4_);}
	.st4{fill:#9D651D;}
	.st5{fill:#FFFFFF;}
	.st6{display:none;fill:#0E1152;enable-background:new    ;}
	.st7{font-family:'Inter-SemiBold';}
	.st8{font-size:30px;}
	.st9{enable-background:new    ;}
	.st10{fill:#0E1152;}
</style>
<g id="logo">
	<g>
		<g>
			<defs>
				<rect id="SVGID_1_" y="1.1" width="57.8" height="57.3"/>
			</defs>
			<clipPath id="SVGID_2_">
				<use xlink:href="#SVGID_1_"  style="overflow:visible;"/>
			</clipPath>
			<g class="st0">
				<path class="st1" d="M43.2,27.4c-0.3,0.1-0.7,0.1-1,0.1c-2.9,0-5.2-2.3-5.2-5.2c0-0.4,0-0.7,0.1-1c0.5-2.4,2.6-4.2,5.1-4.2
					c2.9,0,5.2,2.3,5.2,5.2C47.4,24.8,45.6,26.9,43.2,27.4z M35.6,19.8c0,3.7-3,6.6-6.7,6.6s-6.7-3-6.7-6.6v-0.1
					c0-3.7,3-6.7,6.7-6.7S35.6,16,35.6,19.8C35.6,19.7,35.6,19.8,35.6,19.8z M15.6,27.5c-0.4,0-0.7,0-1-0.1
					c-2.4-0.5-4.2-2.6-4.2-5.1c0-2.9,2.3-5.2,5.2-5.2c2.5,0,4.6,1.8,5.1,4.2c0.1,0.3,0.1,0.7,0.1,1C20.8,25.1,18.5,27.5,15.6,27.5z
					 M28.9,1.1C12.9,1.1,0,14,0,30c0,13.7,9.5,25.1,22.2,28.1L7.5,43.5H7.4V37c0-1.1,0.2-2.1,0.6-3c0.8-2.1,2.5-3.8,4.6-4.6
					c0.9-0.4,2-0.6,3-0.6c2.3,0,4.3,0.9,5.8,2.4c1.9-1.9,4.5-3.1,7.4-3.1s5.5,1.2,7.4,3.1c1.5-1.5,3.6-2.4,5.8-2.4
					c1.1,0,2.1,0.2,3,0.6c2.1,0.8,3.8,2.5,4.6,4.6l6.2,6.2c1.2-3.2,1.8-6.6,1.8-10.1C57.8,14,44.9,1.1,28.9,1.1"/>
			</g>
		</g>
	</g>
	<path class="st2" d="M7.4,43.3L7.4,43.3L7.4,43.3L7.4,43.3z"/>
	<g>
		<g>
			<defs>
				<rect id="SVGID_3_" x="7.5" y="33.9" width="48.9" height="25"/>
			</defs>
			<clipPath id="SVGID_4_">
				<use xlink:href="#SVGID_3_"  style="overflow:visible;"/>
			</clipPath>
			<g class="st3">
				<path class="st4" d="M56,40.1c-4.1,11-14.7,18.8-27.1,18.8c-2.3,0-4.5-0.3-6.7-0.8L7.5,43.5h10.8V47h21.2v-3.6h10.9V37
					c0-1.1-0.2-2.1-0.6-3L56,40.1"/>
			</g>
		</g>
	</g>
	<path class="st2" d="M39.5,38.7V47H18.3v-8.3c0-2.9,1.2-5.6,3.1-7.5c1.9-1.9,4.5-3.1,7.4-3.1s5.5,1.2,7.4,3.1
		C38.3,33.1,39.5,35.8,39.5,38.7"/>
	<path class="st5" d="M20.8,22.3c0,2.9-2.3,5.2-5.2,5.2c-0.4,0-0.7,0-1-0.1c-2.4-0.5-4.2-2.6-4.2-5.1c0-2.9,2.3-5.2,5.2-5.2
		c2.5,0,4.6,1.8,5.1,4.2C20.8,21.5,20.8,21.9,20.8,22.3"/>
	<path class="st5" d="M21.4,31.2c-1.9,1.9-3.1,4.6-3.1,7.5v4.7H7.5l-0.1-0.1V37c0-1.1,0.2-2.1,0.6-3c0.8-2.1,2.5-3.8,4.6-4.6
		c0.9-0.4,2-0.6,3-0.6C17.9,28.8,19.9,29.7,21.4,31.2"/>
	<path class="st5" d="M7.4,43.3L7.4,43.3L7.4,43.3L7.4,43.3z"/>
	<path class="st5" d="M23.8,37v6.5h-5.5v-4.7c0-2.9,1.2-5.6,3.1-7.5C22.9,32.7,23.8,34.8,23.8,37"/>
	<path class="st5" d="M47.4,22.3c0,2.5-1.8,4.6-4.2,5.1c-0.3,0.1-0.7,0.1-1,0.1c-2.9,0-5.2-2.3-5.2-5.2c0-0.4,0-0.7,0.1-1
		c0.5-2.4,2.6-4.2,5.1-4.2C45,17,47.4,19.4,47.4,22.3"/>
	<path class="st5" d="M50.4,37v6.5H39.5v-4.7c0-2.9-1.2-5.6-3.1-7.5c1.5-1.5,3.6-2.4,5.8-2.4c1.1,0,2.1,0.2,3,0.6
		c2.1,0.8,3.8,2.5,4.6,4.6C50.2,34.9,50.4,35.9,50.4,37"/>
	<path class="st5" d="M39.5,38.7v4.7H34V37c0-2.3,0.9-4.3,2.4-5.8C38.3,33.1,39.5,35.8,39.5,38.7"/>
	<path class="st5" d="M35.6,19.7C35.6,19.7,35.6,19.8,35.6,19.7c0,3.8-3,6.7-6.7,6.7s-6.7-3-6.7-6.6v-0.1c0-3.7,3-6.7,6.7-6.7
		S35.6,16,35.6,19.7"/>
	<path class="st5" d="M39.5,38.7V47H18.3v-8.3c0-2.9,1.2-5.6,3.1-7.5c1.9-1.9,4.5-3.1,7.4-3.1s5.5,1.2,7.4,3.1
		C38.3,33.1,39.5,35.8,39.5,38.7"/>
</g>
<text transform="matrix(1 0 0 1 76.4291 41.9584)" class="st6 st7 st8">TalentPot</text>
<g class="st9">
	<path class="st10" d="M72.6,24.5v-3.3H90v3.3h-6.7V43h-3.9V24.5H72.6z"/>
	<path class="st10" d="M95.7,43.3c-1,0-2-0.2-2.8-0.6c-0.8-0.4-1.5-0.9-2-1.7s-0.7-1.6-0.7-2.7c0-0.9,0.2-1.7,0.5-2.3
		c0.3-0.6,0.8-1.1,1.4-1.4c0.6-0.4,1.3-0.6,2-0.8c0.7-0.2,1.5-0.3,2.3-0.4c1-0.1,1.7-0.2,2.3-0.3c0.6-0.1,1-0.2,1.3-0.4
		s0.4-0.4,0.4-0.8v-0.1c0-0.8-0.2-1.4-0.7-1.9c-0.5-0.4-1.2-0.7-2.1-0.7c-0.9,0-1.7,0.2-2.2,0.6c-0.6,0.4-0.9,0.9-1.1,1.5l-3.6-0.5
		c0.3-1,0.8-1.8,1.4-2.5c0.7-0.7,1.5-1.2,2.4-1.5c0.9-0.3,2-0.5,3.1-0.5c0.8,0,1.6,0.1,2.4,0.3c0.8,0.2,1.5,0.5,2.1,0.9
		c0.6,0.4,1.2,1,1.6,1.7c0.4,0.7,0.6,1.6,0.6,2.7v11h-3.7v-2.2h-0.1c-0.2,0.5-0.6,0.9-1,1.3c-0.4,0.4-1,0.7-1.6,0.9
		C97.3,43.2,96.5,43.3,95.7,43.3z M96.7,40.5c0.8,0,1.4-0.2,2-0.5c0.6-0.3,1-0.7,1.3-1.2c0.3-0.5,0.5-1.1,0.5-1.7v-1.9
		c-0.1,0.1-0.3,0.2-0.6,0.3c-0.3,0.1-0.6,0.2-1,0.2c-0.4,0.1-0.7,0.1-1.1,0.2c-0.3,0-0.6,0.1-0.9,0.1c-0.6,0.1-1.1,0.2-1.5,0.4
		c-0.5,0.2-0.8,0.4-1.1,0.7c-0.3,0.3-0.4,0.7-0.4,1.2c0,0.7,0.3,1.2,0.8,1.6C95.2,40.3,95.9,40.5,96.7,40.5z"/>
	<path class="st10" d="M112.1,21.1V43h-3.9V21.1H112.1z"/>
	<path class="st10" d="M123.3,43.3c-1.6,0-3.1-0.3-4.2-1c-1.2-0.7-2.1-1.7-2.7-2.9c-0.6-1.3-1-2.7-1-4.5c0-1.7,0.3-3.2,1-4.4
		c0.6-1.3,1.5-2.3,2.7-3s2.5-1.1,4.1-1.1c1,0,2,0.2,2.9,0.5s1.7,0.8,2.4,1.5s1.2,1.5,1.6,2.6c0.4,1,0.6,2.3,0.6,3.7v1.2h-13.4v-2.6
		h9.7c0-0.7-0.2-1.4-0.5-2c-0.3-0.6-0.7-1-1.3-1.4c-0.6-0.3-1.2-0.5-1.9-0.5c-0.8,0-1.5,0.2-2.1,0.6c-0.6,0.4-1.1,0.9-1.4,1.5
		c-0.3,0.6-0.5,1.3-0.5,2v2.3c0,1,0.2,1.8,0.5,2.4c0.3,0.7,0.8,1.2,1.5,1.6s1.4,0.5,2.2,0.5c0.6,0,1.1-0.1,1.5-0.2
		c0.5-0.2,0.8-0.4,1.2-0.7s0.6-0.7,0.8-1.2l3.6,0.4c-0.2,1-0.7,1.8-1.3,2.5c-0.6,0.7-1.4,1.3-2.4,1.6
		C125.7,43.1,124.6,43.3,123.3,43.3z"/>
	<path class="st10" d="M137.7,33.4V43h-3.9V26.6h3.7v2.8h0.2c0.4-0.9,1-1.6,1.8-2.2c0.8-0.5,1.9-0.8,3.1-0.8c1.1,0,2.1,0.2,3,0.7
		c0.8,0.5,1.5,1.2,2,2.1c0.5,0.9,0.7,2,0.7,3.3V43h-3.9v-9.8c0-1.1-0.3-1.9-0.8-2.6c-0.6-0.6-1.3-0.9-2.3-0.9
		c-0.7,0-1.3,0.1-1.8,0.4c-0.5,0.3-0.9,0.7-1.2,1.3S137.7,32.6,137.7,33.4z"/>
	<path class="st10" d="M160.3,26.6v3h-9.4v-3H160.3z M153.2,22.7h3.9V38c0,0.5,0.1,0.9,0.2,1.2c0.2,0.3,0.4,0.5,0.6,0.6
		s0.6,0.1,0.9,0.1c0.2,0,0.5,0,0.7-0.1c0.2,0,0.4-0.1,0.5-0.1l0.6,3c-0.2,0.1-0.5,0.1-0.9,0.2c-0.4,0.1-0.8,0.1-1.4,0.1
		c-1,0-1.8-0.1-2.6-0.4c-0.8-0.3-1.4-0.8-1.8-1.5s-0.7-1.5-0.7-2.6V22.7z"/>
	<path class="st10" d="M164,43V21.1h8.2c1.7,0,3.1,0.3,4.2,0.9c1.1,0.6,2,1.5,2.6,2.6c0.6,1.1,0.9,2.3,0.9,3.7
		c0,1.4-0.3,2.6-0.9,3.7c-0.6,1.1-1.5,1.9-2.6,2.6c-1.2,0.6-2.6,0.9-4.2,0.9h-5.4v-3.2h4.9c1,0,1.8-0.2,2.4-0.5
		c0.6-0.3,1.1-0.8,1.4-1.4s0.5-1.3,0.5-2.1c0-0.8-0.2-1.5-0.5-2s-0.8-1-1.4-1.4s-1.4-0.5-2.4-0.5H168V43H164z"/>
	<path class="st10" d="M190.1,43.3c-1.6,0-3-0.4-4.2-1.1s-2.1-1.7-2.7-3c-0.6-1.3-1-2.7-1-4.4s0.3-3.2,1-4.4c0.6-1.3,1.5-2.3,2.7-3
		s2.6-1.1,4.2-1.1c1.6,0,3,0.4,4.2,1.1s2.1,1.7,2.7,3s1,2.8,1,4.4s-0.3,3.2-1,4.4c-0.6,1.3-1.5,2.2-2.7,3S191.7,43.3,190.1,43.3z
		 M190.1,40.2c0.9,0,1.6-0.2,2.2-0.7c0.6-0.5,1-1.1,1.3-1.9c0.3-0.8,0.4-1.7,0.4-2.7c0-1-0.1-1.9-0.4-2.7c-0.3-0.8-0.7-1.5-1.3-1.9
		c-0.6-0.5-1.3-0.7-2.2-0.7c-0.9,0-1.6,0.2-2.2,0.7c-0.6,0.5-1,1.1-1.3,1.9c-0.3,0.8-0.4,1.7-0.4,2.7c0,1,0.1,1.9,0.4,2.7
		c0.3,0.8,0.7,1.5,1.3,1.9S189.2,40.2,190.1,40.2z"/>
	<path class="st10" d="M209.3,26.6v3h-9.4v-3H209.3z M202.3,22.7h3.9V38c0,0.5,0.1,0.9,0.2,1.2c0.2,0.3,0.4,0.5,0.6,0.6
		s0.6,0.1,0.9,0.1c0.2,0,0.5,0,0.7-0.1c0.2,0,0.4-0.1,0.5-0.1l0.6,3c-0.2,0.1-0.5,0.1-0.9,0.2c-0.4,0.1-0.8,0.1-1.4,0.1
		c-1,0-1.8-0.1-2.6-0.4c-0.8-0.3-1.4-0.8-1.8-1.5s-0.7-1.5-0.7-2.6V22.7z"/>
</g>
<g>
</g>
</svg>
